<svg xmlns="http://www.w3.org/2000/svg" xmlns:xlink="http://www.w3.org/1999/xlink" width="1920" zoomAndPan="magnify" viewBox="0 0 1440 809.999993" height="1080" preserveAspectRatio="xMidYMid meet" version="1.0"><defs><clipPath id="97fe20a867"><path d="M 556 64.6875 L 826 64.6875 L 826 118 L 556 118 Z M 556 64.6875 " clip-rule="nonzero"/></clipPath><clipPath id="8d616b2446"><path d="M 666 733 L 790 733 L 790 745.6875 L 666 745.6875 Z M 666 733 " clip-rule="nonzero"/></clipPath><clipPath id="983f1320ec"><path d="M 352.09375 311 L 431 311 L 431 319 L 352.09375 319 Z M 352.09375 311 " clip-rule="nonzero"/></clipPath><clipPath id="fc2178494d"><path d="M 939 192 L 1087.84375 192 L 1087.84375 377 L 939 377 Z M 939 192 " clip-rule="nonzero"/></clipPath><clipPath id="4118e29db9"><path d="M 499.53125 320.613281 L 548.714844 320.613281 L 548.714844 369.800781 L 499.53125 369.800781 Z M 499.53125 320.613281 " clip-rule="nonzero"/></clipPath><clipPath id="5c744f42d8"><path d="M 524.125 320.613281 C 510.542969 320.613281 499.53125 331.625 499.53125 345.207031 C 499.53125 358.789062 510.542969 369.800781 524.125 369.800781 C 537.707031 369.800781 548.714844 358.789062 548.714844 345.207031 C 548.714844 331.625 537.707031 320.613281 524.125 320.613281 Z M 524.125 320.613281 " clip-rule="nonzero"/></clipPath></defs><g clip-path="url(#97fe20a867)"><path fill="#4e46e5" d="M 559.855469 117.789062 C 558.640625 117.789062 557.457031 117.164062 556.800781 116.039062 C 555.8125 114.355469 556.378906 112.1875 558.0625 111.203125 C 569.296875 104.621094 581.023438 98.625 592.921875 93.390625 C 594.710938 92.601562 596.796875 93.414062 597.582031 95.199219 C 598.367188 96.988281 597.558594 99.074219 595.769531 99.859375 C 584.121094 104.988281 572.636719 110.855469 561.636719 117.304688 C 561.078125 117.632812 560.460938 117.789062 559.855469 117.789062 Z M 630.640625 86.632812 C 629.128906 86.632812 627.730469 85.65625 627.265625 84.136719 C 626.6875 82.269531 627.734375 80.292969 629.601562 79.71875 C 642.027344 75.890625 654.816406 72.746094 667.613281 70.378906 C 669.535156 70.023438 671.378906 71.289062 671.734375 73.210938 C 672.089844 75.132812 670.820312 76.976562 668.902344 77.332031 C 656.371094 79.652344 643.847656 82.726562 631.683594 86.476562 C 631.335938 86.582031 630.984375 86.632812 630.640625 86.632812 Z M 821.796875 84.402344 C 821.480469 84.402344 821.15625 84.359375 820.835938 84.269531 C 808.585938 80.808594 795.992188 78.027344 783.402344 76 C 781.476562 75.691406 780.164062 73.878906 780.476562 71.949219 C 780.785156 70.019531 782.601562 68.710938 784.527344 69.019531 C 797.382812 71.089844 810.246094 73.929688 822.757812 77.464844 C 824.636719 77.996094 825.730469 79.949219 825.199219 81.828125 C 824.757812 83.386719 823.339844 84.402344 821.796875 84.402344 Z M 706.679688 72.542969 C 704.839844 72.542969 703.285156 71.113281 703.15625 69.246094 C 703.023438 67.300781 704.496094 65.613281 706.445312 65.480469 C 714.230469 64.945312 722.152344 64.675781 729.988281 64.675781 C 729.992188 64.675781 729.992188 64.675781 729.992188 64.675781 C 735.175781 64.675781 740.421875 64.796875 745.585938 65.027344 C 747.535156 65.117188 749.046875 66.769531 748.957031 68.71875 C 748.867188 70.671875 747.207031 72.183594 745.265625 72.09375 C 740.210938 71.863281 735.070312 71.75 729.992188 71.75 C 729.992188 71.75 729.988281 71.75 729.988281 71.75 C 722.3125 71.75 714.550781 72.011719 706.925781 72.535156 C 706.84375 72.539062 706.761719 72.542969 706.679688 72.542969 Z M 706.679688 72.542969 " fill-opacity="1" fill-rule="nonzero"/></g><path fill="#4e46e5" d="M 556.25 697.585938 C 555.628906 697.585938 555 697.421875 554.425781 697.078125 C 543.296875 690.367188 532.425781 682.933594 522.117188 674.976562 C 520.570312 673.785156 520.285156 671.5625 521.476562 670.019531 C 522.671875 668.472656 524.890625 668.1875 526.4375 669.378906 C 536.53125 677.167969 547.175781 684.453125 558.078125 691.023438 C 559.75 692.03125 560.289062 694.203125 559.28125 695.875 C 558.617188 696.976562 557.449219 697.585938 556.25 697.585938 Z M 495.011719 650.328125 C 494.121094 650.328125 493.230469 649.996094 492.542969 649.328125 C 483.21875 640.253906 474.320312 630.546875 466.09375 620.472656 C 464.859375 618.960938 465.082031 616.734375 466.59375 615.5 C 468.109375 614.265625 470.335938 614.488281 471.570312 616 C 479.625 625.867188 488.34375 635.375 497.476562 644.257812 C 498.875 645.621094 498.90625 647.859375 497.542969 649.257812 C 496.851562 649.972656 495.929688 650.328125 495.011719 650.328125 Z M 446.089844 590.414062 C 444.925781 590.414062 443.785156 589.839844 443.109375 588.789062 C 436.082031 577.828125 429.625 566.351562 423.914062 554.675781 C 423.054688 552.921875 423.78125 550.804688 425.535156 549.945312 C 427.289062 549.085938 429.40625 549.8125 430.265625 551.566406 C 435.855469 563 442.183594 574.238281 449.0625 584.972656 C 450.117188 586.613281 449.640625 588.800781 447.996094 589.855469 C 447.402344 590.234375 446.742188 590.414062 446.089844 590.414062 Z M 412.105469 520.9375 C 410.648438 520.9375 409.285156 520.027344 408.773438 518.578125 C 404.445312 506.3125 400.789062 493.660156 397.90625 480.972656 C 397.472656 479.066406 398.667969 477.171875 400.570312 476.742188 C 402.476562 476.308594 404.367188 477.5 404.800781 479.40625 C 407.625 491.828125 411.203125 504.214844 415.441406 516.222656 C 416.089844 518.066406 415.125 520.085938 413.28125 520.734375 C 412.894531 520.871094 412.496094 520.9375 412.105469 520.9375 Z M 412.105469 520.9375 " fill-opacity="1" fill-rule="nonzero"/><g clip-path="url(#8d616b2446)"><path fill="#4e46e5" d="M 747.65625 745.308594 C 745.785156 745.308594 744.226562 743.84375 744.128906 741.957031 C 744.027344 740.007812 745.527344 738.34375 747.476562 738.246094 C 760.230469 737.585938 773.054688 736.183594 785.589844 734.082031 C 787.511719 733.757812 789.335938 735.058594 789.660156 736.984375 C 789.984375 738.910156 788.683594 740.734375 786.757812 741.054688 C 773.957031 743.203125 760.863281 744.632812 747.84375 745.304688 C 747.78125 745.308594 747.71875 745.308594 747.65625 745.308594 Z M 708.917969 745.117188 C 708.847656 745.117188 708.773438 745.113281 708.699219 745.109375 C 695.683594 744.308594 682.605469 742.746094 669.824219 740.464844 C 667.902344 740.121094 666.621094 738.285156 666.964844 736.363281 C 667.308594 734.441406 669.144531 733.164062 671.066406 733.503906 C 683.582031 735.734375 696.386719 737.265625 709.132812 738.050781 C 711.082031 738.171875 712.566406 739.851562 712.445312 741.800781 C 712.328125 743.675781 710.773438 745.117188 708.917969 745.117188 Z M 708.917969 745.117188 " fill-opacity="1" fill-rule="nonzero"/></g><path fill="#4e46e5" d="M 981.835938 632.703125 C 981 632.703125 980.160156 632.410156 979.484375 631.808594 C 978.027344 630.511719 977.898438 628.277344 979.195312 626.820312 C 987.667969 617.296875 995.679688 607.1875 1003 596.769531 C 1004.125 595.171875 1006.328125 594.785156 1007.925781 595.910156 C 1009.523438 597.03125 1009.910156 599.238281 1008.785156 600.835938 C 1001.308594 611.472656 993.128906 621.796875 984.476562 631.519531 C 983.78125 632.304688 982.808594 632.703125 981.835938 632.703125 Z M 1026.3125 569.414062 C 1025.742188 569.414062 1025.164062 569.277344 1024.628906 568.984375 C 1022.914062 568.054688 1022.277344 565.90625 1023.210938 564.191406 C 1029.296875 552.988281 1034.789062 541.320312 1039.539062 529.507812 C 1040.265625 527.695312 1042.324219 526.816406 1044.136719 527.546875 C 1045.949219 528.273438 1046.828125 530.332031 1046.097656 532.144531 C 1041.25 544.210938 1035.640625 556.128906 1029.425781 567.566406 C 1028.78125 568.746094 1027.566406 569.414062 1026.3125 569.414062 Z M 1055.160156 497.640625 C 1054.851562 497.640625 1054.539062 497.601562 1054.226562 497.515625 C 1052.34375 497 1051.234375 495.058594 1051.746094 493.175781 C 1055.09375 480.894531 1057.761719 468.277344 1059.675781 455.671875 C 1059.96875 453.738281 1061.773438 452.414062 1063.703125 452.707031 C 1065.632812 453 1066.960938 454.800781 1066.667969 456.730469 C 1064.714844 469.605469 1061.988281 482.496094 1058.570312 495.035156 C 1058.140625 496.605469 1056.714844 497.640625 1055.160156 497.640625 Z M 1055.160156 497.640625 " fill-opacity="1" fill-rule="nonzero"/><path fill="#caebff" d="M 977.429688 405.222656 C 977.429688 409.269531 977.332031 413.316406 977.132812 417.363281 C 976.933594 421.40625 976.636719 425.445312 976.238281 429.472656 C 975.84375 433.503906 975.347656 437.523438 974.753906 441.527344 C 974.160156 445.535156 973.464844 449.523438 972.675781 453.492188 C 971.886719 457.464844 971 461.414062 970.015625 465.34375 C 969.03125 469.273438 967.953125 473.171875 966.777344 477.046875 C 965.601562 480.921875 964.332031 484.765625 962.96875 488.582031 C 961.601562 492.394531 960.144531 496.167969 958.597656 499.910156 C 957.046875 503.652344 955.40625 507.351562 953.675781 511.015625 C 951.941406 514.675781 950.121094 518.289062 948.214844 521.863281 C 946.304688 525.433594 944.308594 528.957031 942.226562 532.429688 C 940.144531 535.902344 937.980469 539.324219 935.730469 542.691406 C 933.480469 546.058594 931.148438 549.367188 928.738281 552.621094 C 926.324219 555.871094 923.835938 559.0625 921.265625 562.195312 C 918.695312 565.324219 916.050781 568.390625 913.332031 571.390625 C 910.613281 574.390625 907.820312 577.320312 904.957031 580.1875 C 902.09375 583.050781 899.164062 585.839844 896.164062 588.558594 C 893.164062 591.28125 890.097656 593.921875 886.964844 596.492188 C 883.835938 599.0625 880.644531 601.550781 877.390625 603.964844 C 874.140625 606.375 870.828125 608.707031 867.460938 610.957031 C 864.097656 613.207031 860.675781 615.375 857.203125 617.453125 C 853.730469 619.535156 850.207031 621.53125 846.636719 623.441406 C 843.0625 625.351562 839.449219 627.171875 835.785156 628.902344 C 832.125 630.632812 828.425781 632.273438 824.683594 633.824219 C 820.941406 635.371094 817.164062 636.828125 813.351562 638.195312 C 809.539062 639.558594 805.695312 640.828125 801.820312 642.003906 C 797.945312 643.179688 794.042969 644.257812 790.117188 645.242188 C 786.1875 646.226562 782.238281 647.113281 778.265625 647.902344 C 774.296875 648.695312 770.304688 649.386719 766.300781 649.980469 C 762.296875 650.574219 758.277344 651.070312 754.246094 651.464844 C 750.21875 651.863281 746.179688 652.160156 742.136719 652.359375 C 738.089844 652.558594 734.042969 652.65625 729.996094 652.660156 C 725.945312 652.65625 721.898438 652.558594 717.851562 652.359375 C 713.808594 652.160156 709.769531 651.863281 705.742188 651.464844 C 701.710938 651.070312 697.691406 650.574219 693.6875 649.980469 C 689.683594 649.386719 685.691406 648.695312 681.722656 647.902344 C 677.75 647.113281 673.800781 646.226562 669.871094 645.242188 C 665.945312 644.257812 662.042969 643.179688 658.167969 642.003906 C 654.292969 640.828125 650.449219 639.558594 646.636719 638.195312 C 642.824219 636.828125 639.046875 635.371094 635.304688 633.824219 C 631.5625 632.273438 627.863281 630.632812 624.199219 628.902344 C 620.539062 627.171875 616.925781 625.351562 613.351562 623.441406 C 609.78125 621.53125 606.257812 619.535156 602.785156 617.453125 C 599.3125 615.375 595.890625 613.207031 592.527344 610.957031 C 589.160156 608.707031 585.847656 606.375 582.597656 603.964844 C 579.34375 601.550781 576.152344 599.0625 573.023438 596.492188 C 569.890625 593.921875 566.824219 591.28125 563.824219 588.558594 C 560.824219 585.839844 557.894531 583.050781 555.03125 580.1875 C 552.167969 577.320312 549.375 574.390625 546.65625 571.390625 C 543.9375 568.390625 541.292969 565.324219 538.722656 562.195312 C 536.152344 559.0625 533.664062 555.871094 531.25 552.621094 C 528.839844 549.367188 526.507812 546.058594 524.257812 542.691406 C 522.007812 539.324219 519.84375 535.902344 517.761719 532.429688 C 515.679688 528.957031 513.683594 525.433594 511.773438 521.863281 C 509.863281 518.289062 508.046875 514.675781 506.3125 511.015625 C 504.582031 507.351562 502.941406 503.652344 501.390625 499.910156 C 499.84375 496.167969 498.386719 492.394531 497.019531 488.582031 C 495.65625 484.765625 494.386719 480.921875 493.210938 477.046875 C 492.035156 473.171875 490.957031 469.273438 489.972656 465.34375 C 488.988281 461.414062 488.101562 457.464844 487.3125 453.492188 C 486.523438 449.523438 485.828125 445.535156 485.234375 441.527344 C 484.640625 437.523438 484.144531 433.503906 483.75 429.472656 C 483.351562 425.445312 483.054688 421.40625 482.855469 417.363281 C 482.65625 413.316406 482.558594 409.269531 482.558594 405.222656 C 482.558594 401.171875 482.65625 397.125 482.855469 393.078125 C 483.054688 389.035156 483.351562 385 483.75 380.96875 C 484.144531 376.9375 484.640625 372.921875 485.234375 368.914062 C 485.828125 364.910156 486.523438 360.921875 487.3125 356.949219 C 488.101562 352.976562 488.988281 349.027344 489.972656 345.097656 C 490.957031 341.171875 492.035156 337.269531 493.210938 333.394531 C 494.386719 329.519531 495.65625 325.675781 497.019531 321.863281 C 498.386719 318.050781 499.84375 314.273438 501.390625 310.53125 C 502.941406 306.789062 504.582031 303.089844 506.3125 299.429688 C 508.046875 295.765625 509.863281 292.152344 511.773438 288.582031 C 513.683594 285.007812 515.679688 281.488281 517.761719 278.011719 C 519.84375 274.539062 522.007812 271.121094 524.257812 267.753906 C 526.507812 264.386719 528.839844 261.074219 531.25 257.824219 C 533.664062 254.570312 536.152344 251.378906 538.722656 248.25 C 541.292969 245.117188 543.9375 242.054688 546.65625 239.050781 C 549.375 236.050781 552.167969 233.121094 555.03125 230.257812 C 557.894531 227.394531 560.824219 224.601562 563.824219 221.882812 C 566.824219 219.164062 569.890625 216.519531 573.023438 213.949219 C 576.152344 211.378906 579.34375 208.890625 582.597656 206.476562 C 585.847656 204.066406 589.160156 201.734375 592.527344 199.484375 C 595.890625 197.234375 599.3125 195.070312 602.785156 192.988281 C 606.257812 190.90625 609.78125 188.910156 613.351562 187 C 616.925781 185.09375 620.539062 183.273438 624.203125 181.539062 C 627.863281 179.808594 631.5625 178.167969 635.304688 176.617188 C 639.046875 175.070312 642.824219 173.613281 646.636719 172.25 C 650.449219 170.882812 654.292969 169.613281 658.167969 168.4375 C 662.042969 167.261719 665.945312 166.183594 669.871094 165.199219 C 673.800781 164.214844 677.75 163.328125 681.722656 162.539062 C 685.691406 161.75 689.683594 161.054688 693.6875 160.460938 C 697.691406 159.867188 701.710938 159.371094 705.742188 158.976562 C 709.769531 158.578125 713.808594 158.28125 717.851562 158.082031 C 721.898438 157.882812 725.945312 157.785156 729.996094 157.785156 C 734.042969 157.785156 738.089844 157.882812 742.136719 158.082031 C 746.179688 158.28125 750.21875 158.578125 754.246094 158.976562 C 758.277344 159.371094 762.296875 159.867188 766.300781 160.460938 C 770.304688 161.054688 774.296875 161.75 778.265625 162.539062 C 782.238281 163.328125 786.1875 164.214844 790.117188 165.199219 C 794.042969 166.183594 797.945312 167.261719 801.820312 168.4375 C 805.695312 169.613281 809.539062 170.882812 813.351562 172.25 C 817.164062 173.613281 820.941406 175.070312 824.683594 176.617188 C 828.425781 178.167969 832.125 179.808594 835.785156 181.539062 C 839.449219 183.273438 843.0625 185.09375 846.636719 187 C 850.207031 188.910156 853.730469 190.90625 857.203125 192.988281 C 860.675781 195.070312 864.097656 197.234375 867.460938 199.484375 C 870.828125 201.734375 874.140625 204.066406 877.390625 206.476562 C 880.644531 208.890625 883.835938 211.378906 886.964844 213.949219 C 890.097656 216.519531 893.164062 219.164062 896.164062 221.882812 C 899.164062 224.601562 902.09375 227.394531 904.957031 230.257812 C 907.820312 233.121094 910.613281 236.050781 913.332031 239.050781 C 916.050781 242.054688 918.695312 245.117188 921.265625 248.25 C 923.835938 251.378906 926.324219 254.570312 928.738281 257.824219 C 931.148438 261.074219 933.480469 264.386719 935.730469 267.753906 C 937.980469 271.121094 940.144531 274.539062 942.226562 278.011719 C 944.308594 281.488281 946.304688 285.007812 948.214844 288.582031 C 950.121094 292.152344 951.941406 295.765625 953.675781 299.429688 C 955.40625 303.089844 957.046875 306.789062 958.597656 310.53125 C 960.144531 314.273438 961.601562 318.050781 962.96875 321.863281 C 964.332031 325.675781 965.601562 329.519531 966.777344 333.394531 C 967.953125 337.269531 969.03125 341.171875 970.015625 345.097656 C 971 349.027344 971.886719 352.976562 972.675781 356.949219 C 973.464844 360.921875 974.160156 364.910156 974.753906 368.914062 C 975.347656 372.921875 975.84375 376.9375 976.238281 380.96875 C 976.636719 385 976.933594 389.035156 977.132812 393.078125 C 977.332031 397.125 977.429688 401.171875 977.429688 405.222656 Z M 977.429688 405.222656 " fill-opacity="1" fill-rule="nonzero"/><path fill="#dee2fc" d="M 683.359375 315.34375 C 683.359375 317.886719 683.296875 320.429688 683.171875 322.96875 C 683.046875 325.511719 682.859375 328.046875 682.609375 330.578125 C 682.359375 333.109375 682.050781 335.632812 681.675781 338.152344 C 681.304688 340.667969 680.867188 343.171875 680.371094 345.667969 C 679.875 348.164062 679.320312 350.644531 678.699219 353.109375 C 678.082031 355.578125 677.40625 358.03125 676.664062 360.464844 C 675.925781 362.898438 675.128906 365.3125 674.273438 367.707031 C 673.414062 370.101562 672.5 372.476562 671.527344 374.824219 C 670.554688 377.175781 669.523438 379.5 668.433594 381.800781 C 667.347656 384.101562 666.203125 386.371094 665.003906 388.613281 C 663.804688 390.859375 662.554688 393.070312 661.246094 395.253906 C 659.9375 397.433594 658.578125 399.582031 657.164062 401.699219 C 655.75 403.8125 654.285156 405.890625 652.769531 407.9375 C 651.253906 409.980469 649.691406 411.984375 648.078125 413.949219 C 646.464844 415.917969 644.800781 417.84375 643.09375 419.726562 C 641.386719 421.613281 639.632812 423.453125 637.832031 425.253906 C 636.035156 427.050781 634.191406 428.804688 632.308594 430.511719 C 630.421875 432.222656 628.496094 433.882812 626.53125 435.496094 C 624.566406 437.109375 622.558594 438.675781 620.515625 440.191406 C 618.472656 441.703125 616.394531 443.167969 614.277344 444.582031 C 612.164062 445.996094 610.015625 447.355469 607.832031 448.664062 C 605.652344 449.972656 603.4375 451.226562 601.195312 452.425781 C 598.953125 453.625 596.679688 454.765625 594.382812 455.855469 C 592.082031 456.941406 589.757812 457.972656 587.40625 458.945312 C 585.054688 459.917969 582.683594 460.835938 580.289062 461.691406 C 577.894531 462.546875 575.480469 463.347656 573.042969 464.085938 C 570.609375 464.824219 568.160156 465.5 565.691406 466.121094 C 563.222656 466.738281 560.742188 467.296875 558.25 467.792969 C 555.753906 468.289062 553.246094 468.722656 550.730469 469.09375 C 548.214844 469.46875 545.691406 469.78125 543.160156 470.03125 C 540.628906 470.277344 538.09375 470.464844 535.550781 470.589844 C 533.011719 470.714844 530.46875 470.777344 527.925781 470.777344 C 525.382812 470.777344 522.839844 470.714844 520.296875 470.589844 C 517.757812 470.464844 515.222656 470.277344 512.691406 470.03125 C 510.15625 469.78125 507.632812 469.46875 505.117188 469.09375 C 502.601562 468.722656 500.097656 468.289062 497.601562 467.792969 C 495.105469 467.296875 492.625 466.738281 490.15625 466.121094 C 487.691406 465.5 485.238281 464.824219 482.804688 464.085938 C 480.371094 463.347656 477.957031 462.550781 475.558594 461.691406 C 473.164062 460.835938 470.792969 459.917969 468.441406 458.945312 C 466.09375 457.972656 463.765625 456.941406 461.46875 455.855469 C 459.167969 454.765625 456.898438 453.625 454.652344 452.425781 C 452.410156 451.226562 450.199219 449.972656 448.015625 448.664062 C 445.832031 447.355469 443.683594 445.996094 441.570312 444.582031 C 439.453125 443.167969 437.375 441.703125 435.332031 440.191406 C 433.289062 438.675781 431.285156 437.109375 429.316406 435.496094 C 427.351562 433.882812 425.425781 432.222656 423.542969 430.511719 C 421.65625 428.804688 419.816406 427.050781 418.015625 425.253906 C 416.21875 423.453125 414.464844 421.613281 412.753906 419.726562 C 411.046875 417.84375 409.386719 415.917969 407.773438 413.949219 C 406.160156 411.984375 404.59375 409.980469 403.078125 407.9375 C 401.5625 405.890625 400.097656 403.8125 398.6875 401.699219 C 397.273438 399.582031 395.910156 397.433594 394.605469 395.253906 C 393.296875 393.070312 392.042969 390.859375 390.84375 388.613281 C 389.644531 386.371094 388.5 384.101562 387.414062 381.800781 C 386.328125 379.5 385.296875 377.175781 384.320312 374.824219 C 383.347656 372.476562 382.433594 370.101562 381.578125 367.707031 C 380.71875 365.3125 379.921875 362.898438 379.183594 360.464844 C 378.445312 358.03125 377.765625 355.578125 377.148438 353.109375 C 376.53125 350.644531 375.972656 348.164062 375.476562 345.667969 C 374.980469 343.171875 374.546875 340.667969 374.171875 338.152344 C 373.800781 335.632812 373.488281 333.109375 373.238281 330.578125 C 372.988281 328.046875 372.800781 325.511719 372.675781 322.96875 C 372.554688 320.429688 372.492188 317.886719 372.492188 315.34375 C 372.492188 312.800781 372.554688 310.257812 372.675781 307.71875 C 372.800781 305.175781 372.988281 302.640625 373.238281 300.109375 C 373.488281 297.578125 373.800781 295.054688 374.171875 292.535156 C 374.546875 290.019531 374.980469 287.515625 375.476562 285.019531 C 375.972656 282.523438 376.53125 280.042969 377.148438 277.578125 C 377.765625 275.109375 378.445312 272.65625 379.183594 270.222656 C 379.921875 267.789062 380.71875 265.375 381.578125 262.980469 C 382.433594 260.585938 383.347656 258.210938 384.320312 255.863281 C 385.296875 253.511719 386.328125 251.1875 387.414062 248.886719 C 388.5 246.585938 389.644531 244.316406 390.84375 242.074219 C 392.042969 239.828125 393.296875 237.617188 394.605469 235.433594 C 395.910156 233.253906 397.273438 231.105469 398.6875 228.988281 C 400.097656 226.875 401.5625 224.792969 403.078125 222.75 C 404.59375 220.707031 406.160156 218.703125 407.773438 216.738281 C 409.386719 214.769531 411.046875 212.84375 412.753906 210.960938 C 414.464844 209.074219 416.21875 207.234375 418.015625 205.433594 C 419.816406 203.636719 421.65625 201.882812 423.542969 200.175781 C 425.425781 198.464844 427.351562 196.804688 429.316406 195.191406 C 431.285156 193.578125 433.289062 192.011719 435.332031 190.496094 C 437.375 188.984375 439.453125 187.519531 441.570312 186.105469 C 443.683594 184.691406 445.832031 183.332031 448.015625 182.023438 C 450.199219 180.714844 452.410156 179.460938 454.652344 178.261719 C 456.898438 177.0625 459.167969 175.921875 461.46875 174.832031 C 463.765625 173.746094 466.09375 172.714844 468.441406 171.742188 C 470.792969 170.769531 473.164062 169.851562 475.558594 168.996094 C 477.957031 168.136719 480.371094 167.339844 482.804688 166.601562 C 485.238281 165.863281 487.691406 165.1875 490.15625 164.566406 C 492.625 163.949219 495.105469 163.390625 497.601562 162.894531 C 500.097656 162.398438 502.601562 161.964844 505.117188 161.59375 C 507.632812 161.21875 510.15625 160.90625 512.691406 160.65625 C 515.222656 160.410156 517.757812 160.222656 520.296875 160.097656 C 522.839844 159.972656 525.382812 159.910156 527.925781 159.910156 C 530.46875 159.910156 533.011719 159.972656 535.550781 160.097656 C 538.09375 160.222656 540.628906 160.410156 543.160156 160.65625 C 545.691406 160.90625 548.214844 161.21875 550.730469 161.59375 C 553.246094 161.964844 555.753906 162.398438 558.25 162.894531 C 560.742188 163.390625 563.222656 163.949219 565.691406 164.566406 C 568.160156 165.1875 570.609375 165.863281 573.042969 166.601562 C 575.480469 167.339844 577.894531 168.136719 580.289062 168.996094 C 582.683594 169.851562 585.058594 170.769531 587.40625 171.742188 C 589.757812 172.714844 592.082031 173.746094 594.382812 174.832031 C 596.679688 175.921875 598.953125 177.0625 601.195312 178.261719 C 603.4375 179.460938 605.652344 180.714844 607.832031 182.023438 C 610.015625 183.332031 612.164062 184.691406 614.28125 186.105469 C 616.394531 187.519531 618.472656 188.984375 620.515625 190.496094 C 622.558594 192.011719 624.566406 193.578125 626.53125 195.191406 C 628.496094 196.804688 630.421875 198.464844 632.308594 200.175781 C 634.191406 201.882812 636.035156 203.636719 637.832031 205.433594 C 639.632812 207.234375 641.386719 209.074219 643.09375 210.960938 C 644.800781 212.84375 646.464844 214.769531 648.078125 216.738281 C 649.691406 218.703125 651.253906 220.707031 652.769531 222.75 C 654.285156 224.792969 655.75 226.875 657.164062 228.988281 C 658.578125 231.105469 659.9375 233.253906 661.246094 235.433594 C 662.554688 237.617188 663.804688 239.828125 665.003906 242.074219 C 666.203125 244.316406 667.347656 246.585938 668.4375 248.886719 C 669.523438 251.1875 670.554688 253.511719 671.527344 255.863281 C 672.5 258.210938 673.414062 260.585938 674.273438 262.980469 C 675.128906 265.375 675.925781 267.789062 676.664062 270.222656 C 677.40625 272.65625 678.082031 275.109375 678.699219 277.578125 C 679.320312 280.042969 679.875 282.523438 680.371094 285.019531 C 680.867188 287.515625 681.304688 290.019531 681.675781 292.535156 C 682.050781 295.054688 682.359375 297.578125 682.609375 300.109375 C 682.859375 302.640625 683.046875 305.175781 683.171875 307.71875 C 683.296875 310.257812 683.359375 312.800781 683.359375 315.34375 Z M 683.359375 315.34375 " fill-opacity="1" fill-rule="nonzero"/><path fill="#4e46e5" d="M 527.925781 474.3125 C 506.464844 474.3125 485.644531 470.109375 466.046875 461.820312 C 447.113281 453.8125 430.113281 442.351562 415.515625 427.753906 C 400.917969 413.152344 389.457031 396.152344 381.449219 377.222656 C 373.160156 357.621094 368.953125 336.804688 368.953125 315.34375 C 368.953125 293.882812 373.160156 273.066406 381.449219 253.464844 C 389.457031 234.535156 400.917969 217.535156 415.515625 202.933594 C 430.113281 188.335938 447.113281 176.875 466.046875 168.867188 C 485.644531 160.578125 506.464844 156.375 527.925781 156.375 C 549.382812 156.375 570.203125 160.578125 589.804688 168.867188 C 608.734375 176.875 625.734375 188.335938 640.332031 202.933594 C 654.933594 217.535156 666.394531 234.535156 674.402344 253.464844 C 682.691406 273.066406 686.894531 293.882812 686.894531 315.34375 C 686.894531 336.804688 682.691406 357.621094 674.402344 377.222656 C 666.394531 396.152344 654.933594 413.152344 640.332031 427.753906 C 625.734375 442.351562 608.734375 453.8125 589.804688 461.820312 C 570.203125 470.109375 549.382812 474.3125 527.925781 474.3125 Z M 527.925781 163.445312 C 444.167969 163.445312 376.027344 231.585938 376.027344 315.34375 C 376.027344 399.101562 444.167969 467.242188 527.925781 467.242188 C 611.683594 467.242188 679.824219 399.101562 679.824219 315.34375 C 679.824219 231.585938 611.683594 163.445312 527.925781 163.445312 Z M 527.925781 163.445312 " fill-opacity="1" fill-rule="nonzero"/><path fill="#ffffff" d="M 649.621094 315.34375 C 649.621094 317.335938 649.574219 319.324219 649.472656 321.316406 C 649.375 323.304688 649.230469 325.289062 649.035156 327.273438 C 648.839844 329.253906 648.597656 331.230469 648.304688 333.199219 C 648.011719 335.171875 647.671875 337.132812 647.28125 339.085938 C 646.894531 341.039062 646.457031 342.980469 645.972656 344.914062 C 645.488281 346.84375 644.960938 348.765625 644.382812 350.671875 C 643.804688 352.578125 643.179688 354.464844 642.507812 356.34375 C 641.835938 358.21875 641.121094 360.074219 640.359375 361.914062 C 639.59375 363.753906 638.789062 365.574219 637.9375 367.375 C 637.085938 369.175781 636.191406 370.953125 635.25 372.710938 C 634.3125 374.46875 633.332031 376.199219 632.308594 377.90625 C 631.285156 379.617188 630.21875 381.296875 629.113281 382.953125 C 628.003906 384.609375 626.859375 386.238281 625.671875 387.839844 C 624.484375 389.4375 623.261719 391.007812 621.996094 392.546875 C 620.734375 394.085938 619.433594 395.59375 618.097656 397.070312 C 616.757812 398.546875 615.386719 399.988281 613.976562 401.394531 C 612.570312 402.804688 611.125 404.175781 609.652344 405.515625 C 608.175781 406.851562 606.667969 408.152344 605.128906 409.417969 C 603.589844 410.679688 602.019531 411.90625 600.417969 413.089844 C 598.820312 414.277344 597.191406 415.425781 595.535156 416.53125 C 593.878906 417.636719 592.199219 418.703125 590.488281 419.726562 C 588.78125 420.75 587.046875 421.730469 585.292969 422.671875 C 583.535156 423.609375 581.757812 424.503906 579.957031 425.355469 C 578.15625 426.207031 576.335938 427.015625 574.496094 427.777344 C 572.65625 428.539062 570.796875 429.253906 568.921875 429.925781 C 567.046875 430.597656 565.15625 431.222656 563.25 431.800781 C 561.34375 432.378906 559.425781 432.910156 557.496094 433.394531 C 555.5625 433.878906 553.621094 434.3125 551.667969 434.703125 C 549.714844 435.089844 547.75 435.429688 545.78125 435.722656 C 543.8125 436.015625 541.835938 436.257812 539.851562 436.453125 C 537.871094 436.648438 535.886719 436.796875 533.894531 436.894531 C 531.90625 436.992188 529.917969 437.039062 527.925781 437.039062 C 525.933594 437.039062 523.941406 436.992188 521.953125 436.894531 C 519.964844 436.796875 517.976562 436.648438 515.996094 436.453125 C 514.015625 436.257812 512.039062 436.015625 510.066406 435.722656 C 508.097656 435.429688 506.136719 435.089844 504.183594 434.703125 C 502.230469 434.3125 500.285156 433.878906 498.355469 433.394531 C 496.421875 432.910156 494.503906 432.378906 492.597656 431.800781 C 490.691406 431.222656 488.800781 430.597656 486.925781 429.925781 C 485.050781 429.253906 483.195312 428.539062 481.351562 427.777344 C 479.511719 427.015625 477.691406 426.207031 475.894531 425.355469 C 474.09375 424.503906 472.3125 423.609375 470.558594 422.671875 C 468.800781 421.730469 467.070312 420.75 465.359375 419.726562 C 463.652344 418.703125 461.96875 417.636719 460.3125 416.53125 C 458.65625 415.425781 457.03125 414.277344 455.429688 413.089844 C 453.832031 411.90625 452.261719 410.679688 450.722656 409.417969 C 449.183594 408.152344 447.675781 406.851562 446.199219 405.515625 C 444.722656 404.175781 443.28125 402.804688 441.871094 401.394531 C 440.464844 399.988281 439.089844 398.546875 437.753906 397.070312 C 436.417969 395.59375 435.117188 394.085938 433.851562 392.546875 C 432.589844 391.007812 431.363281 389.4375 430.175781 387.839844 C 428.992188 386.238281 427.84375 384.609375 426.738281 382.953125 C 425.632812 381.296875 424.566406 379.617188 423.542969 377.90625 C 422.519531 376.199219 421.535156 374.46875 420.597656 372.710938 C 419.660156 370.953125 418.765625 369.175781 417.914062 367.375 C 417.0625 365.574219 416.253906 363.753906 415.492188 361.914062 C 414.730469 360.074219 414.011719 358.21875 413.34375 356.34375 C 412.671875 354.464844 412.046875 352.578125 411.46875 350.671875 C 410.890625 348.765625 410.359375 346.84375 409.875 344.914062 C 409.390625 342.980469 408.957031 341.039062 408.566406 339.085938 C 408.179688 337.132812 407.835938 335.171875 407.546875 333.199219 C 407.253906 331.230469 407.007812 329.253906 406.8125 327.273438 C 406.617188 325.289062 406.472656 323.304688 406.375 321.316406 C 406.277344 319.324219 406.226562 317.335938 406.226562 315.34375 C 406.226562 313.351562 406.277344 311.363281 406.375 309.371094 C 406.472656 307.382812 406.617188 305.398438 406.8125 303.414062 C 407.007812 301.433594 407.253906 299.457031 407.546875 297.488281 C 407.835938 295.515625 408.179688 293.554688 408.566406 291.601562 C 408.957031 289.648438 409.390625 287.707031 409.875 285.773438 C 410.359375 283.84375 410.890625 281.921875 411.46875 280.015625 C 412.046875 278.109375 412.671875 276.21875 413.34375 274.34375 C 414.011719 272.46875 414.730469 270.613281 415.492188 268.773438 C 416.253906 266.933594 417.0625 265.113281 417.914062 263.3125 C 418.765625 261.511719 419.660156 259.734375 420.597656 257.976562 C 421.535156 256.21875 422.519531 254.488281 423.542969 252.777344 C 424.566406 251.070312 425.632812 249.390625 426.738281 247.734375 C 427.84375 246.078125 428.992188 244.449219 430.175781 242.847656 C 431.363281 241.25 432.589844 239.679688 433.851562 238.140625 C 435.117188 236.601562 436.414062 235.09375 437.753906 233.617188 C 439.089844 232.140625 440.464844 230.699219 441.871094 229.292969 C 443.28125 227.882812 444.722656 226.511719 446.199219 225.171875 C 447.675781 223.835938 449.183594 222.535156 450.722656 221.269531 C 452.261719 220.007812 453.832031 218.78125 455.429688 217.597656 C 457.03125 216.410156 458.65625 215.261719 460.3125 214.15625 C 461.96875 213.050781 463.652344 211.984375 465.359375 210.960938 C 467.070312 209.9375 468.800781 208.957031 470.558594 208.015625 C 472.3125 207.078125 474.09375 206.183594 475.894531 205.332031 C 477.691406 204.480469 479.511719 203.671875 481.351562 202.910156 C 483.195312 202.148438 485.050781 201.433594 486.925781 200.761719 C 488.800781 200.089844 490.691406 199.464844 492.597656 198.886719 C 494.503906 198.308594 496.421875 197.777344 498.355469 197.292969 C 500.285156 196.808594 502.230469 196.375 504.183594 195.984375 C 506.136719 195.597656 508.097656 195.257812 510.066406 194.964844 C 512.039062 194.671875 514.015625 194.429688 515.996094 194.234375 C 517.976562 194.039062 519.964844 193.890625 521.953125 193.792969 C 523.941406 193.695312 525.933594 193.648438 527.925781 193.648438 C 529.917969 193.648438 531.90625 193.695312 533.894531 193.792969 C 535.886719 193.890625 537.871094 194.039062 539.851562 194.234375 C 541.835938 194.429688 543.8125 194.671875 545.78125 194.964844 C 547.75 195.257812 549.714844 195.597656 551.667969 195.984375 C 553.621094 196.375 555.5625 196.808594 557.496094 197.292969 C 559.425781 197.777344 561.34375 198.308594 563.25 198.886719 C 565.15625 199.464844 567.046875 200.089844 568.921875 200.761719 C 570.796875 201.433594 572.65625 202.148438 574.496094 202.910156 C 576.335938 203.671875 578.15625 204.480469 579.957031 205.332031 C 581.757812 206.183594 583.535156 207.078125 585.292969 208.015625 C 587.046875 208.957031 588.78125 209.9375 590.488281 210.960938 C 592.199219 211.984375 593.878906 213.050781 595.535156 214.15625 C 597.191406 215.261719 598.820312 216.410156 600.417969 217.597656 C 602.019531 218.78125 603.589844 220.007812 605.128906 221.269531 C 606.667969 222.535156 608.175781 223.835938 609.652344 225.171875 C 611.125 226.511719 612.570312 227.882812 613.976562 229.292969 C 615.386719 230.699219 616.757812 232.140625 618.097656 233.617188 C 619.433594 235.09375 620.734375 236.601562 621.996094 238.140625 C 623.261719 239.679688 624.484375 241.25 625.671875 242.847656 C 626.859375 244.449219 628.003906 246.078125 629.113281 247.734375 C 630.21875 249.390625 631.285156 251.070312 632.308594 252.777344 C 633.332031 254.488281 634.3125 256.21875 635.25 257.976562 C 636.191406 259.734375 637.085938 261.511719 637.9375 263.3125 C 638.789062 265.113281 639.59375 266.933594 640.359375 268.773438 C 641.121094 270.613281 641.835938 272.46875 642.507812 274.34375 C 643.179688 276.21875 643.804688 278.109375 644.382812 280.015625 C 644.960938 281.921875 645.488281 283.84375 645.972656 285.773438 C 646.457031 287.707031 646.894531 289.648438 647.28125 291.601562 C 647.671875 293.554688 648.011719 295.515625 648.304688 297.488281 C 648.597656 299.457031 648.839844 301.433594 649.035156 303.414062 C 649.230469 305.398438 649.375 307.382812 649.472656 309.371094 C 649.574219 311.363281 649.621094 313.351562 649.621094 315.34375 Z M 649.621094 315.34375 " fill-opacity="1" fill-rule="nonzero"/><path fill="#4e46e5" d="M 527.925781 440.574219 C 511.019531 440.574219 494.617188 437.265625 479.175781 430.734375 C 464.265625 424.425781 450.871094 415.394531 439.371094 403.894531 C 427.871094 392.394531 418.84375 379.003906 412.535156 364.089844 C 406.003906 348.648438 402.691406 332.25 402.691406 315.34375 C 402.691406 298.4375 406.003906 282.039062 412.535156 266.597656 C 418.84375 251.683594 427.871094 238.292969 439.371094 226.792969 C 450.871094 215.292969 464.265625 206.261719 479.175781 199.953125 C 494.621094 193.421875 511.019531 190.113281 527.925781 190.113281 C 544.828125 190.113281 561.230469 193.421875 576.671875 199.953125 C 591.585938 206.261719 604.976562 215.292969 616.476562 226.792969 C 627.976562 238.292969 637.007812 251.683594 643.3125 266.597656 C 649.84375 282.039062 653.15625 298.4375 653.15625 315.34375 C 653.15625 332.25 649.84375 348.648438 643.3125 364.089844 C 637.007812 379.003906 627.976562 392.394531 616.476562 403.894531 C 604.976562 415.394531 591.585938 424.425781 576.671875 430.734375 C 561.230469 437.265625 544.828125 440.574219 527.925781 440.574219 Z M 527.925781 197.183594 C 462.769531 197.183594 409.765625 250.191406 409.765625 315.34375 C 409.765625 380.496094 462.769531 433.503906 527.925781 433.503906 C 593.078125 433.503906 646.085938 380.496094 646.085938 315.34375 C 646.085938 250.191406 593.078125 197.183594 527.925781 197.183594 Z M 527.925781 197.183594 " fill-opacity="1" fill-rule="nonzero"/><path fill="#4e46e5" d="M 528.0625 218.191406 C 526.109375 218.191406 524.527344 216.609375 524.527344 214.65625 L 524.527344 142.992188 C 524.527344 141.039062 526.109375 139.457031 528.0625 139.457031 C 530.015625 139.457031 531.597656 141.039062 531.597656 142.992188 L 531.597656 214.65625 C 531.597656 216.609375 530.015625 218.191406 528.0625 218.191406 Z M 528.0625 218.191406 " fill-opacity="1" fill-rule="nonzero"/><path fill="#4e46e5" d="M 528.0625 491.230469 C 526.109375 491.230469 524.527344 489.648438 524.527344 487.695312 L 524.527344 416.03125 C 524.527344 414.078125 526.109375 412.496094 528.0625 412.496094 C 530.015625 412.496094 531.597656 414.078125 531.597656 416.03125 L 531.597656 487.695312 C 531.597656 489.648438 530.015625 491.230469 528.0625 491.230469 Z M 528.0625 491.230469 " fill-opacity="1" fill-rule="nonzero"/><path fill="#4e46e5" d="M 700.414062 318.878906 L 628.746094 318.878906 C 626.792969 318.878906 625.210938 317.296875 625.210938 315.34375 C 625.210938 313.390625 626.792969 311.808594 628.746094 311.808594 L 700.414062 311.808594 C 702.367188 311.808594 703.949219 313.390625 703.949219 315.34375 C 703.949219 317.296875 702.367188 318.878906 700.414062 318.878906 Z M 700.414062 318.878906 " fill-opacity="1" fill-rule="nonzero"/><g clip-path="url(#983f1320ec)"><path fill="#4e46e5" d="M 427.375 318.878906 L 355.707031 318.878906 C 353.757812 318.878906 352.171875 317.296875 352.171875 315.34375 C 352.171875 313.390625 353.757812 311.808594 355.707031 311.808594 L 427.375 311.808594 C 429.328125 311.808594 430.910156 313.390625 430.910156 315.34375 C 430.910156 317.296875 429.328125 318.878906 427.375 318.878906 Z M 427.375 318.878906 " fill-opacity="1" fill-rule="nonzero"/></g><path fill="#4e46e5" d="M 493.234375 389.929688 C 481.839844 389.925781 472.863281 380.257812 473.628906 368.890625 C 475.175781 346.011719 478.382812 323.972656 488.078125 310.835938 C 494.277344 302.441406 504.03125 292.890625 514.160156 292.917969 C 522.46875 292.9375 532.363281 292.96875 543.808594 292.980469 C 554.414062 292.996094 564.410156 303.164062 570.707031 312.113281 C 579.871094 325.144531 582.839844 346.703125 584.28125 368.964844 C 585.019531 380.308594 576.039062 389.933594 564.671875 389.929688 Z M 493.234375 389.929688 " fill-opacity="1" fill-rule="nonzero"/><path fill="#4e46e5" d="M 564.671875 393.464844 L 493.234375 393.464844 C 486.753906 393.464844 480.746094 390.855469 476.316406 386.117188 C 471.933594 381.429688 469.667969 375.0625 470.101562 368.652344 C 471.550781 347.195312 474.480469 323.300781 485.234375 308.738281 C 490.574219 301.503906 501.421875 289.382812 514.121094 289.382812 C 514.136719 289.382812 514.152344 289.382812 514.167969 289.382812 L 520.335938 289.398438 C 527.246094 289.414062 535.078125 289.433594 543.8125 289.445312 C 557.113281 289.464844 568.183594 302.382812 573.597656 310.078125 C 583.699219 324.445312 586.453125 347.792969 587.8125 368.738281 C 588.226562 375.128906 585.953125 381.472656 581.578125 386.140625 C 577.148438 390.863281 571.144531 393.464844 564.671875 393.464844 Z M 493.234375 386.390625 L 564.671875 386.394531 C 569.167969 386.394531 573.339844 384.585938 576.417969 381.304688 C 579.507812 378.007812 581.046875 373.707031 580.753906 369.195312 C 579.535156 350.398438 576.960938 327.15625 567.8125 314.148438 C 564.089844 308.851562 554.292969 296.53125 543.800781 296.515625 C 535.066406 296.503906 527.230469 296.484375 520.316406 296.46875 L 514.152344 296.453125 C 514.140625 296.453125 514.128906 296.453125 514.121094 296.453125 C 504.167969 296.453125 494.582031 307.976562 490.921875 312.9375 C 481.195312 326.113281 478.457031 349.886719 477.15625 369.128906 C 476.851562 373.65625 478.386719 377.976562 481.480469 381.289062 C 484.558594 384.578125 488.734375 386.390625 493.234375 386.390625 Z M 493.234375 386.390625 " fill-opacity="1" fill-rule="nonzero"/><path fill="#ffffff" d="M 557.898438 267.808594 C 557.898438 268.816406 557.851562 269.820312 557.753906 270.824219 C 557.660156 271.828125 557.515625 272.824219 557.328125 273.8125 C 557.136719 274.800781 556.898438 275.78125 556.617188 276.746094 C 556.335938 277.710938 556.007812 278.65625 555.632812 279.589844 C 555.261719 280.519531 554.84375 281.429688 554.386719 282.320312 C 553.925781 283.210938 553.425781 284.074219 552.886719 284.914062 C 552.34375 285.75 551.765625 286.558594 551.148438 287.339844 C 550.53125 288.117188 549.875 288.863281 549.1875 289.578125 C 548.5 290.292969 547.777344 290.96875 547.023438 291.605469 C 546.273438 292.246094 545.492188 292.847656 544.679688 293.40625 C 543.871094 293.96875 543.035156 294.484375 542.179688 294.960938 C 541.320312 295.4375 540.4375 295.867188 539.539062 296.253906 C 538.640625 296.636719 537.722656 296.976562 536.792969 297.269531 C 535.859375 297.5625 534.914062 297.808594 533.960938 298.003906 C 533.003906 298.203125 532.042969 298.347656 531.074219 298.449219 C 530.105469 298.546875 529.132812 298.597656 528.160156 298.597656 C 527.183594 298.597656 526.214844 298.546875 525.242188 298.449219 C 524.273438 298.347656 523.3125 298.203125 522.355469 298.003906 C 521.402344 297.808594 520.457031 297.5625 519.527344 297.269531 C 518.59375 296.976562 517.679688 296.636719 516.777344 296.253906 C 515.878906 295.867188 515 295.4375 514.140625 294.960938 C 513.28125 294.484375 512.445312 293.96875 511.636719 293.40625 C 510.828125 292.847656 510.046875 292.246094 509.292969 291.605469 C 508.539062 290.96875 507.820312 290.292969 507.128906 289.578125 C 506.441406 288.863281 505.789062 288.117188 505.171875 287.339844 C 504.550781 286.558594 503.972656 285.75 503.429688 284.914062 C 502.890625 284.074219 502.390625 283.210938 501.929688 282.320312 C 501.472656 281.429688 501.054688 280.519531 500.683594 279.589844 C 500.3125 278.65625 499.984375 277.710938 499.699219 276.746094 C 499.417969 275.78125 499.179688 274.800781 498.992188 273.8125 C 498.800781 272.824219 498.660156 271.828125 498.5625 270.824219 C 498.46875 269.820312 498.417969 268.816406 498.417969 267.808594 C 498.417969 266.796875 498.46875 265.792969 498.5625 264.789062 C 498.660156 263.785156 498.800781 262.789062 498.992188 261.800781 C 499.179688 260.8125 499.417969 259.832031 499.699219 258.867188 C 499.984375 257.902344 500.3125 256.957031 500.683594 256.023438 C 501.054688 255.09375 501.472656 254.183594 501.929688 253.292969 C 502.390625 252.402344 502.890625 251.539062 503.429688 250.699219 C 503.972656 249.863281 504.550781 249.054688 505.171875 248.273438 C 505.789062 247.496094 506.441406 246.75 507.128906 246.035156 C 507.820312 245.320312 508.539062 244.644531 509.292969 244.007812 C 510.046875 243.367188 510.828125 242.765625 511.636719 242.207031 C 512.445312 241.644531 513.28125 241.128906 514.140625 240.652344 C 515 240.175781 515.878906 239.746094 516.777344 239.359375 C 517.679688 238.976562 518.59375 238.636719 519.527344 238.34375 C 520.457031 238.050781 521.402344 237.804688 522.355469 237.609375 C 523.3125 237.414062 524.273438 237.265625 525.242188 237.164062 C 526.214844 237.066406 527.183594 237.015625 528.160156 237.015625 C 529.132812 237.015625 530.105469 237.066406 531.074219 237.164062 C 532.042969 237.265625 533.003906 237.414062 533.960938 237.609375 C 534.914062 237.804688 535.859375 238.050781 536.792969 238.34375 C 537.722656 238.636719 538.640625 238.976562 539.539062 239.359375 C 540.4375 239.746094 541.320312 240.175781 542.179688 240.652344 C 543.035156 241.128906 543.871094 241.644531 544.679688 242.207031 C 545.492188 242.765625 546.273438 243.367188 547.023438 244.007812 C 547.777344 244.644531 548.5 245.320312 549.1875 246.035156 C 549.875 246.75 550.53125 247.496094 551.148438 248.273438 C 551.765625 249.054688 552.34375 249.863281 552.886719 250.699219 C 553.425781 251.539062 553.925781 252.402344 554.386719 253.292969 C 554.84375 254.183594 555.261719 255.09375 555.632812 256.023438 C 556.007812 256.957031 556.335938 257.902344 556.617188 258.867188 C 556.898438 259.832031 557.136719 260.8125 557.328125 261.800781 C 557.515625 262.789062 557.660156 263.785156 557.753906 264.789062 C 557.851562 265.792969 557.898438 266.796875 557.898438 267.808594 Z M 557.898438 267.808594 " fill-opacity="1" fill-rule="nonzero"/><path fill="#4e46e5" d="M 528.160156 302.132812 C 509.8125 302.132812 494.882812 286.734375 494.882812 267.808594 C 494.882812 248.878906 509.8125 233.480469 528.160156 233.480469 C 546.507812 233.480469 561.433594 248.878906 561.433594 267.808594 C 561.433594 286.734375 546.507812 302.132812 528.160156 302.132812 Z M 528.160156 240.554688 C 513.710938 240.554688 501.957031 252.777344 501.957031 267.808594 C 501.957031 282.835938 513.710938 295.058594 528.160156 295.058594 C 542.609375 295.058594 554.363281 282.835938 554.363281 267.808594 C 554.363281 252.777344 542.609375 240.554688 528.160156 240.554688 Z M 528.160156 240.554688 " fill-opacity="1" fill-rule="nonzero"/><path fill="#ffffff" d="M 718.875 496.4375 C 718.875 497.75 718.8125 499.0625 718.683594 500.371094 C 718.558594 501.675781 718.371094 502.976562 718.121094 504.261719 C 717.867188 505.550781 717.558594 506.824219 717.183594 508.082031 C 716.808594 509.339844 716.378906 510.574219 715.886719 511.789062 C 715.394531 513 714.84375 514.1875 714.238281 515.347656 C 713.632812 516.503906 712.972656 517.628906 712.257812 518.722656 C 711.542969 519.8125 710.777344 520.867188 709.964844 521.882812 C 709.148438 522.898438 708.285156 523.871094 707.375 524.800781 C 706.46875 525.730469 705.515625 526.609375 704.523438 527.445312 C 703.527344 528.277344 702.496094 529.058594 701.429688 529.789062 C 700.359375 530.519531 699.257812 531.191406 698.125 531.8125 C 696.988281 532.429688 695.828125 532.992188 694.640625 533.496094 C 693.453125 533.996094 692.246094 534.441406 691.015625 534.820312 C 689.785156 535.203125 688.539062 535.519531 687.277344 535.777344 C 686.015625 536.035156 684.746094 536.226562 683.46875 536.355469 C 682.1875 536.484375 680.90625 536.546875 679.621094 536.546875 C 678.335938 536.546875 677.050781 536.484375 675.773438 536.355469 C 674.492188 536.226562 673.222656 536.035156 671.960938 535.777344 C 670.699219 535.519531 669.453125 535.203125 668.226562 534.820312 C 666.996094 534.441406 665.785156 533.996094 664.597656 533.496094 C 663.410156 532.992188 662.25 532.429688 661.117188 531.8125 C 659.980469 531.191406 658.878906 530.519531 657.8125 529.789062 C 656.742188 529.058594 655.710938 528.277344 654.71875 527.445312 C 653.722656 526.609375 652.773438 525.730469 651.863281 524.800781 C 650.953125 523.871094 650.089844 522.898438 649.277344 521.882812 C 648.460938 520.867188 647.695312 519.8125 646.980469 518.722656 C 646.265625 517.628906 645.605469 516.503906 645 515.347656 C 644.394531 514.1875 643.84375 513 643.351562 511.789062 C 642.863281 510.574219 642.429688 509.339844 642.054688 508.082031 C 641.683594 506.824219 641.371094 505.550781 641.121094 504.261719 C 640.867188 502.976562 640.679688 501.675781 640.554688 500.371094 C 640.429688 499.0625 640.367188 497.75 640.367188 496.4375 C 640.367188 495.125 640.429688 493.8125 640.554688 492.507812 C 640.679688 491.199219 640.867188 489.902344 641.121094 488.613281 C 641.371094 487.324219 641.683594 486.050781 642.054688 484.792969 C 642.429688 483.539062 642.863281 482.300781 643.351562 481.089844 C 643.84375 479.875 644.394531 478.6875 645 477.53125 C 645.605469 476.371094 646.265625 475.246094 646.980469 474.152344 C 647.695312 473.0625 648.460938 472.007812 649.277344 470.992188 C 650.089844 469.976562 650.953125 469.003906 651.863281 468.074219 C 652.773438 467.148438 653.722656 466.265625 654.71875 465.433594 C 655.710938 464.597656 656.742188 463.816406 657.8125 463.085938 C 658.878906 462.359375 659.980469 461.683594 661.117188 461.0625 C 662.25 460.445312 663.410156 459.882812 664.597656 459.378906 C 665.785156 458.878906 666.996094 458.4375 668.226562 458.054688 C 669.453125 457.671875 670.699219 457.355469 671.960938 457.097656 C 673.222656 456.84375 674.492188 456.648438 675.773438 456.519531 C 677.050781 456.390625 678.335938 456.328125 679.621094 456.328125 C 680.90625 456.328125 682.1875 456.390625 683.46875 456.519531 C 684.746094 456.648438 686.015625 456.84375 687.277344 457.097656 C 688.539062 457.355469 689.785156 457.671875 691.015625 458.054688 C 692.246094 458.4375 693.453125 458.878906 694.640625 459.378906 C 695.828125 459.882812 696.988281 460.445312 698.125 461.0625 C 699.257812 461.683594 700.359375 462.359375 701.429688 463.085938 C 702.496094 463.816406 703.527344 464.597656 704.523438 465.433594 C 705.515625 466.265625 706.46875 467.148438 707.375 468.074219 C 708.285156 469.003906 709.148438 469.976562 709.964844 470.992188 C 710.777344 472.007812 711.542969 473.0625 712.257812 474.152344 C 712.972656 475.246094 713.632812 476.371094 714.238281 477.53125 C 714.84375 478.6875 715.394531 479.875 715.886719 481.089844 C 716.378906 482.300781 716.808594 483.539062 717.183594 484.792969 C 717.558594 486.050781 717.867188 487.324219 718.121094 488.613281 C 718.371094 489.902344 718.558594 491.199219 718.683594 492.507812 C 718.8125 493.8125 718.875 495.125 718.875 496.4375 Z M 718.875 496.4375 " fill-opacity="1" fill-rule="nonzero"/><path fill="#4e46e5" d="M 679.621094 540.082031 C 656.023438 540.082031 636.828125 520.503906 636.828125 496.4375 C 636.828125 472.371094 656.023438 452.792969 679.621094 452.792969 C 703.214844 452.792969 722.410156 472.371094 722.410156 496.4375 C 722.410156 520.503906 703.214844 540.082031 679.621094 540.082031 Z M 679.621094 459.863281 C 659.925781 459.863281 643.902344 476.269531 643.902344 496.4375 C 643.902344 516.605469 659.925781 533.011719 679.621094 533.011719 C 699.316406 533.011719 715.339844 516.605469 715.339844 496.4375 C 715.339844 476.269531 699.316406 459.863281 679.621094 459.863281 Z M 679.621094 459.863281 " fill-opacity="1" fill-rule="nonzero"/><path fill="#4e46e5" d="M 600.789062 708.164062 L 600.175781 608.414062 C 599.933594 582.101562 622.15625 560.1875 649.714844 559.566406 L 650.375 559.554688 C 650.496094 559.554688 650.617188 559.554688 650.734375 559.550781 L 706.878906 559.8125 C 707.089844 559.8125 707.304688 559.808594 707.511719 559.808594 C 724.664062 559.808594 757.488281 570.84375 758.335938 604.117188 L 758.769531 657.300781 L 758.769531 708.046875 Z M 600.789062 708.164062 " fill-opacity="1" fill-rule="nonzero"/><path fill="#4e46e5" d="M 600.789062 711.699219 C 598.84375 711.699219 597.265625 710.132812 597.253906 708.1875 L 596.640625 608.4375 C 596.382812 580.210938 620.15625 556.699219 649.632812 556.03125 L 650.316406 556.019531 C 650.324219 556.019531 650.335938 556.019531 650.347656 556.019531 L 650.515625 556.019531 C 650.558594 556.019531 650.601562 556.019531 650.640625 556.019531 C 650.675781 556.015625 650.714844 556.015625 650.75 556.015625 L 706.878906 556.277344 C 707.089844 556.277344 707.304688 556.273438 707.511719 556.273438 C 716.199219 556.273438 729.550781 558.972656 740.992188 566.539062 C 750.238281 572.65625 761.363281 584.125 761.871094 604.027344 C 761.871094 604.046875 761.871094 604.070312 761.871094 604.089844 L 762.304688 657.273438 C 762.304688 657.28125 762.304688 657.292969 762.304688 657.300781 L 762.304688 708.050781 C 762.304688 710 760.722656 711.585938 758.769531 711.585938 C 756.816406 711.585938 755.234375 710 755.234375 708.050781 L 755.234375 657.316406 L 754.800781 604.175781 C 754.449219 590.65625 748.488281 579.980469 737.089844 572.4375 C 726.957031 565.734375 715.167969 563.347656 707.511719 563.347656 C 707.308594 563.347656 707.101562 563.347656 706.898438 563.347656 C 706.886719 563.347656 706.875 563.347656 706.863281 563.347656 L 650.761719 563.089844 C 650.679688 563.089844 650.59375 563.089844 650.507812 563.089844 L 649.773438 563.101562 C 624.160156 563.679688 603.488281 583.992188 603.710938 608.382812 L 604.324219 708.140625 C 604.335938 710.09375 602.761719 711.6875 600.808594 711.699219 C 600.800781 711.699219 600.796875 711.699219 600.789062 711.699219 Z M 600.789062 711.699219 " fill-opacity="1" fill-rule="nonzero"/><path fill="#4e46e5" d="M 636.53125 714.640625 C 634.578125 714.640625 632.996094 713.058594 632.996094 711.105469 L 633.066406 611.421875 C 633.066406 609.472656 634.648438 607.890625 636.601562 607.890625 C 636.601562 607.890625 636.601562 607.890625 636.605469 607.890625 C 638.554688 607.890625 640.136719 609.476562 640.136719 611.429688 L 640.066406 711.109375 C 640.066406 713.0625 638.484375 714.640625 636.53125 714.640625 Z M 636.53125 714.640625 " fill-opacity="1" fill-rule="nonzero"/><path fill="#4e46e5" d="M 725.933594 667.101562 C 723.980469 667.101562 722.394531 665.519531 722.394531 663.566406 L 722.394531 617.722656 C 722.394531 615.769531 723.980469 614.1875 725.933594 614.1875 C 727.882812 614.1875 729.46875 615.769531 729.46875 617.722656 L 729.46875 663.566406 C 729.46875 665.519531 727.882812 667.101562 725.933594 667.101562 Z M 725.933594 667.101562 " fill-opacity="1" fill-rule="nonzero"/><path fill="#ffffff" d="M 827.40625 483.320312 C 827.40625 484.703125 827.339844 486.078125 827.207031 487.453125 C 827.078125 488.824219 826.878906 490.1875 826.613281 491.542969 C 826.351562 492.894531 826.023438 494.230469 825.632812 495.554688 C 825.238281 496.875 824.785156 498.171875 824.269531 499.445312 C 823.75 500.722656 823.175781 501.96875 822.539062 503.183594 C 821.902344 504.402344 821.207031 505.582031 820.457031 506.730469 C 819.707031 507.878906 818.902344 508.984375 818.046875 510.050781 C 817.191406 511.117188 816.285156 512.140625 815.328125 513.117188 C 814.375 514.089844 813.375 515.015625 812.332031 515.890625 C 811.289062 516.769531 810.203125 517.589844 809.082031 518.355469 C 807.957031 519.121094 806.800781 519.832031 805.609375 520.480469 C 804.417969 521.132812 803.199219 521.722656 801.953125 522.25 C 800.703125 522.777344 799.433594 523.242188 798.140625 523.640625 C 796.847656 524.042969 795.539062 524.378906 794.214844 524.648438 C 792.890625 524.917969 791.558594 525.117188 790.214844 525.253906 C 788.871094 525.390625 787.523438 525.457031 786.171875 525.457031 C 784.820312 525.457031 783.472656 525.390625 782.128906 525.253906 C 780.785156 525.117188 779.453125 524.917969 778.125 524.648438 C 776.800781 524.378906 775.492188 524.042969 774.203125 523.640625 C 772.910156 523.242188 771.640625 522.777344 770.390625 522.25 C 769.144531 521.722656 767.925781 521.132812 766.734375 520.480469 C 765.542969 519.832031 764.386719 519.121094 763.261719 518.355469 C 762.140625 517.589844 761.054688 516.769531 760.011719 515.890625 C 758.96875 515.015625 757.96875 514.089844 757.011719 513.117188 C 756.058594 512.140625 755.152344 511.117188 754.296875 510.050781 C 753.4375 508.984375 752.636719 507.878906 751.886719 506.730469 C 751.136719 505.582031 750.441406 504.402344 749.804688 503.183594 C 749.167969 501.96875 748.589844 500.722656 748.074219 499.445312 C 747.558594 498.171875 747.105469 496.875 746.710938 495.554688 C 746.320312 494.230469 745.992188 492.894531 745.726562 491.542969 C 745.464844 490.1875 745.265625 488.824219 745.132812 487.453125 C 745.003906 486.078125 744.9375 484.703125 744.9375 483.320312 C 744.9375 481.941406 745.003906 480.566406 745.132812 479.191406 C 745.265625 477.820312 745.464844 476.453125 745.726562 475.101562 C 745.992188 473.75 746.320312 472.410156 746.710938 471.089844 C 747.105469 469.769531 747.558594 468.472656 748.074219 467.199219 C 748.589844 465.921875 749.167969 464.675781 749.804688 463.460938 C 750.441406 462.242188 751.136719 461.058594 751.886719 459.914062 C 752.636719 458.765625 753.4375 457.660156 754.296875 456.589844 C 755.152344 455.523438 756.058594 454.503906 757.011719 453.527344 C 757.96875 452.550781 758.96875 451.625 760.011719 450.75 C 761.054688 449.875 762.140625 449.054688 763.261719 448.289062 C 764.386719 447.519531 765.542969 446.8125 766.734375 446.160156 C 767.925781 445.511719 769.144531 444.921875 770.390625 444.394531 C 771.640625 443.867188 772.910156 443.402344 774.203125 443 C 775.492188 442.601562 776.800781 442.265625 778.125 441.996094 C 779.453125 441.726562 780.785156 441.523438 782.128906 441.390625 C 783.472656 441.253906 784.820312 441.1875 786.171875 441.1875 C 787.523438 441.1875 788.871094 441.253906 790.214844 441.390625 C 791.558594 441.523438 792.890625 441.726562 794.214844 441.996094 C 795.539062 442.265625 796.847656 442.601562 798.140625 443 C 799.433594 443.402344 800.703125 443.867188 801.953125 444.394531 C 803.199219 444.921875 804.417969 445.511719 805.609375 446.160156 C 806.800781 446.8125 807.957031 447.519531 809.082031 448.289062 C 810.203125 449.054688 811.289062 449.875 812.332031 450.75 C 813.375 451.625 814.375 452.550781 815.328125 453.527344 C 816.285156 454.503906 817.191406 455.523438 818.046875 456.589844 C 818.902344 457.660156 819.707031 458.765625 820.457031 459.914062 C 821.207031 461.058594 821.902344 462.242188 822.539062 463.460938 C 823.175781 464.675781 823.75 465.921875 824.269531 467.195312 C 824.785156 468.472656 825.238281 469.769531 825.632812 471.089844 C 826.023438 472.410156 826.351562 473.75 826.613281 475.101562 C 826.878906 476.453125 827.078125 477.820312 827.207031 479.191406 C 827.339844 480.566406 827.40625 481.941406 827.40625 483.320312 Z M 827.40625 483.320312 " fill-opacity="1" fill-rule="nonzero"/><path fill="#4e46e5" d="M 786.171875 528.992188 C 761.484375 528.992188 741.398438 508.503906 741.398438 483.320312 C 741.398438 458.140625 761.484375 437.652344 786.171875 437.652344 C 810.859375 437.652344 830.941406 458.140625 830.941406 483.320312 C 830.941406 508.503906 810.859375 528.992188 786.171875 528.992188 Z M 786.171875 444.722656 C 765.382812 444.722656 748.472656 462.039062 748.472656 483.320312 C 748.472656 504.605469 765.382812 521.921875 786.171875 521.921875 C 806.960938 521.921875 823.871094 504.605469 823.871094 483.320312 C 823.871094 462.039062 806.960938 444.722656 786.171875 444.722656 Z M 786.171875 444.722656 " fill-opacity="1" fill-rule="nonzero"/><path fill="#ffffff" d="M 869.316406 714.050781 L 868.863281 594.105469 C 867.972656 559.15625 833.492188 547.5625 815.472656 547.5625 C 815.253906 547.5625 815.03125 547.5625 814.808594 547.566406 L 755.828125 547.292969 C 755.707031 547.292969 755.578125 547.292969 755.453125 547.292969 L 754.757812 547.304688 C 725.808594 547.960938 702.464844 570.980469 702.714844 598.621094 L 703.359375 714.050781 Z M 869.316406 714.050781 " fill-opacity="1" fill-rule="nonzero"/><path fill="#4e46e5" d="M 703.359375 717.585938 C 701.417969 717.585938 699.835938 716.015625 699.824219 714.070312 L 699.179688 598.640625 C 698.910156 569.089844 723.804688 544.46875 754.675781 543.769531 L 755.601562 543.757812 C 755.648438 543.757812 755.691406 543.757812 755.730469 543.757812 C 755.769531 543.757812 755.808594 543.757812 755.84375 543.757812 L 814.808594 544.027344 C 815.03125 544.027344 815.253906 544.027344 815.472656 544.027344 C 824.570312 544.027344 838.558594 546.851562 850.542969 554.777344 C 860.21875 561.183594 871.867188 573.1875 872.398438 594.015625 C 872.398438 594.042969 872.398438 594.066406 872.398438 594.09375 L 872.851562 714.035156 C 872.859375 715.988281 871.28125 717.578125 869.328125 717.585938 C 869.324219 717.585938 869.320312 717.585938 869.316406 717.585938 C 867.371094 717.585938 865.789062 716.011719 865.78125 714.0625 L 865.328125 594.160156 C 864.953125 579.898438 858.664062 568.632812 846.640625 560.675781 C 835.964844 553.613281 823.539062 551.097656 815.472656 551.097656 C 815.257812 551.097656 815.039062 551.097656 814.824219 551.101562 C 814.8125 551.101562 814.800781 551.101562 814.792969 551.101562 L 755.859375 550.828125 C 755.773438 550.828125 755.683594 550.828125 755.597656 550.828125 L 754.816406 550.839844 C 727.8125 551.453125 706.015625 572.871094 706.25 598.589844 L 706.894531 714.03125 C 706.90625 715.984375 705.332031 717.574219 703.378906 717.585938 C 703.375 717.585938 703.367188 717.585938 703.359375 717.585938 Z M 703.359375 717.585938 " fill-opacity="1" fill-rule="nonzero"/><path fill="#4e46e5" d="M 740.90625 714.640625 C 740.90625 714.640625 740.902344 714.640625 740.902344 714.640625 C 738.949219 714.640625 737.367188 713.058594 737.371094 711.105469 L 737.445312 601.78125 C 737.449219 599.828125 739.03125 598.246094 740.980469 598.246094 C 740.984375 598.246094 740.984375 598.246094 740.984375 598.246094 C 742.9375 598.25 744.519531 599.832031 744.515625 601.785156 L 744.441406 711.109375 C 744.441406 713.0625 742.855469 714.640625 740.90625 714.640625 Z M 740.90625 714.640625 " fill-opacity="1" fill-rule="nonzero"/><path fill="#4e46e5" d="M 834.820312 714.640625 C 832.867188 714.640625 831.285156 713.058594 831.285156 711.105469 L 831.285156 601.78125 C 831.285156 599.832031 832.867188 598.246094 834.820312 598.246094 C 836.773438 598.246094 838.355469 599.832031 838.355469 601.78125 L 838.355469 711.105469 C 838.355469 713.058594 836.773438 714.640625 834.820312 714.640625 Z M 834.820312 714.640625 " fill-opacity="1" fill-rule="nonzero"/><path fill="#dee2fc" d="M 848.28125 583.15625 L 925.125 660 C 932.203125 667.078125 943.675781 667.078125 950.75 660 C 957.824219 652.925781 957.824219 641.453125 950.75 634.378906 L 873.601562 557.230469 Z M 848.28125 583.15625 " fill-opacity="1" fill-rule="nonzero"/><path fill="#4e46e5" d="M 937.9375 668.84375 C 932.152344 668.84375 926.714844 666.589844 922.625 662.5 L 845.78125 585.65625 C 844.402344 584.277344 844.402344 582.039062 845.78125 580.65625 C 847.164062 579.277344 849.402344 579.277344 850.78125 580.65625 L 927.625 657.5 C 933.3125 663.1875 942.5625 663.1875 948.25 657.5 C 953.9375 651.816406 953.9375 642.5625 948.25 636.878906 L 871.101562 559.730469 C 869.722656 558.347656 869.722656 556.109375 871.101562 554.730469 C 872.484375 553.347656 874.722656 553.347656 876.101562 554.730469 L 953.25 631.878906 C 961.691406 640.320312 961.691406 654.058594 953.25 662.5 C 949.160156 666.589844 943.722656 668.84375 937.9375 668.84375 Z M 937.9375 668.84375 " fill-opacity="1" fill-rule="nonzero"/><path fill="#ffffff" d="M 840.039062 461.132812 C 841.3125 461.25 842.582031 461.402344 843.847656 461.585938 C 845.117188 461.769531 846.378906 461.980469 847.632812 462.226562 C 848.890625 462.472656 850.136719 462.75 851.382812 463.058594 C 852.625 463.367188 853.859375 463.707031 855.082031 464.078125 C 856.308594 464.449219 857.527344 464.851562 858.734375 465.28125 C 859.9375 465.714844 861.132812 466.175781 862.320312 466.667969 C 863.503906 467.160156 864.675781 467.679688 865.832031 468.230469 C 866.992188 468.78125 868.136719 469.359375 869.265625 469.96875 C 870.398438 470.574219 871.511719 471.210938 872.613281 471.875 C 873.710938 472.539062 874.796875 473.230469 875.863281 473.949219 C 876.929688 474.664062 877.976562 475.410156 879.007812 476.179688 C 880.039062 476.953125 881.050781 477.75 882.042969 478.570312 C 883.03125 479.390625 884.003906 480.238281 884.957031 481.109375 C 885.90625 481.980469 886.835938 482.875 887.746094 483.789062 C 888.652344 484.707031 889.539062 485.648438 890.398438 486.609375 C 891.261719 487.570312 892.101562 488.554688 892.917969 489.558594 C 893.730469 490.5625 894.523438 491.585938 895.289062 492.628906 C 896.054688 493.675781 896.792969 494.738281 897.507812 495.816406 C 898.222656 496.898438 898.910156 497.996094 899.570312 499.113281 C 900.230469 500.230469 900.867188 501.363281 901.472656 502.507812 C 902.082031 503.65625 902.660156 504.820312 903.210938 505.996094 C 903.761719 507.171875 904.28125 508.363281 904.777344 509.566406 C 905.269531 510.769531 905.734375 511.984375 906.167969 513.214844 C 906.605469 514.441406 907.007812 515.675781 907.382812 516.925781 C 907.761719 518.171875 908.105469 519.429688 908.417969 520.695312 C 908.734375 521.957031 909.019531 523.230469 909.273438 524.511719 C 909.527344 525.789062 909.75 527.074219 909.941406 528.367188 C 910.132812 529.65625 910.292969 530.953125 910.421875 532.25 C 910.550781 533.550781 910.648438 534.851562 910.714844 536.15625 C 910.78125 537.460938 910.820312 538.765625 910.824219 540.074219 C 910.828125 541.378906 910.800781 542.683594 910.738281 543.992188 C 910.679688 545.296875 910.589844 546.597656 910.46875 547.898438 C 910.347656 549.199219 910.195312 550.496094 910.011719 551.792969 C 909.828125 553.085938 909.613281 554.375 909.367188 555.65625 C 909.121094 556.941406 908.84375 558.214844 908.539062 559.484375 C 908.230469 560.753906 907.894531 562.015625 907.523438 563.269531 C 907.15625 564.519531 906.757812 565.765625 906.332031 566.996094 C 905.90625 568.230469 905.449219 569.453125 904.960938 570.664062 C 904.476562 571.875 903.960938 573.070312 903.417969 574.253906 C 902.875 575.441406 902.300781 576.609375 901.703125 577.765625 C 901.101562 578.925781 900.476562 580.066406 899.820312 581.191406 C 899.164062 582.316406 898.484375 583.421875 897.777344 584.515625 C 897.070312 585.605469 896.335938 586.679688 895.574219 587.734375 C 894.816406 588.789062 894.03125 589.824219 893.222656 590.839844 C 892.414062 591.855469 891.582031 592.847656 890.726562 593.824219 C 889.867188 594.796875 888.988281 595.75 888.085938 596.679688 C 887.183594 597.609375 886.261719 598.515625 885.316406 599.402344 C 884.367188 600.285156 883.402344 601.144531 882.414062 601.980469 C 881.429688 602.816406 880.421875 603.628906 879.398438 604.414062 C 878.371094 605.199219 877.328125 605.957031 876.265625 606.691406 C 875.203125 607.425781 874.125 608.132812 873.027344 608.8125 C 871.933594 609.488281 870.820312 610.140625 869.695312 610.765625 C 868.566406 611.390625 867.425781 611.984375 866.269531 612.550781 C 865.113281 613.117188 863.945312 613.65625 862.765625 614.164062 C 861.585938 614.671875 860.390625 615.152344 859.1875 615.597656 C 857.984375 616.046875 856.769531 616.464844 855.546875 616.855469 C 854.324219 617.242188 853.089844 617.597656 851.851562 617.925781 C 850.609375 618.25 849.363281 618.546875 848.109375 618.8125 C 846.855469 619.074219 845.59375 619.304688 844.328125 619.507812 C 843.0625 619.707031 841.792969 619.875 840.519531 620.015625 C 839.246094 620.152344 837.96875 620.257812 836.691406 620.328125 C 835.414062 620.402344 834.136719 620.445312 832.855469 620.453125 C 831.574219 620.460938 830.296875 620.4375 829.015625 620.382812 C 827.738281 620.328125 826.460938 620.242188 825.1875 620.121094 C 823.914062 620.003906 822.644531 619.851562 821.375 619.671875 C 820.109375 619.488281 818.847656 619.273438 817.59375 619.027344 C 816.335938 618.78125 815.085938 618.503906 813.84375 618.195312 C 812.601562 617.886719 811.367188 617.546875 810.140625 617.175781 C 808.914062 616.804688 807.699219 616.40625 806.492188 615.972656 C 805.285156 615.542969 804.089844 615.082031 802.90625 614.589844 C 801.722656 614.097656 800.550781 613.578125 799.390625 613.027344 C 798.234375 612.476562 797.089844 611.894531 795.957031 611.289062 C 794.828125 610.679688 793.710938 610.046875 792.613281 609.382812 C 791.511719 608.71875 790.429688 608.027344 789.363281 607.308594 C 788.296875 606.589844 787.246094 605.84375 786.21875 605.074219 C 785.1875 604.304688 784.175781 603.507812 783.183594 602.683594 C 782.191406 601.863281 781.21875 601.015625 780.269531 600.148438 C 779.320312 599.277344 778.390625 598.382812 777.480469 597.464844 C 776.574219 596.546875 775.6875 595.609375 774.824219 594.644531 C 773.964844 593.683594 773.125 592.703125 772.308594 591.695312 C 771.492188 590.691406 770.703125 589.667969 769.9375 588.625 C 769.171875 587.582031 768.433594 586.519531 767.71875 585.4375 C 767.003906 584.355469 766.316406 583.257812 765.65625 582.140625 C 764.992188 581.027344 764.359375 579.894531 763.75 578.746094 C 763.144531 577.597656 762.566406 576.4375 762.015625 575.257812 C 761.464844 574.082031 760.941406 572.890625 760.449219 571.6875 C 759.957031 570.484375 759.492188 569.269531 759.054688 568.042969 C 758.621094 566.816406 758.214844 565.578125 757.839844 564.332031 C 757.464844 563.082031 757.121094 561.828125 756.804688 560.5625 C 756.492188 559.296875 756.207031 558.023438 755.953125 556.746094 C 755.699219 555.464844 755.476562 554.179688 755.285156 552.890625 C 755.09375 551.597656 754.933594 550.304688 754.804688 549.003906 C 754.671875 547.703125 754.574219 546.402344 754.507812 545.097656 C 754.441406 543.792969 754.40625 542.488281 754.402344 541.183594 C 754.398438 539.875 754.425781 538.570312 754.484375 537.265625 C 754.542969 535.960938 754.632812 534.65625 754.753906 533.355469 C 754.878906 532.054688 755.03125 530.757812 755.214844 529.464844 C 755.398438 528.171875 755.613281 526.882812 755.859375 525.597656 C 756.105469 524.316406 756.378906 523.039062 756.6875 521.769531 C 756.996094 520.5 757.332031 519.238281 757.699219 517.988281 C 758.066406 516.734375 758.464844 515.492188 758.894531 514.257812 C 759.320312 513.023438 759.777344 511.804688 760.261719 510.59375 C 760.75 509.382812 761.265625 508.183594 761.808594 507 C 762.351562 505.816406 762.921875 504.644531 763.523438 503.488281 C 764.125 502.332031 764.75 501.191406 765.40625 500.066406 C 766.058594 498.941406 766.742188 497.832031 767.449219 496.742188 C 768.15625 495.648438 768.890625 494.578125 769.648438 493.523438 C 770.410156 492.46875 771.191406 491.433594 772 490.417969 C 772.8125 489.402344 773.644531 488.40625 774.5 487.433594 C 775.355469 486.457031 776.238281 485.503906 777.136719 484.574219 C 778.039062 483.644531 778.964844 482.738281 779.910156 481.855469 C 780.855469 480.96875 781.824219 480.109375 782.808594 479.273438 C 783.796875 478.4375 784.804688 477.628906 785.828125 476.84375 C 786.855469 476.058594 787.898438 475.296875 788.960938 474.5625 C 790.023438 473.832031 791.101562 473.125 792.195312 472.445312 C 793.292969 471.765625 794.402344 471.113281 795.53125 470.488281 C 796.65625 469.867188 797.800781 469.269531 798.953125 468.703125 C 800.109375 468.136719 801.277344 467.601562 802.460938 467.089844 C 803.640625 466.582031 804.832031 466.105469 806.035156 465.65625 C 807.242188 465.207031 808.453125 464.789062 809.679688 464.402344 C 810.902344 464.011719 812.132812 463.65625 813.375 463.328125 C 814.613281 463.003906 815.863281 462.707031 817.117188 462.445312 C 818.371094 462.179688 819.632812 461.949219 820.898438 461.75 C 822.164062 461.546875 823.433594 461.378906 824.707031 461.242188 C 825.980469 461.105469 827.253906 461 828.53125 460.925781 C 829.8125 460.851562 831.089844 460.8125 832.371094 460.804688 C 833.652344 460.792969 834.929688 460.816406 836.207031 460.871094 C 837.488281 460.925781 838.761719 461.015625 840.039062 461.132812 Z M 840.039062 461.132812 " fill-opacity="1" fill-rule="nonzero"/><path fill="#4e46e5" d="M 832.464844 624.050781 C 829.941406 624.050781 827.40625 623.933594 824.867188 623.695312 C 803.113281 621.664062 783.476562 611.109375 769.570312 593.976562 C 755.683594 576.863281 749.171875 555.238281 751.242188 533.078125 C 753.3125 510.917969 763.714844 490.867188 780.535156 476.625 C 797.375 462.367188 818.625 455.632812 840.375 457.664062 C 862.128906 459.695312 881.765625 470.25 895.671875 487.382812 C 909.558594 504.496094 916.070312 526.121094 914 548.28125 C 911.929688 570.441406 901.527344 590.492188 884.707031 604.734375 C 869.835938 617.324219 851.523438 624.050781 832.464844 624.050781 Z M 832.867188 464.386719 C 794.730469 464.386719 761.980469 494.191406 758.285156 533.734375 C 756.386719 554.042969 762.34375 573.855469 775.0625 589.519531 C 787.761719 605.164062 805.679688 614.800781 825.523438 616.65625 C 845.367188 618.507812 864.761719 612.359375 880.136719 599.335938 C 895.535156 586.296875 905.058594 567.933594 906.957031 547.625 C 908.855469 527.316406 902.898438 507.507812 890.179688 491.839844 C 877.480469 476.195312 859.5625 466.558594 839.71875 464.707031 C 837.421875 464.492188 835.132812 464.386719 832.867188 464.386719 Z M 832.867188 464.386719 " fill-opacity="1" fill-rule="nonzero"/><path fill="#4e46e5" d="M 786.328125 528.992188 C 775.242188 528.992188 764.601562 524.828125 756.371094 517.265625 C 754.933594 515.945312 754.839844 513.707031 756.160156 512.269531 C 757.484375 510.832031 759.71875 510.738281 761.15625 512.058594 C 768.078125 518.417969 777.019531 521.921875 786.328125 521.921875 C 807.117188 521.921875 824.027344 504.605469 824.027344 483.320312 C 824.027344 476.199219 822.117188 469.238281 818.503906 463.195312 C 817.503906 461.519531 818.050781 459.351562 819.726562 458.347656 C 821.402344 457.34375 823.574219 457.890625 824.574219 459.566406 C 828.84375 466.707031 831.097656 474.917969 831.097656 483.320312 C 831.101562 508.503906 811.015625 528.992188 786.328125 528.992188 Z M 786.328125 528.992188 " fill-opacity="1" fill-rule="nonzero"/><path fill="#4e46e5" d="M 869.082031 614.804688 C 867.136719 614.804688 865.554688 613.230469 865.546875 611.28125 L 865.484375 594.160156 C 865.109375 579.898438 858.824219 568.632812 846.796875 560.675781 C 836.121094 553.613281 823.699219 551.097656 815.628906 551.097656 C 815.414062 551.097656 815.199219 551.097656 814.980469 551.101562 C 814.96875 551.101562 814.957031 551.101562 814.949219 551.101562 L 756.015625 550.828125 C 755.929688 550.828125 755.839844 550.828125 755.753906 550.828125 L 754.972656 550.839844 C 754.835938 550.84375 754.675781 550.847656 754.519531 550.851562 C 754.480469 550.855469 754.441406 550.855469 754.40625 550.855469 C 752.503906 550.855469 750.933594 549.34375 750.871094 547.429688 C 750.8125 545.480469 752.34375 543.847656 754.292969 543.785156 C 754.472656 543.78125 754.652344 543.773438 754.832031 543.769531 L 755.757812 543.757812 C 755.804688 543.757812 755.847656 543.757812 755.886719 543.757812 C 755.925781 543.757812 755.964844 543.757812 756 543.757812 L 814.964844 544.027344 C 815.1875 544.027344 815.410156 544.027344 815.628906 544.027344 C 824.726562 544.027344 838.714844 546.851562 850.699219 554.78125 C 860.375 561.183594 872.023438 573.1875 872.554688 594.015625 C 872.554688 594.042969 872.554688 594.066406 872.554688 594.09375 L 872.621094 611.253906 C 872.628906 613.207031 871.050781 614.796875 869.097656 614.804688 C 869.09375 614.804688 869.089844 614.804688 869.082031 614.804688 Z M 869.082031 614.804688 " fill-opacity="1" fill-rule="nonzero"/><path fill="#ffffff" d="M 996.238281 398.339844 L 752.539062 398.339844 C 747.09375 398.339844 742.675781 393.921875 742.675781 388.476562 L 742.675781 120.8125 C 742.675781 115.363281 747.09375 110.949219 752.539062 110.949219 L 1003.703125 110.949219 Z M 996.238281 398.339844 " fill-opacity="1" fill-rule="nonzero"/><path fill="#4e46e5" d="M 996.238281 401.875 L 752.539062 401.875 C 745.152344 401.875 739.140625 395.863281 739.140625 388.476562 L 739.140625 120.8125 C 739.140625 113.425781 745.152344 107.414062 752.539062 107.414062 L 1003.703125 107.414062 C 1005.65625 107.414062 1007.238281 108.996094 1007.238281 110.949219 C 1007.238281 112.902344 1005.65625 114.484375 1003.703125 114.484375 L 752.539062 114.484375 C 749.050781 114.484375 746.210938 117.324219 746.210938 120.8125 L 746.210938 388.476562 C 746.210938 391.964844 749.050781 394.804688 752.539062 394.804688 L 996.238281 394.804688 C 998.1875 394.804688 999.773438 396.386719 999.773438 398.339844 C 999.773438 400.292969 998.1875 401.875 996.238281 401.875 Z M 996.238281 401.875 " fill-opacity="1" fill-rule="nonzero"/><path fill="#dee2fc" d="M 1002.6875 149.945312 L 1003.703125 110.949219 L 752.539062 110.949219 C 747.09375 110.949219 742.675781 115.363281 742.675781 120.8125 L 742.675781 149.945312 Z M 1002.6875 149.945312 " fill-opacity="1" fill-rule="nonzero"/><path fill="#4e46e5" d="M 1002.6875 153.484375 L 742.675781 153.484375 C 740.722656 153.484375 739.140625 151.898438 739.140625 149.945312 L 739.140625 120.8125 C 739.140625 113.425781 745.152344 107.414062 752.539062 107.414062 L 1003.703125 107.414062 C 1004.65625 107.414062 1005.570312 107.796875 1006.234375 108.480469 C 1006.898438 109.164062 1007.261719 110.085938 1007.238281 111.039062 L 1006.222656 150.039062 C 1006.171875 151.957031 1004.605469 153.484375 1002.6875 153.484375 Z M 746.210938 146.410156 L 999.242188 146.410156 L 1000.074219 114.484375 L 752.539062 114.484375 C 749.050781 114.484375 746.210938 117.324219 746.210938 120.8125 Z M 746.210938 146.410156 " fill-opacity="1" fill-rule="nonzero"/><path fill="#4e46e5" d="M 1058.703125 144.714844 C 1058.703125 178.589844 1031.242188 206.050781 997.367188 206.050781 C 963.492188 206.050781 936.027344 178.589844 936.027344 144.714844 C 936.027344 110.839844 963.492188 83.378906 997.367188 83.378906 C 1031.242188 83.378906 1058.703125 110.839844 1058.703125 144.714844 Z M 1058.703125 144.714844 " fill-opacity="1" fill-rule="nonzero"/><path fill="#4e46e5" d="M 997.367188 209.585938 C 980.039062 209.585938 963.75 202.839844 951.496094 190.585938 C 939.242188 178.332031 932.492188 162.042969 932.492188 144.714844 C 932.492188 127.386719 939.242188 111.097656 951.496094 98.84375 C 963.75 86.589844 980.039062 79.84375 997.367188 79.84375 C 1014.695312 79.84375 1030.988281 86.589844 1043.238281 98.84375 C 1055.492188 111.097656 1062.238281 127.386719 1062.238281 144.714844 C 1062.238281 162.042969 1055.492188 178.332031 1043.238281 190.585938 C 1030.988281 202.839844 1014.695312 209.585938 997.367188 209.585938 Z M 997.367188 86.914062 C 965.496094 86.914062 939.566406 112.84375 939.566406 144.714844 C 939.566406 176.585938 965.496094 202.515625 997.367188 202.515625 C 1029.238281 202.515625 1055.167969 176.585938 1055.167969 144.714844 C 1055.167969 112.84375 1029.238281 86.914062 997.367188 86.914062 Z M 997.367188 86.914062 " fill-opacity="1" fill-rule="nonzero"/><path fill="#ffffff" d="M 1056.054688 373.242188 L 1056.054688 359.796875 C 1073.621094 348.632812 1084.261719 329.261719 1084.261719 308.445312 L 1084.261719 260.933594 C 1084.261719 254.09375 1078.714844 248.546875 1071.871094 248.546875 C 1065.03125 248.546875 1059.480469 254.09375 1059.480469 260.933594 L 1059.480469 295.996094 L 1059.480469 256.191406 C 1059.480469 249.347656 1053.933594 243.800781 1047.089844 243.800781 C 1040.25 243.800781 1034.699219 249.347656 1034.699219 256.191406 L 1034.699219 295.207031 L 1034.699219 250.917969 C 1034.699219 244.074219 1029.152344 238.527344 1022.308594 238.527344 C 1015.46875 238.527344 1009.917969 244.074219 1009.917969 250.917969 L 1009.921875 296 L 1009.921875 207.945312 C 1009.921875 201.101562 1004.371094 195.554688 997.527344 195.554688 C 990.683594 195.554688 985.136719 201.101562 985.136719 207.945312 L 985.136719 293.890625 L 966.152344 262.820312 C 962.691406 257.15625 955.433594 255.128906 949.535156 258.183594 C 944.3125 260.890625 941.996094 267.125 944.191406 272.585938 L 970.78125 338.726562 C 974.359375 347.636719 981.1875 354.851562 989.882812 358.917969 L 989.882812 373.15625 Z M 1056.054688 373.242188 " fill-opacity="1" fill-rule="nonzero"/><g clip-path="url(#fc2178494d)"><path fill="#4e46e5" d="M 1056.054688 376.777344 C 1054.101562 376.777344 1052.519531 375.195312 1052.519531 373.242188 L 1052.519531 359.796875 C 1052.519531 358.585938 1053.136719 357.460938 1054.160156 356.8125 C 1070.796875 346.238281 1080.726562 328.160156 1080.726562 308.445312 L 1080.726562 260.933594 C 1080.726562 256.050781 1076.753906 252.082031 1071.871094 252.082031 C 1066.988281 252.082031 1063.015625 256.050781 1063.015625 260.933594 L 1063.015625 295.996094 C 1063.015625 297.949219 1061.433594 299.535156 1059.480469 299.535156 C 1057.527344 299.535156 1055.945312 297.949219 1055.945312 295.996094 L 1055.945312 256.191406 C 1055.945312 251.308594 1051.972656 247.335938 1047.089844 247.335938 C 1042.230469 247.335938 1038.273438 251.269531 1038.238281 256.121094 L 1038.238281 295.207031 C 1038.238281 297.160156 1036.652344 298.742188 1034.699219 298.742188 C 1032.75 298.742188 1031.164062 297.160156 1031.164062 295.207031 L 1031.164062 256.191406 C 1031.164062 256.160156 1031.164062 256.128906 1031.164062 256.101562 L 1031.164062 250.917969 C 1031.164062 246.035156 1027.191406 242.0625 1022.308594 242.0625 C 1017.46875 242.0625 1013.519531 245.972656 1013.457031 250.800781 L 1013.457031 296 C 1013.457031 297.953125 1011.875 299.535156 1009.921875 299.535156 C 1007.96875 299.535156 1006.386719 297.953125 1006.386719 296 L 1006.382812 250.917969 C 1006.382812 250.867188 1006.382812 250.8125 1006.386719 250.761719 L 1006.386719 207.945312 C 1006.386719 203.0625 1002.410156 199.089844 997.527344 199.089844 C 992.644531 199.089844 988.671875 203.0625 988.671875 207.945312 L 988.671875 293.890625 C 988.671875 295.472656 987.621094 296.863281 986.09375 297.292969 C 984.570312 297.722656 982.945312 297.085938 982.121094 295.734375 L 963.136719 264.664062 C 960.652344 260.601562 955.394531 259.132812 951.160156 261.324219 C 947.535156 263.203125 945.949219 267.476562 947.472656 271.265625 L 974.058594 337.410156 C 977.316406 345.515625 983.46875 352.015625 991.382812 355.714844 C 992.625 356.296875 993.417969 357.542969 993.417969 358.917969 L 993.417969 373.15625 C 993.417969 375.109375 991.835938 376.691406 989.882812 376.691406 C 987.929688 376.691406 986.347656 375.109375 986.347656 373.15625 L 986.347656 361.097656 C 977.789062 356.515625 971.144531 349.113281 967.5 340.046875 L 940.914062 273.90625 C 938.023438 266.71875 941.03125 258.609375 947.910156 255.042969 C 955.421875 251.15625 964.761719 253.761719 969.167969 260.980469 L 981.601562 281.324219 L 981.601562 207.945312 C 981.601562 199.164062 988.746094 192.019531 997.527344 192.019531 C 1006.3125 192.019531 1013.457031 199.164062 1013.457031 207.945312 L 1013.457031 237.6875 C 1015.988281 235.984375 1019.035156 234.992188 1022.308594 234.992188 C 1028.660156 234.992188 1034.15625 238.730469 1036.710938 244.121094 C 1039.5 241.71875 1043.128906 240.265625 1047.089844 240.265625 C 1053.296875 240.265625 1058.683594 243.832031 1061.3125 249.023438 C 1064.125 246.527344 1067.824219 245.007812 1071.871094 245.007812 C 1080.652344 245.007812 1087.796875 252.152344 1087.796875 260.933594 L 1087.796875 308.445312 C 1087.796875 319.253906 1085.046875 329.972656 1079.84375 339.441406 C 1074.957031 348.339844 1067.980469 356 1059.589844 361.703125 L 1059.589844 373.242188 C 1059.589844 375.195312 1058.007812 376.777344 1056.054688 376.777344 Z M 1056.054688 376.777344 " fill-opacity="1" fill-rule="nonzero"/></g><path fill="#dee2fc" d="M 974.75 425.492188 L 974.75 380.503906 C 974.75 376.496094 978 373.242188 982.011719 373.242188 L 1062.609375 373.242188 C 1066.621094 373.242188 1069.871094 376.496094 1069.871094 380.503906 L 1069.871094 425.492188 Z M 974.75 425.492188 " fill-opacity="1" fill-rule="nonzero"/><path fill="#4e46e5" d="M 1069.871094 429.027344 C 1067.917969 429.027344 1066.335938 427.445312 1066.335938 425.492188 L 1066.335938 380.503906 C 1066.335938 378.449219 1064.664062 376.777344 1062.609375 376.777344 L 982.011719 376.777344 C 979.957031 376.777344 978.285156 378.449219 978.285156 380.503906 L 978.285156 425.492188 C 978.285156 427.445312 976.703125 429.027344 974.75 429.027344 C 972.796875 429.027344 971.214844 427.445312 971.214844 425.492188 L 971.214844 380.503906 C 971.214844 374.550781 976.058594 369.707031 982.011719 369.707031 L 1062.609375 369.707031 C 1068.5625 369.707031 1073.40625 374.550781 1073.40625 380.503906 L 1073.40625 425.492188 C 1073.40625 427.445312 1071.824219 429.027344 1069.871094 429.027344 Z M 1069.871094 429.027344 " fill-opacity="1" fill-rule="nonzero"/><path fill="#ffffff" d="M 1027.828125 144.714844 C 1027.828125 161.539062 1014.191406 175.175781 997.367188 175.175781 C 980.542969 175.175781 966.90625 161.539062 966.90625 144.714844 C 966.90625 127.890625 980.542969 114.253906 997.367188 114.253906 C 1014.191406 114.253906 1027.828125 127.890625 1027.828125 144.714844 Z M 1027.828125 144.714844 " fill-opacity="1" fill-rule="nonzero"/><path fill="#4e46e5" d="M 997.367188 178.710938 C 978.621094 178.710938 963.371094 163.460938 963.371094 144.714844 C 963.371094 125.96875 978.621094 110.71875 997.367188 110.71875 C 1016.113281 110.71875 1031.363281 125.96875 1031.363281 144.714844 C 1031.363281 163.460938 1016.113281 178.710938 997.367188 178.710938 Z M 997.367188 117.792969 C 982.519531 117.792969 970.441406 129.867188 970.441406 144.714844 C 970.441406 159.5625 982.519531 171.640625 997.367188 171.640625 C 1012.214844 171.640625 1024.292969 159.5625 1024.292969 144.714844 C 1024.292969 129.867188 1012.214844 117.792969 997.367188 117.792969 Z M 997.367188 117.792969 " fill-opacity="1" fill-rule="nonzero"/><path fill="#4e46e5" d="M 997.371094 148.25 C 996.117188 148.25 994.902344 147.582031 994.261719 146.40625 C 993.328125 144.691406 993.960938 142.542969 995.675781 141.609375 L 1034.613281 120.414062 C 1036.328125 119.480469 1038.476562 120.113281 1039.410156 121.828125 C 1040.34375 123.542969 1039.710938 125.691406 1037.996094 126.625 L 999.058594 147.820312 C 998.519531 148.113281 997.941406 148.25 997.371094 148.25 Z M 997.371094 148.25 " fill-opacity="1" fill-rule="nonzero"/><path fill="#ffffff" d="M 1049.769531 130.21875 L 1036.285156 123.507812 L 1037.984375 108.542969 L 1069.300781 91.515625 L 1069.5 105.449219 L 1081.085938 113.1875 Z M 1049.769531 130.21875 " fill-opacity="1" fill-rule="nonzero"/><path fill="#4e46e5" d="M 1049.769531 133.753906 C 1049.230469 133.753906 1048.691406 133.632812 1048.195312 133.382812 L 1034.710938 126.675781 C 1033.378906 126.011719 1032.605469 124.585938 1032.769531 123.109375 L 1034.46875 108.144531 C 1034.601562 107 1035.28125 105.988281 1036.292969 105.4375 L 1067.613281 88.410156 C 1068.699219 87.816406 1070.015625 87.835938 1071.085938 88.460938 C 1072.152344 89.089844 1072.816406 90.226562 1072.835938 91.464844 L 1073.007812 103.539062 L 1083.050781 110.246094 C 1084.078125 110.933594 1084.675781 112.113281 1084.617188 113.347656 C 1084.5625 114.585938 1083.863281 115.703125 1082.773438 116.292969 L 1051.457031 133.324219 C 1050.933594 133.609375 1050.351562 133.753906 1049.769531 133.753906 Z M 1040.078125 121.445312 L 1049.695312 126.234375 L 1074.257812 112.878906 L 1067.535156 108.386719 C 1066.566406 107.742188 1065.980469 106.660156 1065.964844 105.5 L 1065.847656 97.417969 L 1041.289062 110.769531 Z M 1040.078125 121.445312 " fill-opacity="1" fill-rule="nonzero"/><path fill="#ffffff" d="M 899.585938 324.359375 L 792.851562 324.359375 C 781.042969 324.359375 771.472656 314.789062 771.472656 302.976562 L 771.472656 196.246094 C 771.472656 184.4375 781.042969 174.863281 792.851562 174.863281 L 899.585938 174.863281 C 911.394531 174.863281 920.96875 184.4375 920.96875 196.246094 L 920.96875 302.976562 C 920.96875 314.789062 911.394531 324.359375 899.585938 324.359375 Z M 899.585938 324.359375 " fill-opacity="1" fill-rule="nonzero"/><path fill="#4e46e5" d="M 899.585938 327.898438 L 792.851562 327.898438 C 779.113281 327.898438 767.9375 316.71875 767.9375 302.976562 L 767.9375 196.246094 C 767.9375 182.507812 779.113281 171.328125 792.851562 171.328125 L 899.585938 171.328125 C 913.328125 171.328125 924.503906 182.507812 924.503906 196.246094 L 924.503906 302.976562 C 924.503906 316.71875 913.328125 327.898438 899.585938 327.898438 Z M 792.851562 178.398438 C 783.011719 178.398438 775.007812 186.40625 775.007812 196.246094 L 775.007812 302.976562 C 775.007812 312.820312 783.011719 320.824219 792.851562 320.824219 L 899.585938 320.824219 C 909.425781 320.824219 917.433594 312.820312 917.433594 302.976562 L 917.433594 196.246094 C 917.433594 186.40625 909.425781 178.398438 899.585938 178.398438 Z M 792.851562 178.398438 " fill-opacity="1" fill-rule="nonzero"/><path fill="#4e46e5" d="M 868.671875 203.910156 C 864.203125 203.910156 860.582031 207.179688 860.582031 211.21875 L 860.582031 215.492188 C 858.007812 219.890625 853.011719 222.574219 847.21875 222.574219 L 800.316406 222.574219 C 791.570312 222.574219 784.476562 229.664062 784.476562 238.410156 L 784.476562 249.375 C 784.476562 258.121094 791.566406 265.210938 800.316406 265.210938 L 847.21875 265.210938 C 853.011719 265.210938 858.007812 267.890625 860.582031 272.289062 L 860.582031 276.566406 C 860.582031 280.601562 864.203125 283.875 868.671875 283.875 C 873.140625 283.875 876.761719 280.601562 876.761719 276.566406 L 876.761719 211.21875 C 876.761719 207.179688 873.140625 203.910156 868.671875 203.910156 Z M 868.671875 203.910156 " fill-opacity="1" fill-rule="nonzero"/><path fill="#4e46e5" d="M 868.671875 287.410156 C 862.261719 287.410156 857.046875 282.542969 857.046875 276.566406 L 857.046875 273.332031 C 854.980469 270.445312 851.375 268.746094 847.21875 268.746094 L 800.316406 268.746094 C 789.632812 268.746094 780.941406 260.054688 780.941406 249.375 L 780.941406 238.410156 C 780.941406 227.726562 789.632812 219.035156 800.316406 219.035156 L 847.21875 219.035156 C 851.375 219.035156 854.980469 217.339844 857.046875 214.453125 L 857.046875 211.21875 C 857.046875 205.238281 862.261719 200.371094 868.671875 200.371094 C 875.082031 200.371094 880.296875 205.238281 880.296875 211.21875 L 880.296875 276.566406 C 880.296875 282.542969 875.082031 287.410156 868.671875 287.410156 Z M 800.316406 226.109375 C 793.53125 226.109375 788.011719 231.625 788.011719 238.410156 L 788.011719 249.375 C 788.011719 256.15625 793.53125 261.675781 800.316406 261.675781 L 847.21875 261.675781 C 854.261719 261.675781 860.398438 264.976562 863.632812 270.503906 C 863.949219 271.046875 864.117188 271.664062 864.117188 272.289062 L 864.117188 276.566406 C 864.117188 278.644531 866.160156 280.339844 868.671875 280.339844 C 871.183594 280.339844 873.226562 278.644531 873.226562 276.566406 L 873.226562 211.21875 C 873.226562 209.136719 871.183594 207.445312 868.671875 207.445312 C 866.160156 207.445312 864.117188 209.136719 864.117188 211.21875 L 864.117188 215.492188 C 864.117188 216.121094 863.949219 216.734375 863.632812 217.277344 C 860.398438 222.808594 854.261719 226.109375 847.21875 226.109375 Z M 860.582031 215.492188 L 860.585938 215.492188 Z M 860.582031 215.492188 " fill-opacity="1" fill-rule="nonzero"/><path fill="#4e46e5" d="M 824.898438 268.746094 C 822.945312 268.746094 821.363281 267.164062 821.363281 265.210938 L 821.363281 222.476562 C 821.363281 220.523438 822.945312 218.941406 824.898438 218.941406 C 826.851562 218.941406 828.433594 220.523438 828.433594 222.476562 L 828.433594 265.210938 C 828.433594 267.164062 826.851562 268.746094 824.898438 268.746094 Z M 824.898438 268.746094 " fill-opacity="1" fill-rule="nonzero"/><path fill="#4e46e5" d="M 900.425781 247.328125 C 898.472656 247.328125 896.890625 245.75 896.890625 243.796875 C 896.886719 241.84375 898.46875 240.257812 900.421875 240.257812 L 907.957031 240.246094 C 907.960938 240.246094 907.960938 240.246094 907.960938 240.246094 C 909.914062 240.246094 911.496094 241.828125 911.5 243.777344 C 911.5 245.730469 909.917969 247.316406 907.96875 247.320312 L 900.429688 247.328125 C 900.429688 247.328125 900.425781 247.328125 900.425781 247.328125 Z M 900.425781 247.328125 " fill-opacity="1" fill-rule="nonzero"/><path fill="#4e46e5" d="M 896.855469 274.234375 C 895.953125 274.234375 895.050781 273.890625 894.359375 273.203125 L 889.023438 267.882812 C 887.640625 266.503906 887.636719 264.265625 889.015625 262.882812 C 890.394531 261.5 892.632812 261.496094 894.015625 262.875 L 899.351562 268.195312 C 900.734375 269.574219 900.738281 271.8125 899.359375 273.195312 C 898.667969 273.890625 897.761719 274.234375 896.855469 274.234375 Z M 896.855469 274.234375 " fill-opacity="1" fill-rule="nonzero"/><path fill="#4e46e5" d="M 891.460938 225.765625 C 890.554688 225.765625 889.652344 225.421875 888.964844 224.734375 C 887.582031 223.355469 887.578125 221.117188 888.957031 219.734375 L 894.277344 214.398438 C 895.65625 213.015625 897.894531 213.011719 899.277344 214.390625 C 900.660156 215.769531 900.664062 218.007812 899.285156 219.390625 L 893.964844 224.726562 C 893.273438 225.417969 892.367188 225.765625 891.460938 225.765625 Z M 891.460938 225.765625 " fill-opacity="1" fill-rule="nonzero"/><path fill="#4e46e5" d="M 920.96875 371.222656 L 771.472656 371.222656 C 769.519531 371.222656 767.9375 369.640625 767.9375 367.6875 C 767.9375 365.734375 769.519531 364.152344 771.472656 364.152344 L 920.96875 364.152344 C 922.921875 364.152344 924.503906 365.734375 924.503906 367.6875 C 924.503906 369.640625 922.921875 371.222656 920.96875 371.222656 Z M 920.96875 371.222656 " fill-opacity="1" fill-rule="nonzero"/><path fill="#4e46e5" d="M 920.96875 350.519531 L 771.46875 350.519531 C 769.519531 350.519531 767.933594 348.9375 767.933594 346.984375 C 767.933594 345.03125 769.519531 343.449219 771.46875 343.449219 L 920.96875 343.449219 C 922.921875 343.449219 924.503906 345.03125 924.503906 346.984375 C 924.503906 348.9375 922.921875 350.519531 920.96875 350.519531 Z M 920.96875 350.519531 " fill-opacity="1" fill-rule="nonzero"/><g clip-path="url(#4118e29db9)"><g clip-path="url(#5c744f42d8)"><path fill="#4e46e5" d="M 499.53125 320.613281 L 548.714844 320.613281 L 548.714844 369.800781 L 499.53125 369.800781 Z M 499.53125 320.613281 " fill-opacity="1" fill-rule="nonzero"/></g></g></svg>