<svg xmlns="http://www.w3.org/2000/svg" xmlns:xlink="http://www.w3.org/1999/xlink" width="1920" zoomAndPan="magnify" viewBox="0 0 1440 809.999993" height="1080" preserveAspectRatio="xMidYMid meet" version="1.0"><defs><clipPath id="b9e7773bfb"><path d="M 499.53125 320.613281 L 548.714844 320.613281 L 548.714844 369.800781 L 499.53125 369.800781 Z M 499.53125 320.613281 " clip-rule="nonzero"/></clipPath><clipPath id="c9d54fdbc4"><path d="M 524.125 320.613281 C 510.542969 320.613281 499.53125 331.625 499.53125 345.207031 C 499.53125 358.789062 510.542969 369.800781 524.125 369.800781 C 537.707031 369.800781 548.714844 358.789062 548.714844 345.207031 C 548.714844 331.625 537.707031 320.613281 524.125 320.613281 Z M 524.125 320.613281 " clip-rule="nonzero"/></clipPath><clipPath id="e416bcb839"><path d="M 357.785156 95 L 1066.839844 95 L 1066.839844 734.726562 L 357.785156 734.726562 Z M 357.785156 95 " clip-rule="nonzero"/></clipPath><clipPath id="b38edbde03"><path d="M 411 338.046875 L 1082.15625 338.046875 L 1082.15625 706 L 411 706 Z M 411 338.046875 " clip-rule="nonzero"/></clipPath></defs><g clip-path="url(#b9e7773bfb)"><g clip-path="url(#c9d54fdbc4)"><path fill="#4e46e5" d="M 499.53125 320.613281 L 548.714844 320.613281 L 548.714844 369.800781 L 499.53125 369.800781 Z M 499.53125 320.613281 " fill-opacity="1" fill-rule="nonzero"/></g></g><path fill="#4e46e5" d="M 935.074219 653.773438 L 946.5625 705.167969 L 898.113281 705.167969 L 893.726562 685.542969 C 841.351562 717.273438 769.613281 733.429688 671.476562 723.722656 C 511.113281 707.855469 400.207031 604.898438 400.207031 443.75 C 400.207031 282.597656 544.035156 75.324219 705.179688 75.324219 C 866.332031 75.324219 1032.792969 177 1032.792969 338.144531 C 1032.792969 436.953125 1020.347656 571.75 935.074219 653.773438 " fill-opacity="1" fill-rule="nonzero"/><g clip-path="url(#e416bcb839)"><path fill="#1b1b1b" d="M 477.449219 403.433594 C 477.480469 404.183594 477.53125 404.933594 477.628906 405.675781 C 477.984375 408.886719 478.988281 412.011719 480.433594 414.910156 C 481.445312 416.917969 482.703125 418.792969 484.15625 420.527344 C 484.738281 418.625 485.328125 416.746094 485.886719 414.917969 C 482.132812 411.914062 479.226562 407.894531 477.449219 403.433594 Z M 567.148438 432.824219 C 566.960938 433.921875 566.722656 435.015625 566.449219 436.101562 C 567.441406 434.492188 568.257812 432.769531 568.855469 430.976562 C 570.996094 424.484375 570.84375 417.476562 570.675781 410.554688 C 570.570312 403.597656 570.613281 396.625 570.957031 389.667969 C 571.183594 384.789062 571.550781 379.914062 572.035156 375.050781 C 571.589844 374.972656 571.148438 374.890625 570.707031 374.792969 C 566.578125 383.65625 566.417969 393.8125 566.992188 403.570312 C 567.5625 413.332031 568.78125 423.183594 567.148438 432.824219 Z M 572.886719 375.195312 C 572.675781 378.699219 572.507812 382.203125 572.367188 385.710938 C 572.664062 382.191406 573.074219 378.699219 573.601562 375.273438 C 573.363281 375.242188 573.125 375.230469 572.886719 375.195312 Z M 630.171875 309.65625 C 628.410156 312.371094 626.777344 315.210938 625.5 318.167969 C 638.585938 317.851562 654.609375 321.53125 674.117188 330.523438 C 673.839844 327.113281 673.832031 323.667969 673.839844 320.242188 C 673.84375 317.824219 673.761719 315.242188 673.320312 312.816406 C 672.648438 312.4375 671.96875 312.085938 671.261719 311.8125 C 670.246094 311.425781 669.210938 311.117188 668.140625 310.949219 C 667.082031 310.757812 665.996094 310.699219 664.910156 310.722656 C 663.820312 310.757812 662.730469 310.925781 661.632812 311.171875 C 661.476562 311.210938 661.324219 311.113281 661.285156 310.960938 C 661.261719 310.832031 661.320312 310.710938 661.417969 310.644531 C 662.4375 310.035156 663.597656 309.660156 664.785156 309.46875 C 665.972656 309.265625 667.199219 309.292969 668.386719 309.472656 C 669.578125 309.679688 670.75 310.039062 671.808594 310.609375 C 672.230469 310.832031 672.621094 311.09375 673.003906 311.371094 C 672.679688 310.121094 672.234375 308.945312 671.628906 307.871094 C 671.40625 307.816406 671.179688 307.765625 670.957031 307.726562 C 670.253906 307.601562 669.554688 307.492188 668.847656 307.449219 C 668.140625 307.390625 667.4375 307.402344 666.71875 307.425781 C 666 307.457031 665.285156 307.550781 664.53125 307.644531 C 664.375 307.660156 664.222656 307.550781 664.207031 307.390625 C 664.1875 307.277344 664.246094 307.171875 664.328125 307.105469 C 664.992188 306.65625 665.75 306.367188 666.539062 306.179688 C 667.320312 305.980469 668.136719 305.929688 668.941406 305.964844 C 669.460938 306 669.972656 306.09375 670.472656 306.214844 C 670.128906 305.8125 669.746094 305.433594 669.324219 305.082031 C 668.28125 304.957031 667.242188 304.925781 666.230469 305.058594 C 665.15625 305.207031 664.105469 305.460938 663.117188 305.875 C 662.113281 306.273438 661.179688 306.820312 660.304688 307.460938 C 659.4375 308.117188 658.667969 308.902344 657.976562 309.792969 C 657.878906 309.921875 657.699219 309.945312 657.570312 309.851562 C 657.472656 309.777344 657.4375 309.636719 657.476562 309.519531 C 658.3125 307.242188 660.292969 305.4375 662.542969 304.5 C 663.6875 304.035156 664.90625 303.75 666.136719 303.742188 C 666.449219 303.738281 666.761719 303.75 667.070312 303.769531 C 662.316406 302.058594 655.53125 304.925781 654.175781 309.789062 C 653.78125 305.472656 650.351562 301.753906 646.242188 300.5625 C 646.578125 300.832031 646.921875 301.09375 647.238281 301.398438 C 648.152344 302.308594 648.945312 303.339844 649.527344 304.484375 C 650.117188 305.625 650.53125 306.855469 650.660156 308.117188 C 650.671875 308.273438 650.5625 308.414062 650.398438 308.429688 C 650.269531 308.441406 650.152344 308.367188 650.105469 308.253906 C 649.640625 307.140625 649.097656 306.09375 648.445312 305.125 C 647.78125 304.167969 647.046875 303.265625 646.199219 302.464844 C 645.371094 301.660156 644.445312 300.960938 643.460938 300.335938 C 643.367188 300.277344 643.265625 300.230469 643.171875 300.179688 C 643.027344 300.183594 642.882812 300.179688 642.734375 300.191406 C 641.460938 300.296875 640.253906 300.628906 639.109375 301.128906 C 639.917969 301.199219 640.722656 301.355469 641.5 301.597656 C 643.984375 302.390625 646.257812 304.105469 647.402344 306.425781 C 647.472656 306.566406 647.414062 306.738281 647.273438 306.808594 C 647.15625 306.867188 647.015625 306.832031 646.929688 306.746094 C 646.105469 305.851562 645.207031 305.082031 644.21875 304.464844 C 643.21875 303.851562 642.164062 303.351562 641.050781 303.019531 C 639.949219 302.667969 638.792969 302.484375 637.632812 302.425781 C 637.34375 302.414062 637.058594 302.441406 636.765625 302.453125 C 636.019531 302.964844 635.300781 303.542969 634.625 304.179688 C 635.035156 304.144531 635.441406 304.132812 635.84375 304.140625 C 636.625 304.171875 637.40625 304.261719 638.152344 304.472656 C 638.90625 304.664062 639.640625 304.933594 640.316406 305.335938 C 640.449219 305.414062 640.496094 305.597656 640.414062 305.738281 C 640.355469 305.835938 640.253906 305.882812 640.140625 305.875 L 637.953125 305.714844 C 637.230469 305.679688 636.527344 305.632812 635.816406 305.632812 C 635.101562 305.613281 634.390625 305.636719 633.675781 305.648438 L 633.171875 305.671875 C 632.058594 306.921875 631.054688 308.277344 630.171875 309.65625 Z M 475.558594 395.585938 C 474.917969 388.105469 477.46875 380.402344 482.445312 374.78125 C 487.664062 368.890625 495.46875 365.0625 498.644531 357.859375 C 502.207031 349.777344 498.691406 340.554688 497.648438 331.785156 C 497.378906 329.542969 497.304688 327.289062 497.390625 325.042969 C 497.101562 326.507812 496.902344 327.988281 496.820312 329.484375 C 496.398438 335.042969 497.089844 340.75 496.238281 346.496094 C 495.800781 349.347656 494.964844 352.164062 493.566406 354.71875 C 492.15625 357.246094 490.101562 359.492188 487.507812 360.816406 C 487.367188 360.890625 487.191406 360.832031 487.125 360.695312 C 487.054688 360.558594 487.105469 360.390625 487.234375 360.316406 C 489.640625 358.921875 491.460938 356.710938 492.675781 354.246094 C 493.921875 351.785156 494.652344 349.066406 494.988281 346.320312 C 495.664062 340.796875 494.988281 335.128906 495.332031 329.386719 C 495.589844 325.3125 496.617188 321.265625 498.347656 317.554688 C 501.023438 304.828125 509.042969 293.160156 520.371094 286.691406 C 532.523438 279.753906 548.070312 277.496094 557.292969 266.972656 C 570.214844 252.230469 590.441406 244.230469 609.953125 246.136719 C 621.511719 247.269531 632.625 251.882812 641.820312 258.960938 C 659.839844 247.945312 684.183594 261.328125 695.25 274.382812 C 707.175781 288.441406 709.488281 309.886719 700.835938 326.164062 C 698.324219 330.902344 694.914062 335.386719 694.152344 340.699219 C 693.390625 346.011719 697.144531 351.5 702.511719 351.394531 C 698.242188 355.730469 690.890625 355.972656 685.613281 352.945312 C 683.414062 351.683594 681.566406 349.949219 680.019531 347.949219 C 679.535156 369.949219 680.464844 411.699219 693.09375 432.148438 C 710.714844 460.679688 691.394531 502.214844 691.394531 502.214844 C 691.394531 502.214844 597.789062 500.6875 582.464844 466.753906 C 578.210938 457.324219 573.691406 437.738281 572.222656 415.796875 C 572.210938 421.039062 571.871094 426.339844 570.105469 431.40625 C 569.0625 434.316406 567.492188 437.035156 565.46875 439.371094 C 562.984375 446.597656 558.425781 453.109375 551.660156 456.429688 C 544.582031 459.898438 536.21875 459.40625 528.476562 457.9375 C 520.738281 456.46875 513.054688 454.75 505.207031 454.007812 C 496.820312 453.214844 490.371094 453.15625 481.71875 457.425781 C 479.566406 453.261719 479.105469 448.222656 479.765625 439.945312 C 480.25 433.886719 482.007812 427.546875 483.863281 421.472656 C 482.078125 419.722656 480.550781 417.699219 479.328125 415.5 C 477.664062 412.539062 476.605469 409.238281 476.148438 405.855469 C 475.902344 403.703125 475.9375 401.527344 476.195312 399.390625 C 475.902344 398.136719 475.671875 396.871094 475.558594 395.585938 Z M 969.867188 191.285156 L 969.867188 195.761719 L 988.515625 195.761719 L 988.515625 191.285156 Z M 969.867188 229.5 L 994.746094 229.5 L 994.746094 225.023438 L 969.867188 225.023438 Z M 988.914062 224.160156 L 1006.859375 224.160156 L 1006.859375 219.683594 L 988.914062 219.683594 Z M 969.867188 224.160156 L 988.515625 224.160156 L 988.515625 219.683594 L 969.867188 219.683594 Z M 969.867188 218.824219 L 1003.460938 218.824219 L 1003.460938 214.347656 L 969.867188 214.347656 Z M 969.867188 211.78125 L 994.746094 211.78125 L 994.746094 207.300781 L 969.867188 207.300781 Z M 1010.9375 201.96875 L 988.914062 201.96875 L 988.914062 206.445312 L 1010.9375 206.445312 Z M 969.867188 206.445312 L 988.515625 206.445312 L 988.515625 201.96875 L 969.867188 201.96875 Z M 969.867188 201.105469 L 1003.460938 201.105469 L 1003.460938 196.625 L 969.867188 196.625 Z M 921.992188 187.984375 L 958.984375 187.984375 L 958.984375 183.507812 L 921.992188 183.507812 Z M 955.582031 144.09375 L 921.992188 144.09375 L 921.992188 148.574219 L 955.582031 148.574219 Z M 921.992188 182.828125 L 946.867188 182.828125 L 946.867188 178.351562 L 921.992188 178.351562 Z M 958.984375 173.011719 L 941.027344 173.011719 L 941.027344 177.488281 L 958.984375 177.488281 Z M 921.992188 177.488281 L 940.632812 177.488281 L 940.632812 173.011719 L 921.992188 173.011719 Z M 921.992188 172.148438 L 955.582031 172.148438 L 955.582031 167.667969 L 921.992188 167.667969 Z M 921.992188 165.109375 L 946.867188 165.109375 L 946.867188 160.632812 L 921.992188 160.632812 Z M 963.058594 155.289062 L 941.027344 155.289062 L 941.027344 159.769531 L 963.058594 159.769531 Z M 921.992188 159.769531 L 940.632812 159.769531 L 940.632812 155.289062 L 921.992188 155.289062 Z M 921.992188 154.433594 L 955.582031 154.433594 L 955.582031 149.953125 L 921.992188 149.953125 Z M 1004.476562 137.679688 L 970.882812 137.679688 L 970.882812 142.160156 L 1004.476562 142.160156 Z M 995.757812 132.386719 L 970.882812 132.386719 L 970.882812 136.863281 L 995.757812 136.863281 Z M 989.921875 131.523438 L 1007.875 131.523438 L 1007.875 127.042969 L 989.921875 127.042969 Z M 989.53125 127.042969 L 970.882812 127.042969 L 970.882812 131.523438 L 989.53125 131.523438 Z M 1004.476562 121.707031 L 970.882812 121.707031 L 970.882812 126.1875 L 1004.476562 126.1875 Z M 995.757812 114.664062 L 970.882812 114.664062 L 970.882812 119.144531 L 995.757812 119.144531 Z M 989.921875 113.800781 L 1011.953125 113.800781 L 1011.953125 109.324219 L 989.921875 109.324219 Z M 989.53125 109.324219 L 970.882812 109.324219 L 970.882812 113.800781 L 989.53125 113.800781 Z M 1004.476562 103.988281 L 970.882812 103.988281 L 970.882812 108.464844 L 1004.476562 108.464844 Z M 1009.234375 148.574219 L 973.601562 148.574219 L 973.601562 184.207031 L 1009.234375 184.207031 Z M 1013.710938 188.683594 L 969.121094 188.683594 L 969.121094 144.09375 L 1013.710938 144.09375 Z M 961.351562 195.761719 L 925.722656 195.761719 L 925.722656 224.316406 L 961.351562 224.316406 Z M 965.828125 228.796875 L 921.242188 228.796875 L 921.242188 191.285156 L 965.828125 191.285156 Z M 961.351562 108.464844 L 925.722656 108.464844 L 925.722656 137.679688 L 961.351562 137.679688 Z M 965.828125 142.160156 L 921.242188 142.160156 L 921.242188 103.988281 L 965.828125 103.988281 Z M 999.496094 360.839844 L 974.621094 360.839844 L 974.621094 365.316406 L 999.496094 365.316406 Z M 1015.6875 355.5 L 993.660156 355.5 L 993.660156 359.976562 L 1015.6875 359.976562 Z M 974.621094 359.976562 L 993.261719 359.976562 L 993.261719 355.5 L 974.621094 355.5 Z M 1008.214844 350.164062 L 974.621094 350.164062 L 974.621094 354.640625 L 1008.214844 354.640625 Z M 974.621094 333.65625 L 999.496094 333.65625 L 999.496094 329.175781 L 974.621094 329.175781 Z M 1015.6875 323.835938 L 993.660156 323.835938 L 993.660156 328.3125 L 1015.6875 328.3125 Z M 974.621094 328.3125 L 993.261719 328.3125 L 993.261719 323.835938 L 974.621094 323.835938 Z M 1008.214844 318.496094 L 974.621094 318.496094 L 974.621094 322.972656 L 1008.214844 322.972656 Z M 974.621094 301.988281 L 999.496094 301.988281 L 999.496094 297.507812 L 974.621094 297.507812 Z M 1015.6875 292.171875 L 993.660156 292.171875 L 993.660156 296.652344 L 1015.6875 296.652344 Z M 974.621094 296.652344 L 993.261719 296.652344 L 993.261719 292.171875 L 974.621094 292.171875 Z M 1008.214844 286.832031 L 974.621094 286.832031 L 974.621094 291.308594 L 1008.214844 291.308594 Z M 946.5 366.179688 L 963.375 366.179688 L 963.375 349.300781 L 946.5 349.300781 Z M 942.019531 344.820312 L 967.851562 344.820312 L 967.851562 370.660156 L 942.019531 370.660156 Z M 963.375 317.636719 L 946.5 317.636719 L 946.5 334.511719 L 963.375 334.511719 Z M 967.851562 338.992188 L 942.019531 338.992188 L 942.019531 313.160156 L 967.851562 313.160156 Z M 963.375 285.976562 L 946.5 285.976562 L 946.5 302.851562 L 963.375 302.851562 Z M 967.851562 307.328125 L 942.019531 307.328125 L 942.019531 281.496094 L 967.851562 281.496094 Z M 918.300781 360.839844 L 893.429688 360.839844 L 893.429688 365.316406 L 918.300781 365.316406 Z M 912.46875 359.976562 L 934.496094 359.976562 L 934.496094 355.5 L 912.46875 355.5 Z M 912.070312 355.5 L 893.429688 355.5 L 893.429688 359.976562 L 912.070312 359.976562 Z M 927.023438 350.164062 L 893.429688 350.164062 L 893.429688 354.640625 L 927.023438 354.640625 Z M 918.300781 297.507812 L 893.429688 297.507812 L 893.429688 301.988281 L 918.300781 301.988281 Z M 912.46875 296.652344 L 934.496094 296.652344 L 934.496094 292.171875 L 912.46875 292.171875 Z M 912.070312 292.171875 L 893.429688 292.171875 L 893.429688 296.652344 L 912.070312 296.652344 Z M 927.023438 286.832031 L 893.429688 286.832031 L 893.429688 291.308594 L 927.023438 291.308594 Z M 865.308594 366.179688 L 882.183594 366.179688 L 882.183594 349.300781 L 865.308594 349.300781 Z M 860.828125 344.820312 L 886.660156 344.820312 L 886.660156 370.660156 L 860.828125 370.660156 Z M 882.183594 285.976562 L 865.308594 285.976562 L 865.308594 302.851562 L 882.183594 302.851562 Z M 886.660156 307.328125 L 860.828125 307.328125 L 860.828125 281.496094 L 886.660156 281.496094 Z M 878.652344 95.9375 L 767.992188 95.9375 L 767.992188 236.847656 L 878.652344 236.847656 Z M 1066.839844 713.664062 C 1066.839844 725.296875 908.113281 734.726562 712.3125 734.726562 C 516.511719 734.726562 357.785156 725.296875 357.785156 713.664062 C 357.785156 703.472656 479.578125 694.96875 641.390625 693.015625 L 604.671875 601.773438 C 603.902344 599.832031 604.851562 597.632812 606.792969 596.863281 C 608.734375 596.09375 610.933594 597.042969 611.703125 598.984375 L 649.507812 692.921875 C 669.890625 692.707031 690.878906 692.597656 712.3125 692.597656 C 779.550781 692.597656 842.414062 693.710938 895.984375 695.640625 L 898.113281 705.167969 L 946.5625 705.167969 L 944.90625 697.761719 C 1019.609375 701.625 1066.839844 707.3125 1066.839844 713.664062 " fill-opacity="1" fill-rule="nonzero"/></g><path fill="#ffffff" d="M 782.726562 222.914062 L 839.941406 222.914062 L 839.941406 221.417969 L 782.726562 221.417969 Z M 863.917969 212.316406 L 782.726562 212.316406 L 782.726562 213.808594 L 863.917969 213.808594 Z M 863.917969 203.210938 L 782.726562 203.210938 L 782.726562 204.703125 L 863.917969 204.703125 Z M 863.917969 194.105469 L 782.726562 194.105469 L 782.726562 195.601562 L 863.917969 195.601562 Z M 863.917969 185 L 782.726562 185 L 782.726562 186.492188 L 863.917969 186.492188 Z M 863.917969 175.890625 L 782.726562 175.890625 L 782.726562 177.382812 L 863.917969 177.382812 Z M 863.171875 114.191406 L 783.472656 114.191406 L 783.472656 165.644531 L 863.171875 165.644531 Z M 864.664062 167.136719 L 781.980469 167.136719 L 781.980469 112.699219 L 864.664062 112.699219 Z M 883.675781 284.480469 L 863.8125 284.480469 L 863.8125 304.34375 L 883.675781 304.34375 Z M 800.5 321.265625 L 799.445312 320.210938 L 789.292969 330.359375 L 785.660156 326.722656 L 784.605469 327.777344 L 789.292969 332.472656 Z M 802.484375 336.003906 L 782.621094 336.003906 L 782.621094 316.144531 L 802.484375 316.144531 Z M 1014.195312 293.667969 L 995.152344 293.667969 L 995.152344 295.160156 L 1014.195312 295.160156 Z M 1014.195312 325.328125 L 995.152344 325.328125 L 995.152344 326.820312 L 1014.195312 326.820312 Z M 1014.195312 356.992188 L 995.152344 356.992188 L 995.152344 358.484375 L 1014.195312 358.484375 Z M 998.003906 362.332031 L 976.113281 362.332031 L 976.113281 363.824219 L 998.003906 363.824219 Z M 966.359375 282.988281 L 943.511719 282.988281 L 943.511719 305.835938 L 966.359375 305.835938 Z M 966.359375 314.652344 L 943.511719 314.652344 L 943.511719 337.5 L 966.359375 337.5 Z M 966.359375 346.316406 L 943.511719 346.316406 L 943.511719 369.167969 L 966.359375 369.167969 Z M 933.003906 293.667969 L 913.960938 293.667969 L 913.960938 295.160156 L 933.003906 295.160156 Z M 933.003906 325.328125 L 913.960938 325.328125 L 913.960938 326.820312 L 933.003906 326.820312 Z M 933.003906 356.992188 L 913.960938 356.992188 L 913.960938 358.484375 L 933.003906 358.484375 Z M 916.804688 362.332031 L 894.921875 362.332031 L 894.921875 363.824219 L 916.804688 363.824219 Z M 885.167969 282.988281 L 862.320312 282.988281 L 862.320312 305.835938 L 885.167969 305.835938 Z M 885.167969 314.652344 L 862.320312 314.652344 L 862.320312 337.5 L 885.167969 337.5 Z M 885.167969 346.316406 L 862.320312 346.316406 L 862.320312 369.167969 L 885.167969 369.167969 Z M 851.808594 293.667969 L 832.769531 293.667969 L 832.769531 295.160156 L 851.808594 295.160156 Z M 851.808594 325.328125 L 832.769531 325.328125 L 832.769531 326.820312 L 851.808594 326.820312 Z M 851.808594 356.992188 L 832.769531 356.992188 L 832.769531 358.484375 L 851.808594 358.484375 Z M 835.613281 362.332031 L 813.726562 362.332031 L 813.726562 363.824219 L 835.613281 363.824219 Z M 803.976562 282.988281 L 781.128906 282.988281 L 781.128906 305.835938 L 803.976562 305.835938 Z M 803.976562 314.652344 L 781.128906 314.652344 L 781.128906 337.5 L 803.976562 337.5 Z M 803.976562 346.316406 L 781.128906 346.316406 L 781.128906 369.167969 L 803.976562 369.167969 Z M 813.726562 358.484375 L 829.386719 358.484375 L 829.386719 356.992188 L 813.726562 356.992188 Z M 813.726562 353.148438 L 844.339844 353.148438 L 844.339844 351.65625 L 813.726562 351.65625 Z M 813.726562 332.164062 L 835.613281 332.164062 L 835.613281 330.671875 L 813.726562 330.671875 Z M 813.726562 326.820312 L 829.386719 326.820312 L 829.386719 325.328125 L 813.726562 325.328125 Z M 813.726562 321.480469 L 844.339844 321.480469 L 844.339844 319.988281 L 813.726562 319.988281 Z M 813.726562 300.496094 L 835.613281 300.496094 L 835.613281 299 L 813.726562 299 Z M 813.726562 295.160156 L 829.386719 295.160156 L 829.386719 293.667969 L 813.726562 293.667969 Z M 813.726562 289.816406 L 844.339844 289.816406 L 844.339844 288.324219 L 813.726562 288.324219 Z M 894.921875 358.484375 L 910.578125 358.484375 L 910.578125 356.992188 L 894.921875 356.992188 Z M 894.921875 353.148438 L 925.53125 353.148438 L 925.53125 351.65625 L 894.921875 351.65625 Z M 894.921875 332.164062 L 916.804688 332.164062 L 916.804688 330.671875 L 894.921875 330.671875 Z M 894.921875 326.820312 L 910.578125 326.820312 L 910.578125 325.328125 L 894.921875 325.328125 Z M 894.921875 321.480469 L 925.53125 321.480469 L 925.53125 319.988281 L 894.921875 319.988281 Z M 894.921875 300.496094 L 916.804688 300.496094 L 916.804688 299 L 894.921875 299 Z M 894.921875 295.160156 L 910.578125 295.160156 L 910.578125 293.667969 L 894.921875 293.667969 Z M 894.921875 289.816406 L 925.53125 289.816406 L 925.53125 288.324219 L 894.921875 288.324219 Z M 976.113281 358.484375 L 991.769531 358.484375 L 991.769531 356.992188 L 976.113281 356.992188 Z M 976.113281 353.148438 L 1006.722656 353.148438 L 1006.722656 351.65625 L 976.113281 351.65625 Z M 976.113281 332.164062 L 998.003906 332.164062 L 998.003906 330.671875 L 976.113281 330.671875 Z M 976.113281 326.820312 L 991.769531 326.820312 L 991.769531 325.328125 L 976.113281 325.328125 Z M 976.113281 321.480469 L 1006.722656 321.480469 L 1006.722656 319.988281 L 976.113281 319.988281 Z M 976.113281 300.496094 L 998.003906 300.496094 L 998.003906 299 L 976.113281 299 Z M 976.113281 295.160156 L 991.769531 295.160156 L 991.769531 293.667969 L 976.113281 293.667969 Z M 976.113281 289.816406 L 1006.722656 289.816406 L 1006.722656 288.324219 L 976.113281 288.324219 Z M 1028.074219 383.5625 L 767.992188 383.5625 L 767.992188 264.382812 L 1028.074219 264.382812 Z M 800.5 352.925781 L 799.445312 351.871094 L 789.292969 362.023438 L 785.660156 358.390625 L 784.605469 359.445312 L 789.292969 364.132812 Z M 802.484375 367.671875 L 782.621094 367.671875 L 782.621094 347.808594 L 802.484375 347.808594 Z M 883.675781 347.808594 L 863.8125 347.808594 L 863.8125 367.671875 L 883.675781 367.671875 Z M 881.691406 321.265625 L 880.636719 320.210938 L 870.484375 330.359375 L 866.851562 326.722656 L 865.796875 327.777344 L 870.484375 332.472656 Z M 883.675781 336.003906 L 863.8125 336.003906 L 863.8125 316.144531 L 883.675781 316.144531 Z M 964.867188 347.808594 L 945.003906 347.808594 L 945.003906 367.671875 L 964.867188 367.671875 Z M 964.867188 316.144531 L 945.003906 316.144531 L 945.003906 336.003906 L 964.867188 336.003906 Z M 964.867188 284.480469 L 945.003906 284.480469 L 945.003906 304.34375 L 964.867188 304.34375 Z M 800.5 289.601562 L 799.445312 288.546875 L 789.292969 298.691406 L 785.660156 295.058594 L 784.605469 296.113281 L 789.292969 300.804688 Z M 802.484375 304.34375 L 782.621094 304.34375 L 782.621094 284.480469 L 802.484375 284.480469 Z M 1072.890625 407.511719 C 1072.78125 407.429688 1072.671875 407.355469 1072.554688 407.277344 L 1072.554688 407.273438 C 1071.503906 406.550781 1070.226562 406.113281 1068.832031 406.113281 L 756.378906 406.113281 C 753.195312 406.113281 750.46875 408.386719 749.90625 411.515625 L 707.429688 647.832031 C 706.953125 650.503906 708.15625 653.023438 710.210938 654.425781 L 716.5 658.863281 L 721.351562 655.570312 L 887.027344 655.570312 L 876.695312 609.324219 L 925.140625 609.324219 L 935.472656 655.570312 L 1026.359375 655.570312 C 1029.539062 655.570312 1032.265625 653.289062 1032.828125 650.160156 L 1075.085938 415.058594 L 1079.398438 412.117188 Z M 646.355469 603.570312 C 646.898438 603.570312 647.414062 603.328125 647.757812 602.921875 C 648.496094 602.050781 649.171875 601.0625 649.878906 599.808594 C 650.433594 598.832031 650.945312 597.726562 651.441406 596.40625 C 651.925781 595.066406 652.246094 593.929688 652.457031 592.839844 C 652.734375 591.453125 652.875 590.226562 652.882812 589.089844 C 652.886719 588.3125 652.398438 587.625 651.652344 587.382812 L 651.335938 587.300781 L 651.105469 587.300781 C 650.328125 587.300781 649.644531 587.796875 649.40625 588.53125 L 648.367188 591.726562 L 648.140625 592.371094 C 647.855469 593.199219 647.570312 594.023438 647.242188 594.855469 C 646.929688 595.695312 646.589844 596.523438 646.246094 597.351562 L 646.023438 597.894531 L 644.671875 601.019531 C 644.355469 601.765625 644.5625 602.617188 645.179688 603.136719 C 645.511719 603.417969 645.925781 603.570312 646.355469 603.570312 Z M 620.824219 621.644531 L 621.382812 620.835938 C 623.796875 617.328125 625.984375 613.777344 627.871094 610.28125 C 630.800781 604.878906 633.402344 598.992188 635.617188 592.769531 C 637.78125 586.484375 639.425781 580.257812 640.492188 574.265625 C 641.628906 568.003906 642.242188 561.597656 642.316406 555.234375 C 642.320312 554.285156 641.59375 553.503906 640.539062 553.4375 C 639.597656 553.4375 638.824219 554.167969 638.765625 555.101562 C 638.378906 561.175781 637.558594 567.359375 636.320312 573.46875 C 635.035156 579.765625 633.378906 585.761719 631.390625 591.300781 C 629.445312 596.902344 626.988281 602.613281 624.066406 608.269531 C 622.554688 611.179688 620.863281 614.167969 619.015625 617.160156 L 619.710938 618.878906 C 619.84375 619.183594 620.152344 619.988281 620.152344 619.988281 C 620.589844 620.972656 620.824219 621.644531 620.824219 621.644531 Z M 511.929688 565.660156 C 511.648438 565.492188 511.332031 565.402344 511.007812 565.402344 C 510.390625 565.402344 509.804688 565.730469 509.484375 566.261719 C 508.527344 567.847656 507.660156 569.449219 506.644531 571.359375 C 506.054688 572.464844 505.503906 573.585938 504.941406 574.710938 C 504.644531 575.3125 504.347656 575.910156 504.023438 576.554688 L 503.261719 578.175781 C 502.699219 579.375 502.132812 580.578125 501.597656 581.796875 C 500.855469 583.492188 500.066406 585.300781 499.363281 587.1875 C 499.058594 588.015625 499.386719 588.949219 500.136719 589.398438 C 500.421875 589.566406 500.75 589.660156 501.082031 589.660156 C 501.722656 589.660156 502.324219 589.316406 502.652344 588.773438 C 503.695312 587.03125 504.65625 585.222656 505.480469 583.65625 C 506.085938 582.484375 506.675781 581.292969 507.257812 580.109375 L 508.074219 578.449219 C 508.355469 577.835938 508.640625 577.21875 508.925781 576.605469 C 509.449219 575.472656 509.976562 574.34375 510.46875 573.199219 C 511.332031 571.21875 512.039062 569.539062 512.679688 567.800781 C 512.972656 567.003906 512.65625 566.097656 511.929688 565.660156 Z M 517.472656 472.644531 C 514.355469 469.472656 510.808594 466.992188 506.929688 465.28125 L 506.527344 465.132812 L 506.214844 465.132812 C 505.539062 465.132812 504.90625 465.523438 504.617188 466.128906 C 504.40625 466.554688 504.378906 467.039062 504.535156 467.488281 C 504.691406 467.9375 505.011719 468.300781 505.4375 468.511719 C 511.921875 471.652344 517.460938 477.507812 521.03125 484.984375 C 524.34375 491.945312 525.988281 499.789062 525.777344 507.6875 C 525.636719 514.691406 524.226562 522.320312 521.460938 531.007812 C 519.042969 538.597656 515.886719 546.144531 512.84375 553.445312 L 512.761719 553.636719 C 512.382812 554.546875 512.792969 555.585938 513.6875 556 L 514.125 556.167969 L 514.453125 556.167969 C 515.164062 556.167969 515.8125 555.753906 516.113281 555.105469 C 519.445312 547.929688 522.914062 540.253906 525.554688 532.34375 C 528.511719 523.527344 530.046875 515.492188 530.25 507.777344 C 530.394531 499.019531 528.53125 490.488281 524.839844 483.117188 C 522.828125 479.117188 520.347656 475.59375 517.472656 472.644531 Z M 615.738281 536.863281 L 615.972656 536.855469 L 616.089844 536.839844 C 616.871094 536.710938 617.535156 536.179688 617.820312 535.4375 C 617.996094 534.996094 635.050781 490.785156 629.929688 448.1875 L 628.414062 448.089844 L 625.429688 447.957031 L 625.410156 448.105469 L 625.441406 448.3125 C 629.722656 482.890625 618.875 518.714844 614.957031 530.160156 L 553.351562 455.5 C 552.804688 455.828125 552.238281 456.140625 551.660156 456.429688 C 550.84375 456.824219 550.011719 457.167969 549.164062 457.464844 L 614.011719 536.050781 C 614.4375 536.5625 615.066406 536.863281 615.738281 536.863281 Z M 687.664062 694.566406 L 773.300781 726.527344 L 623.964844 726.527344 L 585.300781 698.789062 C 587.269531 698.886719 589.351562 698.863281 591.558594 698.636719 C 604.742188 697.273438 608 695.128906 608.652344 694.566406 L 609.351562 694.566406 L 621.183594 697.613281 C 623.949219 698.324219 626.828125 697.050781 628.195312 694.566406 L 642.011719 694.566406 L 643.429688 698.078125 C 643.628906 698.574219 643.949219 699.011719 644.363281 699.34375 L 648.765625 702.894531 C 649.179688 703.226562 649.796875 702.980469 649.875 702.457031 L 650.648438 696.847656 C 650.71875 696.324219 650.65625 695.785156 650.460938 695.289062 L 650.164062 694.566406 L 687.664062 694.566406 " fill-opacity="1" fill-rule="nonzero"/><path fill="#dee2fc" d="M 706.085938 495.152344 C 699.292969 486.808594 694.824219 476.015625 689.347656 466.101562 C 693.234375 460.382812 694.351562 453.023438 698.5 447.449219 C 703.214844 441.117188 711.304688 437.898438 715.78125 431.390625 C 719.332031 426.230469 720.136719 419.570312 719.292969 413.359375 C 719 411.253906 718.527344 409.183594 717.957031 407.144531 C 718.46875 405.265625 718.15625 402.863281 717.1875 401.285156 C 716.820312 401.335938 716.453125 401.394531 716.085938 401.453125 C 715.4375 399.679688 714.742188 397.917969 714.039062 396.171875 C 714.324219 395.914062 714.546875 395.640625 714.679688 395.34375 C 715.601562 393.21875 714.621094 389.84375 712.488281 388.945312 C 710.679688 388.1875 708.859375 387.46875 707.023438 386.789062 C 712.015625 387.359375 714.597656 381.777344 711.058594 377.632812 C 706.984375 372.851562 699.601562 368.996094 694.632812 365.074219 C 693.488281 364.164062 692.3125 363.242188 690.914062 362.835938 C 689.511719 362.433594 687.820312 362.660156 686.894531 363.785156 C 685.289062 365.707031 686.785156 368.566406 688.269531 370.578125 C 692.578125 376.414062 697.226562 382.46875 703.6875 385.621094 C 698.988281 384.007812 694.21875 382.613281 689.371094 381.5 C 687.84375 382.652344 687.484375 384.917969 688.101562 386.730469 C 688.714844 388.550781 690.101562 389.996094 691.566406 391.238281 C 693.121094 392.566406 694.820312 393.734375 696.613281 394.722656 C 696.539062 394.757812 696.457031 394.792969 696.382812 394.839844 C 695.175781 395.535156 694.054688 396.355469 693.015625 397.277344 C 693.191406 396.171875 693.070312 395.085938 692.5 394.136719 C 686.335938 395.136719 680.152344 394.542969 673.972656 393.699219 C 664.765625 412.875 658.804688 433.605469 656.414062 454.742188 C 654.894531 459.011719 654.410156 463.269531 656.324219 466.625 C 656.316406 466.625 656.304688 466.625 656.300781 466.625 C 668.585938 494.042969 680.867188 521.460938 693.152344 548.878906 C 700.417969 565.113281 707.734375 581.382812 716.609375 596.769531 L 730.0625 521.945312 C 721.660156 513.390625 713.652344 504.445312 706.085938 495.152344 Z M 962.84375 194.269531 L 924.230469 194.269531 L 924.230469 225.808594 L 962.84375 225.808594 Z M 1012.21875 145.585938 L 970.617188 145.585938 L 970.617188 187.191406 L 1012.21875 187.191406 Z M 1009.445312 203.460938 L 990.40625 203.460938 L 990.40625 204.953125 L 1009.445312 204.953125 Z M 1005.367188 221.175781 L 990.40625 221.175781 L 990.40625 222.667969 L 1005.367188 222.667969 Z M 971.363281 221.175781 L 971.363281 222.667969 L 987.023438 222.667969 L 987.023438 221.175781 Z M 971.363281 215.839844 L 971.363281 217.332031 L 1001.96875 217.332031 L 1001.96875 215.839844 Z M 971.363281 208.796875 L 971.363281 210.289062 L 993.25 210.289062 L 993.25 208.796875 Z M 971.363281 203.460938 L 971.363281 204.953125 L 987.023438 204.953125 L 987.023438 203.460938 Z M 987.023438 194.269531 L 987.023438 192.777344 L 971.363281 192.777344 L 971.363281 194.269531 Z M 971.363281 198.117188 L 971.363281 199.613281 L 1001.96875 199.613281 L 1001.96875 198.117188 Z M 993.25 226.515625 L 971.363281 226.515625 L 971.363281 228.007812 L 993.25 228.007812 Z M 964.335938 105.480469 L 922.738281 105.480469 L 922.738281 140.664062 L 964.335938 140.664062 Z M 923.484375 185 L 923.484375 186.492188 L 957.488281 186.492188 L 957.488281 185 Z M 923.484375 179.84375 L 923.484375 181.335938 L 945.371094 181.335938 L 945.371094 179.84375 Z M 923.484375 174.503906 L 923.484375 175.996094 L 939.140625 175.996094 L 939.140625 174.503906 Z M 942.519531 174.503906 L 942.519531 175.996094 L 957.488281 175.996094 L 957.488281 174.503906 Z M 923.484375 169.160156 L 923.484375 170.65625 L 954.089844 170.65625 L 954.089844 169.160156 Z M 923.484375 162.125 L 923.484375 163.617188 L 945.371094 163.617188 L 945.371094 162.125 Z M 923.484375 156.78125 L 923.484375 158.273438 L 939.140625 158.273438 L 939.140625 156.78125 Z M 923.484375 151.445312 L 923.484375 152.941406 L 954.089844 152.941406 L 954.089844 151.445312 Z M 942.519531 156.78125 L 942.519531 158.273438 L 961.566406 158.273438 L 961.566406 156.78125 Z M 954.089844 145.585938 L 923.484375 145.585938 L 923.484375 147.078125 L 954.089844 147.078125 Z M 964.335938 192.777344 L 922.738281 192.777344 L 922.738281 227.304688 L 964.335938 227.304688 Z M 972.375 140.664062 L 1002.984375 140.664062 L 1002.984375 139.171875 L 972.375 139.171875 Z M 972.375 135.371094 L 994.265625 135.371094 L 994.265625 133.878906 L 972.375 133.878906 Z M 972.375 130.03125 L 988.039062 130.03125 L 988.039062 128.535156 L 972.375 128.535156 Z M 991.414062 128.535156 L 991.414062 130.03125 L 1006.382812 130.03125 L 1006.382812 128.535156 Z M 972.375 124.695312 L 1002.984375 124.695312 L 1002.984375 123.203125 L 972.375 123.203125 Z M 972.375 117.652344 L 994.265625 117.652344 L 994.265625 116.15625 L 972.375 116.15625 Z M 972.375 112.308594 L 988.039062 112.308594 L 988.039062 110.816406 L 972.375 110.816406 Z M 991.414062 110.816406 L 991.414062 112.308594 L 1010.457031 112.308594 L 1010.457031 110.816406 Z M 972.375 106.972656 L 1002.984375 106.972656 L 1002.984375 105.480469 L 972.375 105.480469 Z M 1021.160156 95.9375 L 1021.160156 236.847656 L 910.496094 236.847656 L 910.496094 95.9375 Z M 1010.726562 147.078125 L 972.109375 147.078125 L 972.109375 185.699219 L 1010.726562 185.699219 Z M 962.84375 106.972656 L 924.230469 106.972656 L 924.230469 139.171875 L 962.84375 139.171875 Z M 635.925781 659.171875 L 639.597656 668.296875 C 639.34375 667.769531 639.039062 667.253906 638.636719 666.8125 L 626.515625 653.355469 C 625.144531 651.832031 623.394531 650.6875 621.445312 650.054688 L 601.007812 643.359375 C 596.660156 641.9375 591.878906 643.167969 588.765625 646.519531 L 572.707031 663.792969 L 464.761719 660.636719 L 479.390625 631.097656 L 476.9375 625.339844 C 467.191406 602.523438 446.5 586.238281 422.03125 582.128906 C 422.03125 582.128906 386.152344 665.5 388.585938 674.414062 C 391.015625 683.332031 396.691406 708.683594 425.863281 708.683594 C 446.878906 708.683594 528.035156 700.398438 571.765625 695.761719 C 576.1875 697.617188 583.050781 699.511719 591.558594 698.636719 C 606.828125 697.058594 608.800781 694.421875 608.800781 694.421875 L 621.183594 697.613281 C 624.019531 698.339844 626.976562 697 628.296875 694.394531 L 629.414062 692.210938 C 630.09375 690.871094 631.429688 689.984375 632.933594 689.886719 L 633.6875 689.832031 C 638.757812 689.5 642.03125 684.324219 640.160156 679.597656 L 640.199219 670.910156 C 640.207031 670.257812 640.082031 669.621094 639.882812 669.015625 L 639.890625 669.035156 C 645.539062 669.390625 649.941406 666.265625 646.449219 663.046875 C 644.308594 661.078125 639.808594 659.878906 635.925781 659.171875 Z M 629.949219 546.863281 C 629.949219 539.023438 623.574219 532.652344 615.738281 532.652344 C 607.902344 532.652344 601.523438 539.023438 601.523438 546.863281 C 601.523438 554.699219 607.902344 561.070312 615.738281 561.070312 C 623.574219 561.070312 629.949219 554.699219 629.949219 546.863281 Z M 572.035156 375.050781 C 571.589844 374.972656 571.148438 374.890625 570.707031 374.792969 C 566.578125 383.65625 566.417969 393.8125 566.992188 403.570312 C 567.5625 413.332031 568.78125 423.183594 567.148438 432.824219 C 566.960938 433.921875 566.722656 435.015625 566.449219 436.101562 C 567.441406 434.492188 568.257812 432.769531 568.855469 430.976562 C 570.996094 424.484375 570.84375 417.476562 570.675781 410.554688 C 570.570312 403.597656 570.613281 396.625 570.957031 389.667969 C 571.183594 384.789062 571.550781 379.914062 572.035156 375.050781 Z M 605.738281 370.375 C 608.765625 368.425781 611.050781 365.421875 613.066406 362.34375 C 608.851562 366.058594 603.410156 368.191406 597.785156 367.421875 C 595.726562 369.191406 593.5 370.695312 591.160156 371.917969 C 592.488281 372.152344 593.820312 372.363281 595.15625 372.472656 C 598.871094 372.828125 602.695312 372.402344 605.738281 370.375 Z M 678.539062 345.777344 C 677.144531 343.488281 676.089844 340.960938 675.402344 338.378906 C 673.828125 332.5 673.828125 326.332031 673.839844 320.242188 C 673.84375 317.824219 673.761719 315.242188 673.320312 312.816406 C 672.648438 312.4375 671.96875 312.085938 671.261719 311.8125 C 670.246094 311.425781 669.210938 311.117188 668.140625 310.949219 C 667.082031 310.757812 665.996094 310.699219 664.910156 310.722656 C 663.820312 310.757812 662.730469 310.925781 661.632812 311.171875 C 661.476562 311.210938 661.324219 311.113281 661.285156 310.960938 C 661.261719 310.832031 661.320312 310.710938 661.417969 310.644531 C 662.4375 310.035156 663.597656 309.660156 664.785156 309.46875 C 665.972656 309.265625 667.199219 309.292969 668.386719 309.472656 C 669.578125 309.679688 670.75 310.039062 671.808594 310.609375 C 672.230469 310.832031 672.621094 311.09375 673.003906 311.371094 C 672.679688 310.121094 672.234375 308.945312 671.628906 307.871094 C 671.40625 307.816406 671.179688 307.765625 670.957031 307.726562 C 670.253906 307.601562 669.554688 307.492188 668.847656 307.449219 C 668.140625 307.390625 667.4375 307.402344 666.71875 307.425781 C 666 307.457031 665.285156 307.550781 664.53125 307.644531 C 664.375 307.660156 664.222656 307.550781 664.207031 307.390625 C 664.1875 307.277344 664.246094 307.171875 664.328125 307.105469 C 664.992188 306.65625 665.75 306.367188 666.539062 306.179688 C 667.320312 305.980469 668.136719 305.929688 668.941406 305.964844 C 669.460938 306 669.972656 306.09375 670.472656 306.214844 C 670.128906 305.8125 669.746094 305.433594 669.324219 305.082031 C 668.28125 304.957031 667.242188 304.925781 666.230469 305.058594 C 665.15625 305.207031 664.105469 305.460938 663.117188 305.875 C 662.113281 306.273438 661.179688 306.820312 660.304688 307.460938 C 659.4375 308.117188 658.667969 308.902344 657.976562 309.792969 C 657.878906 309.921875 657.699219 309.945312 657.570312 309.851562 C 657.472656 309.777344 657.4375 309.636719 657.476562 309.519531 C 658.3125 307.242188 660.292969 305.4375 662.542969 304.5 C 663.6875 304.035156 664.90625 303.75 666.136719 303.742188 C 666.449219 303.738281 666.761719 303.75 667.070312 303.769531 C 662.316406 302.058594 655.53125 304.925781 654.175781 309.789062 C 653.78125 305.472656 650.351562 301.753906 646.242188 300.5625 C 646.578125 300.832031 646.921875 301.09375 647.238281 301.398438 C 648.152344 302.308594 648.945312 303.339844 649.527344 304.484375 C 650.117188 305.625 650.53125 306.855469 650.660156 308.117188 C 650.671875 308.273438 650.5625 308.414062 650.398438 308.429688 C 650.269531 308.441406 650.152344 308.367188 650.105469 308.253906 C 649.640625 307.140625 649.097656 306.09375 648.445312 305.125 C 647.78125 304.167969 647.046875 303.265625 646.199219 302.464844 C 645.371094 301.660156 644.445312 300.960938 643.460938 300.335938 C 643.367188 300.277344 643.265625 300.230469 643.171875 300.179688 C 643.027344 300.183594 642.882812 300.179688 642.734375 300.191406 C 641.460938 300.296875 640.253906 300.628906 639.109375 301.128906 C 639.917969 301.199219 640.722656 301.355469 641.5 301.597656 C 643.984375 302.390625 646.257812 304.105469 647.402344 306.425781 C 647.472656 306.566406 647.414062 306.738281 647.273438 306.808594 C 647.15625 306.867188 647.015625 306.832031 646.929688 306.746094 C 646.105469 305.851562 645.207031 305.082031 644.21875 304.464844 C 643.21875 303.851562 642.164062 303.351562 641.050781 303.019531 C 639.949219 302.667969 638.792969 302.484375 637.632812 302.425781 C 637.34375 302.414062 637.058594 302.441406 636.765625 302.453125 C 636.019531 302.964844 635.300781 303.542969 634.625 304.179688 C 635.035156 304.144531 635.441406 304.132812 635.84375 304.140625 C 636.625 304.171875 637.40625 304.261719 638.152344 304.472656 C 638.90625 304.664062 639.640625 304.933594 640.316406 305.335938 C 640.449219 305.414062 640.496094 305.597656 640.414062 305.738281 C 640.355469 305.835938 640.253906 305.882812 640.140625 305.875 L 637.953125 305.714844 C 637.230469 305.679688 636.527344 305.632812 635.816406 305.632812 C 635.101562 305.613281 634.390625 305.636719 633.675781 305.648438 L 633.171875 305.671875 C 632.058594 306.921875 631.054688 308.277344 630.171875 309.65625 C 626.257812 315.695312 622.859375 322.335938 622.980469 329.539062 C 623.132812 338.285156 622.671875 347.363281 618.675781 355.148438 C 617.996094 356.488281 617.171875 357.753906 616.257812 358.945312 C 615.640625 360.25 614.984375 361.539062 614.25 362.792969 C 612.292969 366.128906 609.882812 369.335938 606.542969 371.609375 C 603.132812 373.902344 598.859375 374.269531 595.019531 373.808594 C 593.132812 373.582031 591.289062 373.195312 589.476562 372.742188 C 587.535156 373.621094 585.523438 374.316406 583.464844 374.78125 C 584.140625 376.949219 584.910156 379.085938 585.785156 381.179688 C 587.660156 385.667969 589.960938 389.976562 592.699219 393.996094 C 595.382812 398.046875 598.523438 401.796875 601.972656 405.230469 C 605.429688 408.652344 609.21875 411.757812 613.308594 414.445312 C 613.441406 414.53125 613.476562 414.707031 613.386719 414.839844 C 613.308594 414.964844 613.144531 415.003906 613.007812 414.929688 C 608.71875 412.496094 604.707031 409.535156 601.097656 406.136719 C 597.476562 402.746094 594.273438 398.921875 591.464844 394.828125 C 588.710938 390.699219 586.355469 386.296875 584.558594 381.675781 C 583.707031 379.492188 582.984375 377.261719 582.386719 374.996094 C 579.28125 375.582031 576.09375 375.667969 572.886719 375.195312 C 572.59375 380.035156 572.355469 384.875 572.214844 389.714844 C 572.027344 396.652344 571.976562 403.585938 572.164062 410.527344 C 572.273438 417.4375 572.464844 424.636719 570.105469 431.40625 C 569.0625 434.316406 567.492188 437.035156 565.46875 439.371094 C 563.578125 444.863281 560.484375 449.9375 556.140625 453.519531 C 563.085938 465.140625 571.121094 476.171875 581.339844 485 C 593.25 495.28125 608.449219 502.394531 624.183594 502.214844 C 627.804688 502.167969 631.503906 501.71875 634.71875 500.054688 C 637.929688 498.386719 640.585938 495.328125 640.992188 491.730469 C 641.597656 486.316406 637.238281 481.695312 632.871094 478.445312 C 628.503906 475.199219 621.136719 472.003906 621.464844 466.574219 C 622.363281 451.84375 623.0625 436.828125 623.960938 422.101562 C 631.582031 424.980469 640.023438 427.875 647.65625 425.039062 C 654.5625 422.472656 659.011719 415.839844 662.457031 409.332031 C 672.789062 389.835938 678.277344 367.832031 678.539062 345.777344 Z M 497.636719 321.796875 L 464.90625 321.796875 L 464.90625 238.351562 C 464.40625 239.152344 463.902344 239.9375 463.414062 240.742188 L 463.414062 323.289062 L 497.519531 323.289062 C 497.5625 322.785156 497.578125 322.289062 497.636719 321.796875 Z M 577.796875 251.753906 C 578.285156 251.523438 578.785156 251.328125 579.289062 251.117188 L 579.289062 150.410156 L 536.804688 150.410156 C 536.265625 150.90625 535.742188 151.40625 535.210938 151.902344 L 577.796875 151.902344 Z M 695.761719 275.042969 C 696.164062 275.53125 696.554688 276.027344 696.929688 276.535156 L 730.878906 276.535156 L 730.878906 103.65625 L 615.003906 103.65625 L 615.003906 246.882812 C 615.503906 246.972656 616 247.085938 616.496094 247.199219 L 616.496094 105.148438 L 729.386719 105.148438 L 729.386719 275.042969 Z M 610.527344 246.21875 L 610.527344 99.175781 L 735.355469 99.175781 L 735.355469 281.011719 L 699.84375 281.011719 C 700.125 281.507812 700.40625 282.003906 700.667969 282.503906 L 736.847656 282.503906 L 736.847656 97.683594 L 612.640625 97.683594 C 611.433594 98.269531 610.226562 98.851562 609.03125 99.453125 L 609.03125 246.078125 C 609.339844 246.101562 609.644531 246.109375 609.953125 246.136719 C 610.144531 246.160156 610.332031 246.195312 610.527344 246.21875 Z M 583.8125 249.351562 C 584.308594 249.175781 584.808594 249.011719 585.304688 248.847656 L 585.304688 144.4375 L 543.398438 144.4375 C 542.839844 144.933594 542.289062 145.433594 541.738281 145.929688 L 583.8125 145.929688 Z M 497.449219 329.257812 L 457.488281 329.257812 L 457.488281 250.65625 C 457.992188 249.804688 458.480469 248.949219 458.984375 248.097656 L 458.984375 327.765625 L 497.386719 327.765625 C 497.398438 328.261719 497.421875 328.757812 497.449219 329.257812 " fill-opacity="1" fill-rule="nonzero"/><g clip-path="url(#b38edbde03)"><path fill="#4e46e5" d="M 615.191406 694.175781 C 614.570312 693.566406 613.964844 692.941406 613.421875 692.269531 C 612.863281 691.609375 612.367188 690.90625 611.878906 690.183594 C 611.394531 689.449219 610.96875 688.683594 610.527344 687.886719 C 610.472656 687.785156 610.363281 687.722656 610.238281 687.738281 C 610.082031 687.757812 609.964844 687.898438 609.984375 688.058594 C 610.089844 689 610.378906 689.914062 610.769531 690.785156 C 610.933594 691.15625 611.132812 691.511719 611.339844 691.863281 C 611.253906 691.933594 611.160156 691.996094 611.085938 692.070312 C 610.789062 692.382812 610.589844 692.765625 610.449219 693.164062 C 610.332031 693.558594 610.257812 693.972656 610.304688 694.394531 C 610.339844 694.800781 610.4375 695.214844 610.675781 695.566406 C 610.71875 695.617188 610.769531 695.65625 610.835938 695.679688 C 610.996094 695.738281 611.171875 695.65625 611.238281 695.496094 L 611.242188 695.472656 C 611.371094 695.121094 611.453125 694.808594 611.558594 694.507812 C 611.667969 694.210938 611.75 693.925781 611.859375 693.644531 C 611.9375 693.425781 612.023438 693.214844 612.113281 692.992188 C 612.164062 693.0625 612.210938 693.144531 612.269531 693.214844 C 612.882812 693.957031 613.5625 694.632812 614.34375 695.191406 C 615.113281 695.746094 615.949219 696.222656 616.859375 696.515625 C 616.984375 696.554688 617.136719 696.515625 617.230469 696.40625 C 617.347656 696.257812 617.332031 696.042969 617.179688 695.921875 C 616.492188 695.34375 615.8125 694.785156 615.191406 694.175781 Z M 632.414062 670.386719 C 633.839844 671.917969 635.148438 673.558594 636.445312 675.207031 C 637.734375 676.863281 638.957031 678.574219 640.171875 680.304688 C 640.253906 680.414062 640.398438 680.457031 640.527344 680.398438 C 640.671875 680.328125 640.730469 680.160156 640.667969 680.019531 C 639.757812 678.082031 638.660156 676.242188 637.464844 674.46875 C 636.269531 672.691406 634.921875 671.023438 633.527344 669.394531 C 632.082031 667.816406 630.578125 666.28125 628.957031 664.882812 C 627.335938 663.480469 625.632812 662.175781 623.820312 661.046875 C 623.6875 660.957031 623.5 660.980469 623.390625 661.109375 C 623.265625 661.25 623.277344 661.464844 623.417969 661.585938 C 625 662.988281 626.566406 664.386719 628.066406 665.855469 C 629.570312 667.3125 631.039062 668.804688 632.414062 670.386719 Z M 609.074219 693.046875 C 609.003906 692.847656 608.933594 692.648438 608.8125 692.460938 C 608.699219 692.269531 608.578125 692.070312 608.367188 691.878906 L 608.351562 691.867188 C 608.328125 691.84375 608.296875 691.820312 608.261719 691.804688 C 608.058594 691.699219 607.800781 691.78125 607.703125 691.984375 C 607.5625 692.253906 607.535156 692.519531 607.535156 692.777344 C 607.523438 693.039062 607.585938 693.289062 607.667969 693.535156 C 607.765625 693.769531 607.871094 694.003906 608.054688 694.195312 C 608.222656 694.398438 608.414062 694.578125 608.695312 694.703125 C 608.71875 694.714844 608.746094 694.726562 608.777344 694.726562 C 608.96875 694.761719 609.15625 694.632812 609.191406 694.4375 L 609.191406 694.425781 C 609.242188 694.140625 609.226562 693.910156 609.203125 693.679688 C 609.195312 693.453125 609.132812 693.25 609.074219 693.046875 Z M 467.777344 660.746094 C 463.59375 659.988281 459.34375 659.621094 455.082031 659.5625 C 450.820312 659.511719 446.554688 659.820312 442.335938 660.390625 C 438.117188 661.027344 433.9375 661.90625 429.863281 663.148438 C 425.785156 664.386719 421.808594 665.925781 418.003906 667.816406 C 417.875 667.878906 417.808594 668.035156 417.863281 668.175781 C 417.921875 668.320312 418.089844 668.390625 418.234375 668.332031 C 422.160156 666.789062 426.148438 665.441406 430.210938 664.363281 C 434.269531 663.285156 438.382812 662.410156 442.542969 661.867188 C 446.695312 661.253906 450.890625 660.957031 455.085938 660.886719 C 459.285156 660.8125 463.488281 661.011719 467.683594 661.417969 C 467.855469 661.4375 468.019531 661.3125 468.050781 661.136719 C 468.085938 660.957031 467.960938 660.78125 467.777344 660.746094 Z M 571.003906 695.238281 C 568.453125 693.773438 566.898438 690.636719 567.265625 687.535156 C 567.28125 687.378906 567.1875 687.21875 567.03125 687.167969 C 566.851562 687.109375 566.664062 687.207031 566.605469 687.390625 C 565.773438 689.96875 566.554688 692.941406 568.414062 695 C 567.40625 694.839844 566.40625 694.566406 565.476562 694.160156 C 563.871094 693.460938 562.40625 692.335938 561.695312 690.695312 C 561.644531 690.574219 561.507812 690.496094 561.375 690.527344 C 561.222656 690.554688 561.117188 690.707031 561.148438 690.863281 C 561.335938 691.84375 561.871094 692.75 562.53125 693.507812 C 563.210938 694.246094 564.027344 694.847656 564.902344 695.324219 C 566.664062 696.253906 568.652344 696.71875 570.671875 696.625 C 570.914062 696.609375 571.152344 696.472656 571.28125 696.253906 C 571.488281 695.890625 571.359375 695.441406 571.003906 695.238281 Z M 688.847656 467.535156 C 688.125 467.96875 687.4375 468.40625 686.730469 468.789062 C 686.015625 469.167969 685.308594 469.546875 684.578125 469.867188 C 683.855469 470.207031 683.109375 470.492188 682.359375 470.777344 C 681.601562 471.058594 680.824219 471.292969 680.03125 471.554688 C 679.902344 471.59375 679.804688 471.710938 679.792969 471.851562 C 679.773438 472.039062 679.914062 472.207031 680.101562 472.222656 C 680.976562 472.3125 681.851562 472.222656 682.714844 472.050781 C 683.570312 471.886719 684.40625 471.589844 685.203125 471.222656 C 685.996094 470.84375 686.753906 470.394531 687.4375 469.839844 C 688.113281 469.292969 688.742188 468.671875 689.238281 467.949219 C 689.304688 467.863281 689.308594 467.734375 689.25 467.636719 C 689.164062 467.5 688.980469 467.453125 688.847656 467.535156 Z M 642.847656 407.296875 C 642.308594 407.273438 641.785156 407.289062 641.253906 407.289062 C 640.730469 407.300781 640.207031 407.296875 639.667969 407.324219 C 639.132812 407.347656 638.589844 407.359375 638.03125 407.4375 C 637.9375 407.449219 637.851562 407.503906 637.804688 407.59375 C 637.722656 407.734375 637.773438 407.917969 637.917969 407.996094 C 638.433594 408.285156 638.988281 408.457031 639.546875 408.585938 C 640.105469 408.71875 640.683594 408.765625 641.253906 408.777344 C 641.832031 408.777344 642.410156 408.742188 642.96875 408.613281 C 643.535156 408.492188 644.089844 408.332031 644.609375 408.046875 C 644.699219 407.996094 644.777344 407.894531 644.789062 407.78125 C 644.8125 407.585938 644.671875 407.40625 644.480469 407.382812 C 643.914062 407.3125 643.378906 407.3125 642.847656 407.296875 Z M 644.308594 395.109375 L 635.714844 394.59375 L 628.707031 394.082031 C 630.25 395.871094 632.246094 397.335938 634.367188 398.496094 C 635.667969 399.203125 637.035156 399.796875 638.445312 400.261719 C 639.820312 400.722656 641.378906 401.042969 642.707031 401.148438 L 642.804688 401.15625 C 645.261719 400.046875 647.628906 398.367188 649.527344 396.398438 C 649.761719 396.164062 650.042969 395.867188 650.210938 395.65625 C 650.277344 395.574219 650.304688 395.503906 650.324219 395.464844 C 650.257812 395.433594 650 395.390625 649.679688 395.390625 L 648.601562 395.335938 C 647.171875 395.273438 645.738281 395.195312 644.308594 395.109375 Z M 635.816406 393.113281 L 644.398438 393.746094 C 645.832031 393.84375 647.261719 393.960938 648.691406 394.089844 L 649.761719 394.183594 C 650.089844 394.238281 650.574219 394.160156 651.136719 394.613281 C 651.425781 394.859375 651.546875 395.308594 651.464844 395.644531 C 651.390625 395.976562 651.238281 396.183594 651.097656 396.355469 C 650.800781 396.6875 650.574219 396.90625 650.292969 397.171875 C 648.148438 399.21875 645.65625 400.722656 642.816406 401.761719 L 642.707031 401.804688 C 641.0625 401.773438 639.667969 401.503906 638.1875 401.109375 C 636.707031 400.695312 635.261719 400.140625 633.871094 399.464844 C 632.492188 398.777344 631.160156 397.972656 629.925781 397.019531 C 628.6875 396.070312 627.535156 394.988281 626.609375 393.667969 C 626.386719 393.359375 626.460938 392.929688 626.769531 392.710938 C 626.90625 392.617188 627.054688 392.578125 627.207031 392.589844 L 627.226562 392.589844 Z M 651.085938 386.210938 C 652.046875 386.414062 653.074219 386.15625 653.925781 385.691406 C 654.777344 385.195312 655.484375 384.480469 655.996094 383.628906 C 657.011719 381.914062 657.121094 379.917969 657.011719 378.109375 C 656.871094 376.296875 656.550781 374.5 655.984375 372.78125 C 655.4375 371.0625 654.695312 369.398438 653.722656 367.894531 C 653.644531 367.785156 653.507812 367.730469 653.378906 367.785156 C 653.226562 367.84375 653.15625 368.007812 653.214844 368.152344 C 653.84375 369.789062 654.386719 371.433594 654.769531 373.121094 C 655.148438 374.800781 655.425781 376.5 655.523438 378.203125 C 655.640625 379.894531 655.523438 381.582031 654.835938 382.992188 C 654.152344 384.363281 652.765625 385.527344 651.15625 385.539062 C 651 385.539062 650.851562 385.652344 650.824219 385.808594 C 650.78125 385.988281 650.898438 386.167969 651.085938 386.210938 Z M 616.90625 343.246094 C 619.039062 342.53125 621.214844 341.988281 623.417969 341.679688 C 625.621094 341.375 627.847656 341.242188 630.066406 341.394531 C 632.28125 341.480469 634.484375 341.84375 636.644531 342.378906 C 638.800781 342.910156 640.898438 343.679688 642.953125 344.605469 C 643.097656 344.675781 643.285156 344.628906 643.371094 344.484375 C 643.476562 344.332031 643.4375 344.121094 643.277344 344.015625 C 641.347656 342.746094 639.214844 341.789062 637 341.109375 C 634.777344 340.417969 632.460938 340.050781 630.140625 339.90625 C 627.816406 339.832031 625.476562 339.964844 623.207031 340.441406 C 620.933594 340.910156 618.71875 341.648438 616.675781 342.722656 C 616.554688 342.785156 616.496094 342.933594 616.539062 343.066406 C 616.589844 343.21875 616.753906 343.300781 616.90625 343.246094 Z M 663.203125 347.632812 C 664.3125 346.71875 665.464844 345.917969 666.707031 345.269531 C 667.945312 344.636719 669.238281 344.117188 670.578125 343.765625 C 671.914062 343.398438 673.289062 343.195312 674.679688 343.125 C 676.070312 343.054688 677.472656 343.164062 678.875 343.394531 C 679.027344 343.417969 679.1875 343.339844 679.25 343.1875 C 679.324219 343.019531 679.246094 342.816406 679.070312 342.746094 C 677.691406 342.15625 676.1875 341.867188 674.679688 341.800781 C 673.167969 341.730469 671.644531 341.929688 670.183594 342.328125 C 668.730469 342.738281 667.320312 343.347656 666.066406 344.1875 C 664.804688 345.015625 663.664062 346.035156 662.789062 347.242188 C 662.714844 347.347656 662.714844 347.492188 662.800781 347.597656 C 662.898438 347.71875 663.085938 347.730469 663.203125 347.632812 Z M 1075.578125 410.886719 L 763.125 410.886719 C 759.941406 410.886719 757.21875 413.160156 756.652344 416.296875 L 714.183594 652.609375 C 713.453125 656.640625 716.550781 660.34375 720.652344 660.34375 L 887.34375 660.34375 L 892.113281 681.347656 C 892.734375 684.046875 893.402344 686.738281 894.03125 689.429688 L 815.707031 689.429688 L 787.3125 705.167969 L 897.769531 705.167969 C 897.773438 705.191406 897.78125 705.222656 897.785156 705.246094 C 897.828125 705.417969 898 705.53125 898.183594 705.496094 C 898.363281 705.460938 898.480469 705.277344 898.445312 705.097656 C 896.8125 697.074219 895.136719 689.0625 893.402344 681.0625 L 888.128906 657.085938 L 882.664062 633.144531 C 880.824219 625.191406 878.921875 617.253906 876.988281 609.324219 L 924.871094 609.324219 C 924.871094 609.339844 924.859375 609.359375 924.859375 609.382812 C 926.484375 617.40625 928.152344 625.421875 929.878906 633.421875 L 935.121094 657.40625 L 940.5625 681.347656 C 942.398438 689.324219 944.292969 697.289062 946.230469 705.246094 C 946.269531 705.417969 946.445312 705.53125 946.625 705.496094 C 946.785156 705.464844 946.871094 705.320312 946.878906 705.167969 L 986.832031 705.167969 L 959.179688 689.429688 L 943.605469 689.429688 C 943.015625 686.644531 942.453125 683.851562 941.851562 681.0625 L 937.296875 660.34375 L 1033.105469 660.34375 C 1036.285156 660.34375 1039.011719 658.066406 1039.574219 654.933594 L 1082.046875 418.621094 C 1082.777344 414.589844 1079.671875 410.886719 1075.578125 410.886719 Z M 692.597656 472.222656 C 696.742188 480.300781 700.671875 488.503906 706.085938 495.152344 C 713.652344 504.445312 721.660156 513.390625 730.0625 521.945312 L 731.910156 511.664062 C 721.792969 502.0625 712.085938 492.171875 706.042969 484.382812 C 702.578125 479.914062 697.886719 475.855469 692.597656 472.222656 Z M 651.390625 589.085938 C 651.390625 588.960938 651.3125 588.84375 651.191406 588.804688 C 651.039062 588.757812 650.875 588.839844 650.828125 588.992188 L 649.78125 592.214844 C 649.40625 593.277344 649.050781 594.339844 648.644531 595.375 C 648.253906 596.425781 647.820312 597.453125 647.394531 598.488281 L 646.042969 601.597656 C 645.988281 601.730469 646.019531 601.894531 646.140625 601.992188 C 646.28125 602.117188 646.496094 602.097656 646.621094 601.953125 C 647.378906 601.066406 648.007812 600.085938 648.578125 599.074219 C 649.15625 598.058594 649.628906 596.992188 650.035156 595.902344 C 650.433594 594.804688 650.777344 593.691406 650.992188 592.542969 C 651.226562 591.40625 651.382812 590.25 651.390625 589.085938 Z M 528.757812 507.753906 C 528.898438 499.5 527.207031 491.179688 523.507812 483.789062 C 521.648438 480.101562 519.292969 476.648438 516.40625 473.6875 C 513.515625 470.75 510.089844 468.3125 506.332031 466.648438 C 506.191406 466.585938 506.023438 466.644531 505.957031 466.785156 C 505.886719 466.925781 505.945312 467.09375 506.089844 467.164062 C 513.398438 470.707031 518.929688 477.128906 522.378906 484.339844 C 525.828125 491.59375 527.480469 499.695312 527.269531 507.71875 C 527.105469 515.78125 525.339844 523.746094 522.886719 531.457031 C 520.425781 539.183594 517.28125 546.691406 514.136719 554.207031 C 514.070312 554.371094 514.144531 554.570312 514.3125 554.644531 C 514.480469 554.722656 514.679688 554.644531 514.757812 554.476562 C 518.183594 547.089844 521.542969 539.636719 524.136719 531.871094 C 526.738281 524.113281 528.539062 516.003906 528.757812 507.753906 Z M 511.160156 566.9375 C 511.019531 566.855469 510.84375 566.898438 510.761719 567.03125 C 509.769531 568.679688 508.859375 570.367188 507.964844 572.058594 C 507.066406 573.75 506.242188 575.480469 505.375 577.183594 C 504.570312 578.921875 503.734375 580.648438 502.960938 582.394531 C 502.191406 584.152344 501.433594 585.910156 500.761719 587.714844 C 500.710938 587.859375 500.769531 588.035156 500.90625 588.121094 C 501.070312 588.214844 501.28125 588.164062 501.375 588.003906 C 502.367188 586.355469 503.261719 584.664062 504.148438 582.96875 C 505.035156 581.269531 505.863281 579.542969 506.714844 577.832031 C 507.507812 576.085938 508.34375 574.367188 509.101562 572.605469 C 509.863281 570.851562 510.617188 569.082031 511.273438 567.28125 C 511.320312 567.152344 511.273438 567.007812 511.160156 566.9375 Z M 715.234375 594.332031 L 709 599.597656 C 701.945312 621.28125 684.324219 655.78125 684.324219 655.78125 L 684.324219 692.894531 L 649.496094 692.894531 L 639.890625 669.035156 C 645.539062 669.390625 649.941406 666.265625 646.449219 663.046875 C 644.308594 661.078125 639.808594 659.878906 635.917969 659.167969 L 620.152344 619.988281 C 622.46875 616.628906 624.617188 613.160156 626.5625 609.570312 C 629.5625 604.023438 632.089844 598.226562 634.207031 592.28125 C 636.257812 586.320312 637.914062 580.210938 639.023438 574.003906 C 640.148438 567.800781 640.753906 561.507812 640.824219 555.21875 C 640.824219 555.066406 640.707031 554.9375 640.554688 554.933594 C 640.398438 554.921875 640.265625 555.035156 640.253906 555.199219 C 639.855469 561.445312 639.023438 567.648438 637.785156 573.765625 C 636.539062 579.882812 634.90625 585.917969 632.800781 591.789062 C 630.757812 597.679688 628.25 603.410156 625.390625 608.949219 C 623.640625 612.339844 621.734375 615.644531 619.710938 618.878906 L 611.703125 598.984375 C 610.933594 597.042969 608.734375 596.09375 606.792969 596.863281 C 604.851562 597.632812 603.902344 599.832031 604.671875 601.773438 L 624.816406 651.835938 C 623.796875 651.066406 622.671875 650.457031 621.445312 650.054688 L 601.007812 643.359375 C 596.660156 641.9375 591.878906 643.167969 588.765625 646.519531 L 588.179688 647.148438 C 588.179688 647.148438 588.1875 647.148438 588.1875 647.148438 C 588.292969 647.253906 588.296875 647.417969 588.210938 647.527344 C 586.460938 649.8125 584.566406 651.984375 582.628906 654.113281 C 580.699219 656.242188 578.683594 658.285156 576.683594 660.34375 C 574.636719 662.355469 572.59375 664.378906 570.5 666.339844 C 568.402344 668.296875 566.292969 670.242188 564.109375 672.113281 C 563.964844 672.234375 563.753906 672.21875 563.632812 672.078125 C 563.519531 671.941406 563.519531 671.75 563.636719 671.628906 C 565.566406 669.5 567.574219 667.449219 569.578125 665.394531 L 571.210938 663.746094 L 519.457031 662.234375 L 501.023438 588.921875 L 479.390625 631.097656 L 476.9375 625.339844 C 467.191406 602.523438 446.5 586.238281 422.03125 582.128906 C 422.03125 582.128906 420.589844 585.480469 418.304688 590.910156 C 414.921875 584.617188 412.351562 577.703125 411.074219 570.109375 C 411.074219 570.109375 440.933594 483 481.742188 457.417969 C 490.375 453.164062 496.824219 453.214844 505.207031 454.007812 C 513.054688 454.75 520.738281 456.46875 528.476562 457.9375 C 535.851562 459.335938 543.777344 459.839844 550.628906 456.886719 L 614.425781 534.207031 C 608.019531 534.867188 603.015625 540.277344 603.015625 546.863281 C 603.015625 553.886719 608.710938 559.585938 615.738281 559.585938 C 622.765625 559.585938 628.457031 553.886719 628.457031 546.863281 C 628.457031 540.160156 623.273438 534.6875 616.695312 534.191406 C 618.828125 528.425781 633.25 487.519531 628.414062 448.089844 C 632.578125 448.324219 636.597656 448.832031 640.21875 449.738281 L 640.210938 449.726562 C 640.210938 449.726562 647 451.4375 656.410156 454.753906 C 655.675781 456.820312 655.191406 458.882812 655.097656 460.84375 C 655.09375 460.953125 655.085938 461.058594 655.085938 461.167969 C 655.074219 461.601562 655.082031 462.027344 655.109375 462.445312 C 655.117188 462.519531 655.128906 462.597656 655.132812 462.671875 C 655.167969 463.050781 655.226562 463.425781 655.296875 463.796875 C 655.3125 463.867188 655.324219 463.949219 655.34375 464.027344 C 655.429688 464.429688 655.546875 464.824219 655.6875 465.210938 C 655.714844 465.296875 655.75 465.382812 655.785156 465.464844 C 655.945312 465.863281 656.113281 466.253906 656.328125 466.632812 C 656.324219 466.625 656.3125 466.625 656.300781 466.625 C 668.585938 494.042969 680.867188 521.460938 693.152344 548.878906 C 694.453125 551.792969 695.761719 554.710938 697.082031 557.621094 C 697.308594 558.121094 697.535156 558.628906 697.769531 559.128906 C 699.085938 562.039062 700.421875 564.9375 701.773438 567.835938 C 702.007812 568.332031 702.242188 568.828125 702.476562 569.324219 C 703.855469 572.253906 705.261719 575.175781 706.695312 578.082031 C 706.855469 578.402344 707.015625 578.714844 707.175781 579.039062 C 708.515625 581.730469 709.886719 584.40625 711.292969 587.066406 C 712.574219 589.503906 713.878906 591.929688 715.234375 594.332031 Z M 620.152344 619.988281 L 620.070312 619.777344 Z M 570.695312 419.511719 C 568.910156 418.828125 567.902344 418.410156 567.902344 418.410156 C 567.902344 418.445312 567.902344 418.480469 567.902344 418.507812 C 567.941406 419.679688 567.964844 420.847656 567.964844 422.011719 C 567.964844 422.230469 567.953125 422.445312 567.945312 422.660156 C 567.941406 423.652344 567.929688 424.636719 567.882812 425.621094 C 567.867188 426.113281 567.8125 426.601562 567.785156 427.09375 C 567.738281 427.804688 567.695312 428.515625 567.625 429.226562 C 567.503906 430.425781 567.347656 431.628906 567.148438 432.824219 C 566.960938 433.921875 566.722656 435.015625 566.449219 436.101562 C 567.441406 434.492188 568.257812 432.769531 568.855469 430.976562 C 570.074219 427.285156 570.535156 423.425781 570.695312 419.511719 Z M 626.921875 448.125 C 626.917969 448.082031 626.929688 448.046875 626.929688 448.007812 C 625.570312 447.957031 624.199219 447.921875 622.816406 447.921875 C 622.660156 446.246094 622.664062 445.214844 622.664062 445.214844 C 622.664062 445.214844 628.964844 440.316406 628.964844 436.363281 C 628.964844 432.414062 623.378906 432.148438 623.378906 432.148438 C 603.75 431.238281 581.257812 423.5 572.105469 420.054688 C 571.914062 423.886719 571.394531 427.710938 570.105469 431.40625 C 569.0625 434.316406 567.492188 437.035156 565.46875 439.371094 C 565.46875 439.378906 565.46875 439.382812 565.464844 439.390625 C 565.160156 440.269531 564.828125 441.140625 564.460938 441.992188 C 564.4375 442.042969 564.417969 442.089844 564.394531 442.136719 C 564.046875 442.945312 563.671875 443.738281 563.265625 444.507812 C 563.242188 444.5625 563.21875 444.613281 563.1875 444.660156 C 562.792969 445.414062 562.367188 446.136719 561.917969 446.851562 C 561.820312 447.015625 561.707031 447.175781 561.601562 447.335938 C 561.199219 447.957031 560.773438 448.554688 560.332031 449.140625 C 560.238281 449.253906 560.152344 449.378906 560.0625 449.496094 C 559.609375 450.058594 559.136719 450.609375 558.640625 451.140625 C 558.449219 451.347656 558.25 451.554688 558.046875 451.757812 C 557.554688 452.257812 557.050781 452.742188 556.519531 453.199219 C 556.296875 453.382812 556.070312 453.554688 555.847656 453.726562 C 555.433594 454.066406 555.003906 454.382812 554.566406 454.691406 C 554.300781 454.871094 554.039062 455.050781 553.765625 455.226562 C 553.199219 455.582031 552.625 455.921875 552.015625 456.230469 L 615.488281 533.152344 C 618.152344 525.816406 631.632812 486.21875 626.921875 448.125 Z M 631.125 360.636719 C 631.84375 358.210938 631.226562 355.890625 629.757812 355.457031 C 628.285156 355.019531 626.515625 356.640625 625.796875 359.066406 C 625.085938 361.492188 625.699219 363.808594 627.171875 364.246094 C 628.640625 364.675781 630.414062 363.0625 631.125 360.636719 Z M 667.890625 355.457031 C 666.421875 355.019531 664.648438 356.640625 663.9375 359.066406 C 663.21875 361.492188 663.839844 363.808594 665.308594 364.246094 C 666.777344 364.675781 668.550781 363.0625 669.265625 360.636719 C 669.980469 358.210938 669.367188 355.890625 667.890625 355.457031 Z M 694.554688 338.746094 C 694.382812 339.386719 694.246094 340.035156 694.152344 340.699219 C 693.71875 343.75 694.773438 346.851562 696.761719 348.921875 Z M 667.074219 399.691406 L 668.496094 406.261719 C 670.175781 402.011719 671.996094 397.820312 673.972656 393.699219 C 680.152344 394.542969 686.335938 395.136719 692.5 394.136719 C 694.28125 397.097656 691.746094 401.390625 689.046875 403.539062 C 686.339844 405.6875 682.800781 406.410156 679.40625 407.066406 C 679.914062 408.503906 680.359375 409.949219 680.789062 411.402344 C 680.484375 410.847656 680.175781 410.296875 679.839844 409.773438 C 679.761719 409.652344 679.605469 409.605469 679.476562 409.664062 C 679.332031 409.734375 679.265625 409.902344 679.335938 410.042969 C 680.539062 412.613281 681.523438 415.265625 682.230469 417.984375 C 682.929688 420.707031 683.414062 423.484375 683.558594 426.28125 C 683.773438 429.082031 683.664062 431.890625 683.3125 434.679688 C 682.976562 437.464844 682.339844 440.21875 681.488281 442.917969 C 681.4375 443.082031 681.511719 443.253906 681.671875 443.324219 C 681.839844 443.40625 682.042969 443.332031 682.117188 443.164062 C 683.324219 440.539062 684.136719 437.726562 684.621094 434.871094 C 685 432.636719 685.144531 430.367188 685.109375 428.101562 L 704.5 420.964844 C 703.734375 421.9375 703.015625 422.941406 702.40625 424.007812 C 701.628906 425.355469 700.953125 426.753906 700.46875 428.222656 C 700.421875 428.375 700.480469 428.539062 700.613281 428.625 C 700.777344 428.71875 700.988281 428.671875 701.085938 428.507812 C 701.875 427.214844 702.660156 425.941406 703.519531 424.71875 C 704.382812 423.5 705.269531 422.300781 706.222656 421.160156 C 706.570312 420.742188 706.929688 420.339844 707.292969 419.9375 L 711.789062 418.28125 L 711.273438 415.894531 C 711.6875 415.515625 712.101562 415.136719 712.527344 414.757812 C 712.621094 414.679688 712.648438 414.53125 712.585938 414.410156 C 712.511719 414.269531 712.339844 414.21875 712.203125 414.292969 C 711.8125 414.503906 711.449219 414.753906 711.074219 414.988281 L 710.796875 413.703125 C 710.101562 414.117188 709.488281 414.4375 709.058594 414.613281 C 704.523438 416.457031 699.140625 416.054688 694.925781 413.5625 C 692.742188 412.269531 690.703125 409.78125 691.625 407.417969 C 692.453125 405.3125 695.0625 404.675781 697.304688 404.332031 C 700.75 403.808594 704.1875 403.277344 707.636719 402.746094 C 707.886719 402.730469 708.144531 402.722656 708.394531 402.695312 C 709.617188 402.574219 710.84375 402.410156 712.050781 402.125 C 712.191406 402.089844 712.300781 401.964844 712.304688 401.808594 C 712.316406 401.621094 712.171875 401.457031 711.984375 401.453125 C 710.761719 401.382812 709.546875 401.390625 708.335938 401.378906 L 708.125 401.378906 L 707.4375 398.195312 C 706.988281 398.195312 706.582031 398.171875 706.242188 398.113281 C 700.855469 397.179688 695.730469 394.78125 691.566406 391.238281 C 690.101562 389.996094 688.714844 388.550781 688.101562 386.730469 C 687.484375 384.917969 687.84375 382.652344 689.371094 381.5 C 694.21875 382.613281 698.988281 384.007812 703.6875 385.621094 C 703.199219 385.382812 702.730469 385.097656 702.257812 384.824219 L 706.695312 387.191406 C 706.8125 387.253906 706.972656 387.226562 707.050781 387.113281 C 707.152344 386.992188 707.128906 386.8125 707.003906 386.71875 C 705.554688 385.550781 704.019531 384.496094 702.457031 383.488281 C 700.894531 382.472656 699.28125 381.550781 697.648438 380.664062 C 697.035156 380.34375 696.417969 380.035156 695.804688 379.726562 C 693.039062 376.9375 690.597656 373.730469 688.269531 370.578125 C 686.785156 368.566406 685.289062 365.707031 686.894531 363.785156 C 687.820312 362.660156 689.511719 362.433594 690.914062 362.835938 C 692.3125 363.242188 693.488281 364.164062 694.632812 365.074219 C 696.585938 366.617188 698.917969 368.152344 701.269531 369.738281 L 697.910156 354.234375 C 693.96875 355.574219 689.285156 355.054688 685.613281 352.945312 C 682.648438 351.246094 680.3125 348.707031 678.539062 345.777344 C 678.316406 364.269531 674.421875 382.722656 667.074219 399.691406 Z M 633.6875 689.832031 L 632.933594 689.886719 C 632.089844 689.945312 631.308594 690.269531 630.648438 690.765625 C 630.070312 689.792969 629.464844 688.835938 628.824219 687.910156 C 627.964844 686.648438 627.027344 685.453125 626.070312 684.277344 C 625.097656 683.109375 624.09375 681.964844 623.027344 680.886719 C 621.964844 679.804688 620.871094 678.746094 619.691406 677.785156 C 619.570312 677.6875 619.394531 677.679688 619.265625 677.78125 C 619.121094 677.890625 619.089844 678.105469 619.207031 678.253906 C 620.125 679.460938 621.089844 680.609375 622.046875 681.769531 L 624.921875 685.226562 L 627.820312 688.671875 C 628.5625 689.542969 629.308594 690.410156 630.058594 691.273438 C 629.808594 691.554688 629.585938 691.863281 629.414062 692.210938 L 629.0625 692.894531 L 641.34375 692.894531 L 639.003906 687.085938 C 637.757812 688.625 635.890625 689.6875 633.6875 689.832031 Z M 479.390625 631.101562 L 479.390625 631.097656 Z M 479.390625 631.101562 " fill-opacity="1" fill-rule="nonzero"/></g></svg>