<svg xmlns="http://www.w3.org/2000/svg" xmlns:xlink="http://www.w3.org/1999/xlink" width="1920" zoomAndPan="magnify" viewBox="0 0 1440 809.999993" height="1080" preserveAspectRatio="xMidYMid meet" version="1.0"><defs><filter x="0%" y="0%" width="100%" height="100%" id="7b13a433d9"><feColorMatrix values="0 0 0 0 1 0 0 0 0 1 0 0 0 0 1 0 0 0 1 0" color-interpolation-filters="sRGB"/></filter><clipPath id="412ef4dc4f"><path d="M 355 136 L 1134 136 L 1134 759.625 L 355 759.625 Z M 355 136 " clip-rule="nonzero"/></clipPath><clipPath id="3b1aabb479"><path d="M 363 52 L 794 52 L 794 759.625 L 363 759.625 Z M 363 52 " clip-rule="nonzero"/></clipPath><mask id="c4663682fa"><g filter="url(#7b13a433d9)"><rect x="-144" width="1728" fill="#000000" y="-80.999999" height="971.999992" fill-opacity="0.1"/></g></mask><clipPath id="83022f671e"><path d="M 1 1 L 427 1 L 427 457.839844 L 1 457.839844 Z M 1 1 " clip-rule="nonzero"/></clipPath><clipPath id="e97239e1d6"><rect x="0" width="428" y="0" height="458"/></clipPath><mask id="642c66107a"><g filter="url(#7b13a433d9)"><rect x="-144" width="1728" fill="#000000" y="-80.999999" height="971.999992" fill-opacity="0.2"/></g></mask><clipPath id="4d5c3e22e8"><rect x="0" width="115" y="0" height="100"/></clipPath></defs><g clip-path="url(#412ef4dc4f)"><path fill="#4e46e5" d="M 1133.90625 136.09375 C 1132.78125 138.15625 1128.636719 305.027344 1128.636719 305.027344 L 1078.882812 278.222656 L 951.960938 506.207031 L 862.128906 459.210938 L 760.539062 611.710938 L 677.308594 568.035156 L 582.40625 702.355469 L 478.226562 655.539062 C 464.054688 675.601562 437.570312 712.378906 407.945312 754.171875 L 363.671875 759.855469 L 355.644531 759.855469 C 389.085938 712.527344 426.324219 659.816406 452.792969 622.332031 L 464.964844 606 L 503.226562 623.1875 L 515.148438 616.734375 L 566.207031 651.492188 L 569.476562 652.960938 L 665.488281 517.125 L 670.078125 519.535156 L 734.695312 538.09375 L 751.570312 553.652344 L 849.015625 407.375 L 906.796875 427.820312 L 918.835938 443.871094 L 936.074219 452.886719 L 1044.238281 259.546875 L 995.175781 233.125 C 995.128906 233.109375 1135.011719 134.027344 1133.90625 136.09375 Z M 500.335938 355.953125 C 487.042969 367.164062 469.421875 377.847656 466.085938 381.828125 L 439.996094 356.382812 L 433.109375 408.382812 L 452.050781 420.355469 C 466.382812 429.421875 485.34375 425.242188 494.539062 410.992188 L 516.652344 376.757812 C 515.496094 375.289062 517.246094 368.371094 515.941406 366.703125 C 511.449219 361.003906 503.441406 359.914062 500.335938 355.953125 Z M 500.335938 355.953125 " fill-opacity="1" fill-rule="nonzero"/></g><g clip-path="url(#3b1aabb479)"><path fill="#1b1b1b" d="M 769.917969 273.699219 C 770.296875 273.535156 779.132812 326.90625 785.421875 365.183594 C 789.4375 389.671875 784.464844 414.789062 771.402344 435.910156 L 726.683594 508.734375 L 698.480469 504.65625 L 691.695312 486.292969 L 690.058594 485.234375 C 707.8125 451.714844 711.65625 405.261719 733.242188 381.070312 C 733.242188 381.070312 678.464844 276.488281 678.484375 276.539062 C 678.464844 276.539062 769.304688 273.964844 769.917969 273.699219 Z M 439.203125 759.835938 C 442.144531 756.1875 441.019531 750.773438 436.890625 748.574219 L 399.042969 728.460938 C 399.042969 728.460938 381.273438 717.449219 374.125 725.273438 C 366.972656 733.101562 364.429688 759.773438 363.671875 759.835938 Z M 788.03125 89.789062 L 790.476562 88.4375 C 791.136719 86.980469 792.308594 86.191406 792.6875 84.703125 C 795.695312 72.730469 789.601562 59.984375 777.792969 55.0625 C 765.90625 50.109375 750.710938 52.980469 744.007812 65.679688 C 731.6875 88.980469 743.546875 106.1875 743.546875 106.1875 C 743.710938 107.589844 744.667969 109.175781 745.644531 110.199219 C 747.804688 112.496094 750.644531 114.148438 753.734375 114.875 C 754.824219 115.136719 755.945312 115.269531 757.035156 115.089844 C 759.035156 114.757812 760.703125 113.355469 762.023438 111.835938 C 763.742188 109.835938 765.0625 107.542969 766.433594 105.296875 C 768.332031 102.207031 770.394531 99.167969 772.972656 96.625 C 775.546875 94.066406 778.703125 92.003906 782.21875 91.144531 C 782.402344 91.09375 782.617188 91.0625 782.78125 91.160156 C 782.964844 91.277344 783.027344 91.507812 783.144531 91.6875 C 783.574219 92.332031 784.566406 92.085938 785.273438 91.769531 C 785.933594 91.472656 786.578125 91.175781 787.238281 90.878906 C 787.539062 90.746094 787.867188 90.582031 788 90.269531 C 788.132812 89.953125 788.363281 89.789062 788.03125 89.789062 Z M 788.03125 89.789062 " fill-opacity="1" fill-rule="nonzero"/></g><path fill="#4e46e5" d="M 839.71875 402.917969 C 839.734375 402.75 840.957031 391.421875 849.992188 385.628906 C 849.992188 385.628906 861.136719 385.824219 875.636719 379.945312 L 892.84375 391.207031 L 915.003906 424.53125 C 919 430.542969 920.386719 437.910156 918.851562 444.960938 C 918.835938 444.976562 839.671875 403.609375 839.71875 402.917969 Z M 456.527344 284.8125 C 458.113281 283.953125 459.265625 282.105469 459.183594 280.1875 C 459.085938 277.777344 457.253906 275.878906 454.941406 275.597656 C 455.105469 275.070312 455.203125 274.507812 455.1875 273.914062 C 455.074219 271.238281 452.828125 269.160156 450.136719 269.273438 C 450.019531 266.597656 447.773438 264.519531 445.082031 264.632812 C 444.339844 264.667969 443.644531 264.882812 443.019531 265.210938 C 442.671875 262.785156 440.542969 260.96875 438.046875 261.066406 C 436.675781 261.117188 435.472656 261.742188 434.628906 262.683594 C 433.820312 261 432.054688 259.859375 430.054688 259.945312 C 428.253906 260.027344 426.753906 261.066406 425.976562 262.554688 C 425.050781 261.398438 423.597656 260.671875 422.011719 260.738281 C 419.703125 260.835938 417.851562 262.519531 417.457031 264.699219 C 416.664062 264.203125 415.703125 263.921875 414.699219 263.972656 C 412.039062 264.089844 409.992188 266.300781 410.058594 268.960938 C 409.480469 268.746094 408.835938 268.628906 408.175781 268.664062 C 405.5 268.777344 403.417969 271.023438 403.535156 273.714844 C 403.550781 274.195312 403.667969 274.625 403.796875 275.054688 C 403.585938 275.035156 403.371094 275.003906 403.15625 275.019531 C 400.480469 275.136719 398.398438 277.382812 398.515625 280.074219 C 398.546875 281.03125 398.878906 281.890625 399.375 282.617188 C 397.40625 283.292969 396.019531 285.191406 396.105469 287.371094 C 396.152344 288.609375 396.679688 289.699219 397.472656 290.527344 C 395.789062 291.351562 394.667969 293.101562 394.75 295.085938 C 394.832031 297.066406 396.105469 298.71875 397.835938 299.394531 C 397.109375 300.285156 396.679688 301.410156 396.730469 302.648438 C 396.832031 305.222656 398.925781 307.222656 401.46875 307.269531 C 401.289062 307.800781 401.191406 308.378906 401.222656 308.972656 C 401.339844 311.648438 403.585938 313.726562 406.277344 313.613281 C 406.554688 313.597656 406.835938 313.546875 407.101562 313.496094 C 407.085938 313.710938 407.050781 313.910156 407.070312 314.125 C 407.183594 316.800781 409.429688 318.878906 412.121094 318.765625 C 412.945312 318.730469 413.671875 318.433594 414.335938 318.039062 C 414.335938 318.039062 423.761719 318.152344 435.6875 312.226562 C 447.609375 306.296875 456.527344 284.8125 456.527344 284.8125 Z M 747.277344 560.023438 C 751.4375 557.613281 753.882812 552.394531 751.324219 548.332031 L 732.628906 518.675781 L 724.570312 511.691406 L 706.507812 495.773438 L 691.695312 486.277344 C 683.089844 490.222656 673.398438 505.796875 669.25 518.824219 C 669.1875 519.519531 747.277344 560.023438 747.277344 560.023438 Z M 747.277344 560.023438 " fill-opacity="1" fill-rule="nonzero"/><path fill="#bd755c" d="M 885.347656 379.945312 L 892.828125 391.207031 C 884.472656 390.070312 877.207031 398.175781 877.207031 398.175781 C 877.207031 398.175781 864.671875 380.261719 864.242188 379.945312 Z M 516.636719 376.777344 L 524.660156 364.339844 L 538.203125 358.347656 C 538.203125 358.347656 540.925781 354.382812 543.652344 349.992188 C 546.359375 345.597656 542.792969 340 539.570312 341.816406 C 541.058594 338.925781 538.796875 334.15625 535.957031 336.234375 C 537.671875 333.460938 534.386719 329.316406 531 331.644531 C 531.726562 329.730469 529.101562 326.3125 524.164062 329.101562 L 517.296875 332.074219 C 513.414062 333.757812 510.722656 337.375 510.246094 341.585938 L 509.632812 347.070312 C 507.058594 349.992188 503.835938 352.996094 500.320312 355.96875 C 504.332031 361.070312 511.5 370.21875 516.636719 376.777344 Z M 860.660156 249.574219 C 834.945312 254.230469 808.394531 257.78125 782.285156 258.605469 C 762.15625 259.25 740.574219 258.277344 724.289062 246.4375 C 721.5 244.40625 718.90625 242.078125 716.910156 239.269531 C 713.046875 233.851562 711.675781 227.113281 711.789062 220.394531 L 711.957031 220.542969 L 749.835938 204.09375 L 771.980469 199.222656 C 772.625 205.546875 773.039062 209.890625 773.039062 209.890625 L 833.460938 230.878906 C 833.460938 230.878906 843.304688 225.429688 844.078125 225.511719 C 846.226562 224.421875 856.628906 229.113281 856.628906 229.113281 C 863.484375 230.535156 863.070312 235.386719 860.640625 236.445312 C 864.507812 237.484375 864.226562 242.769531 861.070312 243.066406 C 864.769531 245.660156 863.730469 249.722656 860.660156 249.574219 Z M 788.296875 95.980469 L 789.171875 104.1875 C 789.238281 104.867188 788.5625 105.378906 787.933594 105.128906 L 785.042969 103.976562 L 782.21875 110.910156 C 780.074219 116.160156 774.046875 118.65625 768.828125 116.441406 L 768.234375 116.195312 L 758.984375 129.074219 C 758.984375 129.074219 761.296875 139.179688 761.808594 139.710938 C 762.074219 139.992188 752.332031 135.8125 745.921875 129.753906 C 740.078125 124.21875 737.550781 116.773438 737.550781 116.773438 C 737.882812 116.292969 743.546875 106.203125 743.546875 106.203125 C 743.546875 106.203125 749.0625 104.71875 754.03125 100.324219 C 749.078125 98.011719 746.566406 92.414062 748.121094 87.179688 L 748.167969 87.015625 C 749.605469 83.382812 753.75 81.617188 757.351562 83.136719 L 757.5 83.199219 C 759.546875 84.058594 760.519531 86.421875 759.679688 88.484375 C 759.679688 88.484375 759.050781 89.988281 758.902344 90.402344 C 761.132812 91.605469 763.921875 90.597656 764.996094 88.304688 L 772.34375 72.597656 C 772.34375 72.597656 781.460938 80.675781 792.707031 84.71875 C 791.699219 87.921875 788.296875 95.980469 788.296875 95.980469 Z M 788.296875 95.980469 " fill-opacity="1" fill-rule="nonzero"/><path fill="#efd2c3" d="M 429.527344 503.085938 L 429.527344 542.519531 C 429.527344 576.503906 426.191406 610.425781 419.550781 643.765625 L 402.542969 729.371094 L 371.367188 729.371094 C 371.085938 727.753906 368.640625 618.582031 380.019531 603.042969 C 361.871094 518.195312 361.226562 488.042969 361.226562 488.042969 Z M 711.789062 220.378906 L 711.957031 220.527344 L 753.71875 216.449219 L 771.980469 199.207031 C 770.757812 187.351562 768.28125 168.953125 766.382812 158.652344 L 757.335938 158.1875 C 754.128906 164.710938 749.65625 170.621094 744.238281 175.476562 C 735.15625 183.585938 723.25 189.035156 717.042969 199.503906 C 714.316406 204.09375 712.898438 209.378906 712.21875 214.664062 C 711.972656 216.5625 711.824219 218.460938 711.789062 220.378906 Z M 711.789062 220.378906 " fill-opacity="1" fill-rule="nonzero"/><g mask="url(#c4663682fa)"><g transform="matrix(1, 0, 0, 1, 360, 272)"><g clip-path="url(#e97239e1d6)"><g clip-path="url(#83022f671e)"><path fill="#4e46e5" d="M 69.527344 231.085938 L 69.527344 270.519531 C 69.527344 304.503906 66.191406 338.425781 59.550781 371.765625 L 42.542969 457.371094 L 11.367188 457.371094 C 11.085938 455.753906 8.640625 346.582031 20.019531 331.042969 C 1.871094 246.195312 1.226562 216.042969 1.226562 216.042969 Z M 318.464844 4.539062 C 318.449219 4.488281 373.226562 109.070312 373.226562 109.070312 C 351.625 133.261719 347.792969 179.714844 330.042969 213.234375 L 331.675781 214.292969 L 338.464844 232.65625 L 364.753906 236.503906 L 366.667969 236.734375 L 411.386719 163.910156 C 424.449219 142.804688 429.417969 117.691406 425.40625 93.183594 C 419.132812 54.921875 410.296875 1.535156 409.902344 1.699219 C 409.304688 1.964844 318.464844 4.539062 318.464844 4.539062 Z M 318.464844 4.539062 " fill-opacity="1" fill-rule="nonzero"/></g></g></g></g><g mask="url(#642c66107a)"><g transform="matrix(1, 0, 0, 1, 432, 326)"><g clip-path="url(#4d5c3e22e8)"><path fill="#4e46e5" d="M 111.652344 23.992188 C 108.941406 28.382812 106.203125 32.347656 106.203125 32.347656 L 92.660156 38.339844 L 84.636719 50.777344 L 62.523438 85.007812 C 53.324219 99.257812 34.367188 103.421875 20.035156 94.371094 L 1.09375 82.398438 L 7.980469 30.398438 L 34.070312 55.847656 C 37.421875 51.867188 55.027344 41.183594 68.320312 29.96875 C 71.835938 26.996094 75.058594 24.007812 77.632812 21.070312 L 78.246094 15.585938 C 78.722656 11.375 81.398438 7.757812 85.296875 6.074219 L 92.164062 3.101562 C 97.101562 0.3125 99.710938 3.730469 99 5.644531 C 102.386719 3.316406 105.65625 7.460938 103.957031 10.234375 C 106.8125 8.15625 109.058594 12.925781 107.570312 15.816406 C 110.792969 13.984375 114.359375 19.597656 111.652344 23.992188 Z M 111.652344 23.992188 " fill-opacity="1" fill-rule="nonzero"/></g></g></g><path fill="#1b1b1b" d="M 512.804688 593.316406 L 527.136719 587.46875 L 565.449219 640.347656 C 567.808594 643.617188 568.105469 647.941406 566.207031 651.492188 C 566.207031 651.492188 503.226562 623.1875 503.226562 623.1875 C 499.644531 603.820312 512.804688 593.316406 512.804688 593.316406 Z M 411.59375 321.96875 L 402.921875 329.101562 L 446.914062 376.246094 L 433.210938 336.914062 L 426.636719 325.75 Z M 677.671875 235.867188 C 676.78125 241.84375 675.988281 247.804688 675.277344 253.601562 C 671.878906 281.542969 694.699219 305.71875 722.804688 304.085938 L 819.160156 298.484375 C 817.855469 310.804688 837.605469 347.859375 841.453125 357.6875 C 845.300781 367.511719 850.007812 385.628906 850.007812 385.628906 C 850.007812 385.628906 868.335938 388.914062 885.363281 379.945312 C 885.363281 379.945312 878.445312 312.457031 872.085938 267.789062 C 869.425781 249.144531 853.425781 235.339844 834.601562 235.421875 L 752.363281 235.851562 C 752.363281 235.851562 706.292969 222.507812 703.847656 223.84375 C 701.386719 225.199219 677.671875 235.867188 677.671875 235.867188 Z M 677.671875 235.867188 " fill-opacity="1" fill-rule="nonzero"/><path fill="#efd2c3" d="M 436.3125 456.253906 C 437.371094 456.46875 469.71875 461.804688 494.472656 465.882812 C 511.003906 468.605469 523.667969 482.066406 525.371094 498.746094 L 538.152344 595.332031 L 500.039062 601.539062 C 498.304688 586.25 476.589844 544.980469 477.878906 528.566406 L 403.238281 521.53125 C 381.226562 519.453125 362.367188 504.902344 354.785156 484.144531 L 352.09375 476.765625 L 429.492188 446.792969 Z M 680.332031 195.375 L 690.882812 187.019531 C 690.882812 187.019531 681.636719 213.921875 677.65625 235.867188 L 739.449219 235.867188 L 760.671875 156.71875 L 761.792969 139.726562 L 754.707031 133.054688 C 754.707031 133.054688 753.207031 128.199219 747.210938 122.617188 C 736.230469 112.460938 719.335938 112.28125 708.15625 122.222656 L 659.886719 164.148438 C 656.980469 187.582031 680.332031 195.375 680.332031 195.375 Z M 680.332031 195.375 " fill-opacity="1" fill-rule="nonzero"/><path fill="#4e46e5" d="M 766.398438 158.667969 L 752.363281 235.867188 L 739.464844 235.867188 L 734.230469 221.46875 L 758.308594 152.308594 L 754.195312 141.425781 L 759.25 137.316406 L 761.808594 139.726562 Z M 422.871094 345.1875 L 422.144531 342.015625 C 417.472656 330.125 404.144531 324.148438 392.15625 328.558594 L 336.589844 349 C 316.824219 356.265625 305.148438 376.710938 308.945312 397.449219 C 311.769531 412.859375 314.707031 429.371094 316.34375 438.320312 L 333.386719 444.878906 L 341.015625 435.628906 C 343.328125 420.683594 347.734375 395.140625 346.132812 386.519531 C 350.542969 385.925781 361.921875 384.4375 374.964844 381.847656 C 374.964844 381.847656 353.316406 431.863281 348.363281 479.109375 C 348.363281 479.109375 387.300781 489.25 429.460938 454.949219 L 436.3125 456.289062 C 439.878906 448.296875 438.59375 418.769531 440.820312 412.445312 C 443.066406 406.105469 452.398438 393.570312 446.898438 376.265625 Z M 422.871094 345.1875 " fill-opacity="1" fill-rule="nonzero"/><path fill="#bd755c" d="M 659.90625 164.132812 L 680.332031 195.375 L 675.113281 199.339844 C 675.839844 208.257812 651.597656 257.847656 652.984375 265.9375 C 652.984375 265.9375 657.460938 276.308594 657.625 276.640625 C 657.792969 276.96875 655.84375 286.449219 653.167969 291.285156 C 650.476562 296.140625 645.242188 295.035156 645.503906 292.542969 C 644.234375 297.429688 637.84375 297.117188 638.109375 291.730469 C 637.101562 298.105469 629.917969 296.570312 629.917969 291.730469 C 629.109375 295.199219 622.453125 294.902344 622.964844 289.421875 C 623.691406 258.855469 632.445312 218.148438 638.933594 194.667969 C 642.253906 182.644531 649.089844 171.746094 659.277344 164.5625 Z M 449.855469 282.601562 L 448.203125 285.902344 C 447.113281 288.066406 444.554688 289.058594 442.292969 288.183594 L 442.226562 288.148438 C 438.921875 286.859375 435.191406 288.414062 433.789062 291.648438 C 432.582031 294.40625 429.660156 296.007812 426.703125 295.53125 L 424.375 295.148438 C 420.660156 294.554688 417.15625 297.03125 416.464844 300.730469 C 415.703125 304.859375 418.246094 308.871094 422.277344 309.964844 L 422.046875 310.691406 C 420.246094 316.632812 414.316406 318.054688 414.316406 318.054688 L 411.59375 321.96875 L 433.191406 336.914062 L 435.984375 329.925781 C 440.691406 331.050781 445.429688 328.195312 446.632812 323.503906 L 448.664062 315.5625 L 450.878906 315.90625 C 452.398438 316.140625 453.6875 314.816406 453.40625 313.316406 L 451.636719 303.9375 L 456.527344 284.828125 Z M 339.742188 445.027344 C 339.890625 443.109375 340.371094 439.773438 341.015625 435.628906 L 316.34375 438.304688 C 317.085938 442.417969 317.550781 444.945312 317.597656 445.027344 C 317.960938 445.671875 313.71875 460.5 318.886719 474.601562 C 320.585938 478.433594 324.914062 476.351562 325.507812 474.601562 C 326.878906 478.152344 332.675781 475.574219 332.988281 472.089844 C 334.195312 474.949219 339.792969 474.453125 339.761719 470.769531 C 341.328125 473.992188 346.167969 471.941406 346.8125 468.113281 C 347.207031 465.75 347.621094 461.308594 347.867188 458.238281 C 348.03125 456.121094 347.371094 454.027344 346 452.40625 Z M 726.667969 508.734375 L 706.457031 495.855469 L 719.386719 520.824219 C 719.386719 520.824219 727 515.40625 732.613281 518.691406 Z M 726.667969 508.734375 " fill-opacity="1" fill-rule="nonzero"/></svg>